<?xml version="1.0" encoding="UTF-8"?>
<svg version="1.1" xmlns="http://www.w3.org/2000/svg" width="1024" height="1024">
<path d="M0 0 C337.92 0 675.84 0 1024 0 C1024 337.92 1024 675.84 1024 1024 C686.08 1024 348.16 1024 0 1024 C0 686.08 0 348.16 0 0 Z " fill="#75D2FE" transform="translate(0,0)"/>
<path d="M0 0 C3.03911618 1.08992971 5.93896477 2.45358686 8.87109375 3.80078125 C11.23482368 4.8682931 11.23482368 4.8682931 14.55859375 5.73828125 C17.45965119 6.5671548 19.85033991 7.52442513 22.55859375 8.80078125 C26.40935001 10.57604515 29.84259475 11.19176286 34.05859375 11.73828125 C37.42608229 12.99395494 40.29316601 14.13521697 43.12109375 16.36328125 C45.66482118 18.16850717 48.0096203 18.27430703 51.05859375 18.73828125 C51.71859375 19.39828125 52.37859375 20.05828125 53.05859375 20.73828125 C54.06921875 20.86203125 55.07984375 20.98578125 56.12109375 21.11328125 C60.18819597 21.75885303 63.08954094 23.01117296 66.76953125 24.75 C70.12713453 26.1996137 73.49064378 26.95981944 77.05859375 27.73828125 C77.05859375 28.39828125 77.05859375 29.05828125 77.05859375 29.73828125 C78.04859375 29.40828125 79.03859375 29.07828125 80.05859375 28.73828125 C80.05859375 29.39828125 80.05859375 30.05828125 80.05859375 30.73828125 C81.04859375 30.40828125 82.03859375 30.07828125 83.05859375 29.73828125 C83.05859375 30.39828125 83.05859375 31.05828125 83.05859375 31.73828125 C84.04859375 31.40828125 85.03859375 31.07828125 86.05859375 30.73828125 C86.05859375 31.39828125 86.05859375 32.05828125 86.05859375 32.73828125 C87.04859375 32.40828125 88.03859375 32.07828125 89.05859375 31.73828125 C89.05859375 32.39828125 89.05859375 33.05828125 89.05859375 33.73828125 C90.04859375 33.40828125 91.03859375 33.07828125 92.05859375 32.73828125 C94.54398386 33.38483237 96.89669898 34.10199261 99.31640625 34.94140625 C100.02006317 35.17986267 100.72372009 35.41831909 101.44869995 35.66400146 C102.93465274 36.17067795 104.4190109 36.68205173 105.90185547 37.19775391 C108.17696595 37.98598499 110.4588629 38.75156486 112.7421875 39.515625 C114.18405921 40.01036429 115.62548207 40.50641405 117.06640625 41.00390625 C118.09448898 41.34630341 118.09448898 41.34630341 119.14334106 41.69561768 C121.05517578 42.37207031 121.05517578 42.37207031 124.05859375 43.73828125 C124.38859375 44.72828125 124.71859375 45.71828125 125.05859375 46.73828125 C125.71859375 46.73828125 126.37859375 46.73828125 127.05859375 46.73828125 C127.38859375 46.07828125 127.71859375 45.41828125 128.05859375 44.73828125 C128.38859375 45.39828125 128.71859375 46.05828125 129.05859375 46.73828125 C129.71859375 46.40828125 130.37859375 46.07828125 131.05859375 45.73828125 C131.05859375 46.39828125 131.05859375 47.05828125 131.05859375 47.73828125 C132.04859375 47.40828125 133.03859375 47.07828125 134.05859375 46.73828125 C136.1015625 47.296875 136.1015625 47.296875 138.24609375 48.17578125 C138.96152344 48.46324219 139.67695313 48.75070312 140.4140625 49.046875 C140.95675781 49.27503906 141.49945313 49.50320313 142.05859375 49.73828125 C142.38859375 49.07828125 142.71859375 48.41828125 143.05859375 47.73828125 C142.43350816 53.56679938 140.29829614 58.59147856 138.10888672 63.97192383 C137.70058121 64.98912506 137.2922757 66.00632629 136.87159729 67.05435181 C135.52044807 70.41620174 134.16068366 73.77449485 132.80078125 77.1328125 C131.8543981 79.48227199 130.90853411 81.83194066 129.96316528 84.18180847 C127.97775064 89.11347494 125.98868074 94.04364105 123.99609375 98.97241211 C121.45972038 105.24627291 118.9292792 111.52250584 116.40121269 117.7997179 C112.20087276 128.22899878 107.99697949 138.65684703 103.78466797 149.08129883 C103.40932419 150.01128189 103.03398041 150.94126495 102.64726257 151.89942932 C99.15772464 160.52940707 95.60317816 169.13000482 92.05859375 177.73828125 C108.88859375 177.73828125 125.71859375 177.73828125 143.05859375 177.73828125 C143.38859375 175.75828125 143.71859375 173.77828125 144.05859375 171.73828125 C144.54507292 170.15481724 145.07549939 168.58407673 145.65234375 167.03125 C145.96042969 166.19787109 146.26851562 165.36449219 146.5859375 164.50585938 C147.06740234 163.2287207 147.06740234 163.2287207 147.55859375 161.92578125 C147.87957031 161.05501953 148.20054687 160.18425781 148.53125 159.28710938 C150.91916246 152.87771254 150.91916246 152.87771254 152.05859375 151.73828125 C154.05291105 151.64422983 156.05058918 151.62084876 158.04711914 151.62475586 C159.32837173 151.62483139 160.60962433 151.62490692 161.92970276 151.62498474 C163.33855223 151.63009216 164.74740131 151.63530816 166.15625 151.640625 C167.58971609 151.64248923 169.02318282 151.64391311 170.45664978 151.64491272 C174.23619332 151.64873753 178.01569865 151.65856748 181.79522705 151.6696167 C185.64928673 151.67983162 189.50335257 151.68441051 193.35742188 151.68945312 C200.92449662 151.70018979 208.49153984 151.71726576 216.05859375 151.73828125 C219.51930917 159.95506368 222.22612933 168.24088798 225.05859375 176.73828125 C241.55859375 176.73828125 258.05859375 176.73828125 275.05859375 176.73828125 C265.51023757 151.9615445 265.51023757 151.9615445 255.6171875 127.3203125 C255.11550049 126.10512939 254.61381348 124.88994629 254.09692383 123.63793945 C253.18301942 121.43961178 252.26271074 119.24393084 251.3347168 117.05151367 C249.22776619 111.99391742 247.59112506 107.19901455 246.53759766 101.82421875 C245.59322627 97.71172684 243.7804942 93.92236553 242.09375 90.0703125 C240.57748074 86.47757599 239.71534993 83.64827604 240.05859375 79.73828125 C241.87355037 80.18678783 243.68552509 80.64737696 245.49609375 81.11328125 C247.01009766 81.49613281 247.01009766 81.49613281 248.5546875 81.88671875 C251.05859375 82.73828125 251.05859375 82.73828125 252.05859375 84.73828125 C253.54359375 84.24328125 253.54359375 84.24328125 255.05859375 83.73828125 C257.24609375 84.17578125 257.24609375 84.17578125 259.05859375 84.73828125 C259.05859375 85.39828125 259.05859375 86.05828125 259.05859375 86.73828125 C260.37859375 86.40828125 261.69859375 86.07828125 263.05859375 85.73828125 C263.38859375 86.39828125 263.71859375 87.05828125 264.05859375 87.73828125 C265.37859375 87.73828125 266.69859375 87.73828125 268.05859375 87.73828125 C268.71859375 87.73828125 269.37859375 87.73828125 270.05859375 87.73828125 C270.05859375 88.39828125 270.05859375 89.05828125 270.05859375 89.73828125 C271.54359375 89.24328125 271.54359375 89.24328125 273.05859375 88.73828125 C276.68859375 89.72828125 280.31859375 90.71828125 284.05859375 91.73828125 C284.38859375 74.57828125 284.71859375 57.41828125 285.05859375 39.73828125 C285.38859375 39.73828125 285.71859375 39.73828125 286.05859375 39.73828125 C286.05859375 100.78828125 286.05859375 161.83828125 286.05859375 224.73828125 C299.91859375 224.73828125 313.77859375 224.73828125 328.05859375 224.73828125 C328.05859375 205.59828125 328.05859375 186.45828125 328.05859375 166.73828125 C330.69859375 168.71828125 333.33859375 170.69828125 336.05859375 172.73828125 C338.3322323 174.05764625 340.64435872 175.31376066 342.99609375 176.48828125 C344.11886719 177.060625 345.24164063 177.63296875 346.3984375 178.22265625 C360.93249935 184.24102978 378.9876141 183.77956056 393.58203125 178.2109375 C411.53837569 170.6047107 422.98780963 158.37136936 430.93359375 140.80078125 C433.23719319 134.93491462 434.35073392 128.98544025 435.3828125 122.79296875 C436.05859375 119.73828125 436.05859375 119.73828125 438.05859375 117.73828125 C438.14055493 121.9183012 437.95305079 125.6604023 437.05859375 129.73828125 C438.99496415 130.24263819 440.93273521 130.74161999 442.87109375 131.23828125 C443.95003906 131.51671875 445.02898437 131.79515625 446.140625 132.08203125 C449.0479335 132.84799073 449.0479335 132.84799073 452.05859375 132.73828125 C452.05637314 132.14614838 452.05415253 131.5540155 452.05186462 130.94393921 C451.9444329 100.85767615 452.00956305 70.80863466 453.05859375 40.73828125 C453.38859375 40.73828125 453.71859375 40.73828125 454.05859375 40.73828125 C454.05859375 101.45828125 454.05859375 162.17828125 454.05859375 224.73828125 C467.91859375 224.73828125 481.77859375 224.73828125 496.05859375 224.73828125 C496.05859375 205.92828125 496.05859375 187.11828125 496.05859375 167.73828125 C499.31912389 169.36854632 501.7490815 170.94626048 504.62109375 173.11328125 C517.83717525 182.49748113 534.88263654 183.81548007 550.5859375 181.33984375 C563.60417469 178.5239189 573.39590958 172.69179778 583.02734375 163.59375 C585.05859375 161.73828125 585.05859375 161.73828125 587.05859375 160.73828125 C589.77530134 161.07463016 592.43537706 161.48035158 595.12890625 161.953125 C596.32324783 162.15501183 596.32324783 162.15501183 597.54171753 162.36097717 C600.09008567 162.79318168 602.6368053 163.23437308 605.18359375 163.67578125 C606.90875328 163.96999325 608.63401262 164.26362057 610.359375 164.55664062 C614.59363698 165.27706931 618.82644189 166.00556273 623.05859375 166.73828125 C623.38859375 166.07828125 623.71859375 165.41828125 624.05859375 164.73828125 C624.82429687 165.50011719 624.82429687 165.50011719 625.60546875 166.27734375 C639.83792377 179.75275329 655.68353693 182.47150379 674.6171875 182.015625 C685.47321238 181.5706 693.70558604 178.23605463 703.125 173.1640625 C706.05859375 171.73828125 706.05859375 171.73828125 709.05859375 171.73828125 C705.75859375 174.04828125 702.45859375 176.35828125 699.05859375 178.73828125 C710.3949584 180.83008831 721.72938894 182.58882769 733.1640625 184.04296875 C734.7621732 184.24900714 736.36025077 184.4553026 737.95829773 184.66183472 C742.18191027 185.20623403 746.40624133 185.74481848 750.63088226 186.28117371 C753.27186478 186.61655393 755.91270635 186.95302716 758.55352783 187.28967285 C784.66396017 190.61494149 810.77578603 193.84470137 836.97125244 196.43286133 C840.33576215 196.76570055 843.69985104 197.10263697 847.06396484 197.43945312 C898.8847809 202.6039593 950.85965214 207.12138045 1002.90600586 209.19433594 C1003.67603439 209.22611938 1004.44606293 209.25790283 1005.23942566 209.29064941 C1007.25154715 209.3721642 1009.26394998 209.44665297 1011.27636719 209.52050781 C1014.05859375 209.73828125 1014.05859375 209.73828125 1015.05859375 210.73828125 C1016.94135404 318.05561801 1016.05859375 425.40443032 1016.05859375 532.73828125 C678.13859375 532.73828125 340.21859375 532.73828125 -7.94140625 532.73828125 C-7.94140625 138.73828125 -7.94140625 138.73828125 -6.94140625 -0.26171875 C-4.27650581 -1.59416897 -2.75059707 -0.84061906 0 0 Z " fill="#3BBEFD" transform="translate(7.94140625,491.26171875)"/>
<path d="M0 0 C337.92 0 675.84 0 1024 0 C1024 63.69 1024 127.38 1024 193 C1023.67 193 1023.34 193 1023 193 C1022.67 190.03 1022.34 187.06 1022 184 C1021.01 183.67 1020.02 183.34 1019 183 C1019 182.34 1019 181.68 1019 181 C1018.01 181 1017.02 181 1016 181 C1016 180.34 1016 179.68 1016 179 C1015.01 179 1014.02 179 1013 179 C1013 178.34 1013 177.68 1013 177 C1012.266604 176.72381836 1011.53320801 176.44763672 1010.77758789 176.16308594 C1008.18932041 175.07927595 1005.94191204 173.86234428 1003.55859375 172.390625 C1002.73262695 171.88563477 1001.90666016 171.38064453 1001.05566406 170.86035156 C1000.19166992 170.32893555 999.32767578 169.79751953 998.4375 169.25 C991.10891118 164.78993121 983.79058096 160.61026923 976 157 C976 156.34 976 155.68 976 155 C975.443125 154.84144531 974.88625 154.68289062 974.3125 154.51953125 C969.21037671 152.95959153 965.0328053 151.00428484 960.62890625 147.98828125 C959.0325609 146.82709647 959.0325609 146.82709647 957 147 C957 146.34 957 145.68 957 145 C954.36 144.34 951.72 143.68 949 143 C949 142.34 949 141.68 949 141 C947.865625 140.67 946.73125 140.34 945.5625 140 C941.13446869 138.52625338 936.99920085 136.60391958 932.8125 134.5625 C913.56221295 125.26097482 892.85074426 116.81196174 872.29296875 110.94140625 C869.8602229 110.24592375 867.58552025 109.51063552 865.25 108.5625 C861.15060635 106.98459026 856.97480142 105.87206837 852.73046875 104.75390625 C850.23910541 104.06601909 847.81570704 103.2851452 845.375 102.4375 C841.64197722 101.15531686 837.9111935 100.27159657 834.05078125 99.46484375 C831.29888162 98.84107983 828.67582799 97.89194266 826 97 C823.74564136 96.46858581 821.48389143 95.98323017 819.21875 95.5 C817.3158803 95.07118429 815.43544603 94.54485703 813.5625 94 C810.67689168 93.19000468 807.87544505 92.56127905 804.9375 92 C802.13869619 91.46468662 799.63845268 90.87456521 796.9375 89.9375 C793.64918129 88.88803658 790.58236486 88.60118937 787.16015625 88.28125 C784.29620223 87.90836629 781.72893538 86.92899928 779 86 C777.16033839 85.76586125 775.31984064 85.53657886 773.47583008 85.33959961 C770.42814974 84.92156161 767.45758487 84.27207994 764.44921875 83.62890625 C755.96171841 81.88186783 747.41941181 80.74823004 738.82226562 79.69238281 C736.26568914 79.37693583 733.71102936 79.04839895 731.15625 78.71875 C720.47775194 77.37129009 709.85245348 76.54264426 699.10006714 76.0947876 C695.66813322 75.93988552 692.24073853 75.72057756 688.8125 75.5 C687.50740479 75.4179834 686.20230957 75.3359668 684.85766602 75.25146484 C682.35239512 75.08815689 679.84761566 74.9170548 677.34350586 74.73681641 C667.46715296 74.05205594 657.64809606 73.84013226 647.75 73.875 C646.98852661 73.87621857 646.22705322 73.87743713 645.44250488 73.87869263 C633.60298706 73.90084718 621.8136327 74.18067115 610 75 C602.43083481 75.51122051 594.86199518 76.01272118 587.2890625 76.46484375 C585.39220703 76.58182617 585.39220703 76.58182617 583.45703125 76.70117188 C580.87922953 76.86014945 578.30108805 77.01370114 575.72265625 77.16210938 C569.73294795 77.53992174 564.02759871 78.03834815 558.20410156 79.49829102 C553.71812877 80.51941132 549.12590019 80.95178955 544.5625 81.5 C538.03241248 82.28759174 531.59581955 83.19206096 525.15942383 84.56030273 C522.12583241 85.17799614 519.06504224 85.57089409 516 86 C515.35289062 86.16757813 514.70578125 86.33515625 514.0390625 86.5078125 C512 87 512 87 508.25 87.3125 C503.5753761 87.79014164 499.10999785 88.85703786 494.5625 90 C493.8519043 90.17829346 493.14130859 90.35658691 492.40917969 90.5402832 C488.60996446 91.50455336 488.60996446 91.50455336 485 93 C483.09290303 93.23420489 481.18563086 93.46710487 479.27734375 93.69140625 C474.05355542 94.39926093 469.11692628 95.54313119 464.20703125 97.4609375 C460.27617737 98.96366923 456.3017968 99.89914146 452.1875 100.75 C444.82713484 102.36942785 437.92676383 104.7307013 430.89746094 107.42602539 C425.01916219 109.6693786 419.14922317 111.44650588 413.078125 113.10546875 C407.12050488 114.83680759 401.51028248 117.3067545 395.875 119.875 C392.00229879 121.62741402 388.06388715 123.06704251 384.0625 124.5 C353.75910213 135.60759927 324.54867962 151.31383606 297 168 C296.09169434 168.5451123 295.18338867 169.09022461 294.24755859 169.65185547 C281.09743258 177.55522602 268.44350282 186.0288719 256 195 C255.19288574 195.5789502 254.38577148 196.15790039 253.55419922 196.75439453 C241.99144861 205.06852967 230.87786734 213.81087209 220 223 C219.08226807 223.76908691 219.08226807 223.76908691 218.14599609 224.55371094 C205.55487537 235.10868915 193.47831187 246.2417293 182 258 C177.38708527 256.62142778 173.16052835 254.7258321 168.8215332 252.67480469 C152.18328799 244.83638176 135.38909874 238.75298267 117.4375 234.6875 C116.42341064 234.45708008 115.40932129 234.22666016 114.36450195 233.98925781 C95.88053698 230.047324 77.62196727 228.45116153 58.75 228.5625 C57.22158478 228.56456955 57.22158478 228.56456955 55.66229248 228.56668091 C40.71489183 228.60398869 26.30954954 229.31893924 11.66259766 232.51928711 C7.8062048 233.21553115 3.89477175 233.56724758 0 234 C0 156.78 0 79.56 0 0 Z " fill="#FEFEFE" transform="translate(0,0)"/>
<path d="M0 0 C4.55494474 1.82197789 7.0161646 3.41464103 10.75 6.4375 C24.69646811 17.42119501 40.07254809 26.05287564 55.56738281 34.64013672 C57.6414436 35.79956251 59.69350518 36.98807615 61.7421875 38.19140625 C65.0889658 40.04938989 68.46794945 41.52896781 72 43 C75.57318279 44.67915717 79.13495476 46.37977044 82.6953125 48.0859375 C118.38396005 64.40211417 158.29588119 74.49825749 197 80 C198.12857422 80.16371094 199.25714844 80.32742188 200.41992188 80.49609375 C255.31875485 88.10957087 314.29361465 83.8699958 365.93920898 63.13330078 C371.45005438 60.97177014 375.43489462 59.98662503 381.1640625 62.25 C382.30617188 62.8275 383.44828125 63.405 384.625 64 C390.59511519 66.92671893 396.63028032 69.55274543 402.8125 72 C403.92842529 72.44279297 403.92842529 72.44279297 405.06689453 72.89453125 C406.69644546 73.53719031 408.32760912 74.17576814 409.95996094 74.8112793 C412.29029509 75.7224901 414.61521094 76.64457306 416.93847656 77.57348633 C428.20010146 82.05022543 439.57811901 86.01253954 451.125 89.6875 C452.05410187 89.98414551 452.98320374 90.28079102 453.94046021 90.58642578 C476.68805828 97.8083888 499.76613417 103.58023894 523 109 C524.41115516 109.33291309 525.82228999 109.66591238 527.23339844 109.99902344 C559.19444141 117.44292367 592.31735889 121.39356916 625 124 C626.87147705 124.1544458 626.87147705 124.1544458 628.78076172 124.31201172 C710.99707945 130.82307504 795.04403516 123.81597204 911.07962036 93.57385254 C912.83018269 93.05074522 914.58190137 92.5315116 916.33374023 92.01269531 C919.20385445 91.16142778 922.07101539 90.30089898 924.9375 89.4375 C925.87400391 89.15970703 926.81050781 88.88191406 927.77539062 88.59570312 C933.23761945 86.94679991 938.51486017 85.05941479 943.79174805 82.89038086 C947.34636908 81.45713565 950.99357417 80.35450583 954.65234375 79.22265625 C958.56627547 77.7931806 962.29329939 76.06686022 966.07543945 74.32250977 C969.75787516 72.65728276 973.48928241 71.13460134 977.23291016 69.61328125 C988.29353467 65.11657623 999.09059279 60.21160767 1009.80126953 54.93530273 C1011.28022705 54.20935913 1011.28022705 54.20935913 1012.7890625 53.46875 C1014.08384521 52.82583008 1014.08384521 52.82583008 1015.40478516 52.16992188 C1018.18869233 50.91493757 1021.10299943 49.96566686 1024 49 C1024 90.91 1024 132.82 1024 176 C686.08 176 348.16 176 0 176 C0 117.92 0 59.84 0 0 Z " fill="#05A1E5" transform="translate(0,848)"/>
<path d="M0 0 C1.04430176 -0.01023193 2.08860352 -0.02046387 3.16455078 -0.03100586 C20.43745862 0.16247885 34.40446548 6.15776952 46.5 18.4375 C47.21027344 19.1490625 47.92054688 19.860625 48.65234375 20.59375 C64.93581865 37.84610728 68.18893175 58.45304354 67.80859375 81.28515625 C67.04587237 101.9988966 57.45192092 119.05344142 42.6875 133.25 C27.39778316 146.44297601 8.90991012 148.83055575 -10.5 147.4375 C-22.40291554 146.01321951 -31.43961318 139.98782235 -40.5 132.4375 C-40.5 151.2475 -40.5 170.0575 -40.5 189.4375 C-54.36 189.4375 -68.22 189.4375 -82.5 189.4375 C-82.5 128.3875 -82.5 67.3375 -82.5 4.4375 C-69.63 4.4375 -56.76 4.4375 -43.5 4.4375 C-43.005 11.3675 -43.005 11.3675 -42.5 18.4375 C-41.1078125 16.9215625 -41.1078125 16.9215625 -39.6875 15.375 C-28.20255184 3.98230042 -15.82269457 0.11967525 0 0 Z " fill="#FDFEFE" transform="translate(544.5,526.5625)"/>
<path d="M0 0 C1.06089844 0.50789062 2.12179687 1.01578125 3.21484375 1.5390625 C20.60823251 10.79506509 31.21776716 27.70459942 36.96484375 46.0859375 C42.32648534 66.89009519 39.78670423 90.05213182 29.4375 108.8359375 C23.1062152 119.30014432 15.45858794 127.61529738 5 134 C4.36707031 134.38800781 3.73414063 134.77601563 3.08203125 135.17578125 C-11.47122706 143.21265524 -29.60571762 144.37650933 -45.6875 140.875 C-54.94340097 138.03421195 -61.67058154 133.28235868 -69 127 C-69.33 145.81 -69.66 164.62 -70 184 C-83.53 184 -97.06 184 -111 184 C-111 122.95 -111 61.9 -111 -1 C-98.13 -1 -85.26 -1 -72 -1 C-71.505 5.93 -71.505 5.93 -71 13 C-69.88625 11.80375 -68.7725 10.6075 -67.625 9.375 C-50.47822035 -7.74148498 -21.410754 -10.35072034 0 0 Z " fill="#FDFEFE" transform="translate(406,532)"/>
<path d="M0 0 C12.21 0 24.42 0 37 0 C44.0243579 16.47531216 50.90833466 33.02188519 56.8125 49.9375 C58.26867093 54.10721813 59.90245251 57.93713966 61.97265625 61.828125 C63.83744073 65.77040702 65.15603268 69.92227033 66.55859375 74.046875 C67.6691913 77.19786424 68.93129192 80.26791318 70.22827148 83.34667969 C73.1530081 90.33830774 75.97662003 97.36887718 78.7890625 104.40625 C79.33844097 105.7793575 79.88787051 107.15244458 80.43734741 108.5255127 C81.58590709 111.39617956 82.73385231 114.26709112 83.88134766 117.13818359 C85.31534028 120.72597101 86.75086084 124.31314465 88.18681717 127.90014648 C93.68742819 141.64218838 99.17398884 155.38978982 104.59931564 169.16175842 C105.32173982 170.99521734 106.04557568 172.82811981 106.7694397 174.66101074 C107.196633 175.74805298 107.62382629 176.83509521 108.06396484 177.95507812 C108.43967621 178.90966919 108.81538757 179.86426025 109.20248413 180.84777832 C110 183 110 183 110 184 C93.17 184 76.34 184 59 184 C55.71063481 175.77658702 52.80079354 167.40238062 50 159 C28.88 159 7.76 159 -14 159 C-16.97 167.25 -19.94 175.5 -23 184 C-39.83 184 -56.66 184 -74 184 C-70.63082496 172.76941654 -70.63082496 172.76941654 -68.71484375 168.27050781 C-68.2763208 167.22876404 -67.83779785 166.18702026 -67.38598633 165.1137085 C-66.90798584 163.98821594 -66.42998535 162.86272339 -65.9375 161.703125 C-64.85183419 159.11858722 -63.77256392 156.53141455 -62.6953125 153.94335938 C-62.40499649 153.24599041 -62.11468048 152.54862144 -61.81556702 151.83012009 C-57.8786976 142.33949644 -54.10126066 132.78483117 -50.3125 123.234375 C-49.74627426 121.80807014 -49.74627426 121.80807014 -49.16860962 120.35295105 C-46.44286859 113.48643776 -43.72107056 106.61836516 -41 99.75 C-38.24814457 92.8047944 -35.49484286 85.86016705 -32.73861694 78.91669464 C-31.65143219 76.17600797 -30.56649163 73.43444048 -29.48168945 70.69281006 C-28.8134189 69.00838115 -28.1450486 67.32399181 -27.4765625 65.63964844 C-27.18252029 64.89470123 -26.88847809 64.14975403 -26.58552551 63.38223267 C-24.7888169 58.86327028 -22.87933326 54.40776892 -20.88400269 49.97285843 C-18.81727669 45.36047673 -16.92171995 40.67411884 -15 36 C-14.68289062 35.23429688 -14.36578125 34.46859375 -14.0390625 33.6796875 C-12.38249832 29.61614973 -10.82178189 25.52725872 -9.3359375 21.3984375 C-9.03413574 20.5638501 -8.73233398 19.7292627 -8.42138672 18.86938477 C-7.82079028 17.20270579 -7.22578266 15.53399899 -6.63720703 13.86303711 C-6.35474121 13.07936768 -6.07227539 12.29569824 -5.78125 11.48828125 C-5.53439453 10.79259033 -5.28753906 10.09689941 -5.03320312 9.38012695 C-3.62024602 6.12518395 -1.76049655 3.08086897 0 0 Z " fill="#FDFEFE" transform="translate(174,485)"/>
<path d="M0 0 C1.63388672 -0.01160156 1.63388672 -0.01160156 3.30078125 -0.0234375 C17.43336922 0.01074046 30.02345475 3.92485903 40.3125 13.93359375 C48.69522753 22.81030344 51.9767653 31.06412237 53.5 43.25 C39.97 43.25 26.44 43.25 12.5 43.25 C11.51 40.94 10.52 38.63 9.5 36.25 C6.42802499 33.84670921 3.31508759 33.95180658 -0.5 33.9375 C-1.53125 33.92074219 -2.5625 33.90398438 -3.625 33.88671875 C-6.88459902 34.29859743 -8.2635224 34.85415345 -10.5 37.25 C-11.01922721 39.42403523 -11.01922721 39.42403523 -10.8125 41.75 C-10.78800781 42.5234375 -10.76351562 43.296875 -10.73828125 44.09375 C-10.55644612 46.43084889 -10.55644612 46.43084889 -9.5 49.25 C-7.22006814 50.36278945 -7.22006814 50.36278945 -4.5 51.25 C-3.20255859 51.81847656 -3.20255859 51.81847656 -1.87890625 52.3984375 C3.45033581 54.71935568 8.69910034 56.66640871 14.3125 58.1875 C30.55505436 62.66138942 45.44982848 68.66452058 54.88671875 83.41796875 C59.43138814 92.68271581 59.11099052 105.65891484 55.875 115.3125 C48.97527343 131.03522187 37.25415222 139.15556526 21.7421875 145.3515625 C6.20299391 150.19906604 -13.66390812 148.79868107 -28.31640625 141.9296875 C-40.83268523 134.93585833 -48.90341751 125.37733307 -53.8359375 112.0234375 C-54.5 109.25 -54.5 109.25 -54.5 102.25 C-40.97 102.25 -27.44 102.25 -13.5 102.25 C-12.18 104.89 -10.86 107.53 -9.5 110.25 C-5.06940845 113.92397165 -0.93254442 113.74580368 4.61328125 113.609375 C8.70368335 113.10015038 10.48692677 112.02519903 13.5 109.25 C15.83909307 105.7413604 15.91291057 104.37910567 15.5 100.25 C13.24876823 94.82618292 9.46752215 93.34904987 4.375 91.125 C3.21713989 90.60135864 3.21713989 90.60135864 2.03588867 90.06713867 C-3.059965 87.79376944 -8.15928273 85.8631518 -13.5 84.25 C-27.33368626 79.81183189 -42.2501979 74.06562974 -49.90625 60.81640625 C-54.32918954 51.19651276 -55.10366087 40.8542483 -51.58984375 30.75 C-45.48858655 16.75428457 -34.58150943 7.80609363 -20.5 2.25 C-13.63078682 0.05514781 -7.17842729 -0.05097108 0 0 Z " fill="#FDFEFE" transform="translate(675.5,526.75)"/>
<path d="M0 0 C1.13523102 -0.01283524 2.27046204 -0.02567047 3.44009399 -0.03889465 C5.28998428 -0.04997505 5.28998428 -0.04997505 7.17724609 -0.0612793 C9.07559708 -0.07338692 9.07559708 -0.07338692 11.01229858 -0.08573914 C13.69736399 -0.09959331 16.38230609 -0.11060467 19.06738281 -0.11816406 C22.49037615 -0.12918706 25.91271193 -0.16353553 29.33547401 -0.20333576 C32.61599893 -0.23594163 35.89658386 -0.24029418 39.17724609 -0.2487793 C40.3983609 -0.26628738 41.61947571 -0.28379547 42.87759399 -0.30183411 C49.93256228 -0.28395091 54.60106198 0.32711121 60.57568359 4.17700195 C64.63060662 8.55205048 66.82123819 11.80521458 66.86621094 17.80664062 C66.87897064 18.96181686 66.89173035 20.1169931 66.90487671 21.30717468 C66.90710236 22.55714737 66.909328 23.80712006 66.91162109 25.0949707 C66.92160629 27.02449333 66.92160629 27.02449333 66.93179321 28.99299622 C66.94377049 31.71916047 66.94747392 34.44519801 66.94628906 37.17138672 C66.94608659 40.64708184 66.97331075 44.12195268 67.00783348 47.59745312 C67.03557752 50.92996966 67.0342556 54.26234038 67.03662109 57.5949707 C67.05099213 58.83482224 67.06536316 60.07467377 67.08016968 61.35209656 C67.04290374 68.44363284 66.44746736 73.17204928 62.57568359 79.17700195 C57.96557449 83.5566056 54.23907808 85.42251797 47.89257812 85.45166016 C46.75104279 85.46119217 45.60950745 85.47072418 44.43338013 85.48054504 C42.58956253 85.47917793 42.58956253 85.47917793 40.70849609 85.4777832 C39.44101532 85.48206833 38.17353455 85.48635345 36.86764526 85.49076843 C34.18603665 85.4965126 31.50481282 85.49794654 28.82324219 85.49267578 C25.39795295 85.48688845 21.97320575 85.5037979 18.54800606 85.52702045 C15.26817375 85.54535549 11.98837039 85.54157124 8.70849609 85.5402832 C6.87075119 85.55409782 6.87075119 85.55409782 4.99588013 85.56819153 C-1.86092742 85.53098283 -6.98309892 85.34615737 -12.25244141 80.4934082 C-12.72166016 79.91461914 -13.19087891 79.33583008 -13.67431641 78.73950195 C-14.15384766 78.16329102 -14.63337891 77.58708008 -15.12744141 76.9934082 C-17.86614648 73.15757128 -18.67927606 70.35312576 -18.73071289 65.61743164 C-18.74670029 64.50237244 -18.76268768 63.38731323 -18.77915955 62.23846436 C-18.78452225 61.03740051 -18.78988495 59.83633667 -18.79541016 58.59887695 C-18.80443863 57.35833557 -18.8134671 56.11779419 -18.82276917 54.83966064 C-18.83727952 52.21368831 -18.84616034 49.58767975 -18.84985352 46.96166992 C-18.85415856 44.27865069 -18.87498733 41.59659223 -18.91137695 38.91381836 C-18.96027558 35.03770785 -18.97564754 31.16276431 -18.98291016 27.28637695 C-19.00244247 26.09341003 -19.02197479 24.90044312 -19.042099 23.67132568 C-19.00372212 16.55084021 -18.20980923 11.62086702 -13.42431641 6.17700195 C-9.08012968 1.92706944 -6.08318093 0.05977692 0 0 Z " fill="#F8BF11" transform="translate(860.42431640625,351.822998046875)"/>
<path d="M0 0 C1.6727021 -0.01925285 1.6727021 -0.01925285 3.37919617 -0.03889465 C4.5854213 -0.04628159 5.79164642 -0.05366852 7.03442383 -0.0612793 C8.27638016 -0.06935104 9.51833649 -0.07742279 10.79792786 -0.08573914 C13.42993906 -0.09958112 16.06182499 -0.11059648 18.69384766 -0.11816406 C21.38353222 -0.12701011 24.0726978 -0.14785076 26.76220703 -0.1796875 C30.64477102 -0.22238974 34.52665404 -0.23853899 38.40942383 -0.2487793 C39.6055278 -0.26628738 40.80163177 -0.28379547 42.03398132 -0.30183411 C49.9373219 -0.28138858 55.33613625 0.46900684 61.34425354 5.75090027 C66.69249403 11.65803584 66.39532042 17.95341363 66.28051758 25.58325195 C66.28201309 27.50216248 66.28201309 27.50216248 66.28353882 29.45983887 C66.2833603 32.15657332 66.26269979 34.85210044 66.22631836 37.54858398 C66.18094207 40.9850747 66.17986395 44.41980602 66.19335365 47.85651398 C66.20168802 51.16145617 66.17765801 54.46586996 66.15551758 57.77075195 C66.1582518 59.60700134 66.1582518 59.60700134 66.16104126 61.48034668 C66.02632977 69.64046134 65.20182659 75.6226656 59.11645508 81.55200195 C54.67909388 84.36593832 51.10205601 85.42704925 45.84912109 85.45166016 C44.16696251 85.46595818 44.16696251 85.46595818 42.45082092 85.48054504 C40.64755592 85.47917793 40.64755592 85.47917793 38.80786133 85.4777832 C36.94205666 85.48421089 36.94205666 85.48421089 35.03855896 85.49076843 C31.73808655 85.49797434 28.43779691 85.49489241 25.1373291 85.48919678 C23.1197589 85.48950145 21.1024823 85.49953929 19.08496094 85.51318359 C15.20078786 85.53768717 11.31710208 85.54183869 7.43286133 85.5402832 C5.63263268 85.55409782 5.63263268 85.55409782 3.79603577 85.56819153 C-2.99622497 85.53057113 -8.05547489 85.2995141 -13.27416992 80.4934082 C-13.74338867 79.91461914 -14.21260742 79.33583008 -14.69604492 78.73950195 C-15.17557617 78.16329102 -15.65510742 77.58708008 -16.14916992 76.9934082 C-18.887875 73.15757128 -19.70100457 70.35312576 -19.75244141 65.61743164 C-19.7684288 64.50237244 -19.7844162 63.38731323 -19.80088806 62.23846436 C-19.80625076 61.03740051 -19.81161346 59.83633667 -19.81713867 58.59887695 C-19.82616714 57.35833557 -19.83519562 56.11779419 -19.84449768 54.83966064 C-19.85900804 52.21368831 -19.86788885 49.58767975 -19.87158203 46.96166992 C-19.87588708 44.27865069 -19.89671585 41.59659223 -19.93310547 38.91381836 C-19.98200409 35.03770785 -19.99737605 31.16276431 -20.00463867 27.28637695 C-20.02417099 26.09341003 -20.04370331 24.90044312 -20.06382751 23.67132568 C-20.02030711 15.59650528 -18.66124694 10.39498584 -12.8969574 4.62689209 C-8.66613337 0.90219061 -5.50007839 0.05514718 0 0 Z " fill="#D92F3F" transform="translate(861.446044921875,449.822998046875)"/>
<path d="M0 0 C1.26323593 -0.00145523 2.52647186 -0.00291046 3.82798767 -0.00440979 C6.49208687 -0.00275343 9.15474447 0.00667239 11.81860352 0.02954102 C15.22033179 0.0579541 18.62116281 0.05517379 22.0229578 0.0424509 C25.28619571 0.0337968 28.54929007 0.04894891 31.8125 0.0625 C33.02825211 0.05956436 34.24400421 0.05662872 35.49659729 0.05360413 C42.52314218 0.13191138 47.56895386 0.45226376 52.921875 5.43359375 C53.49292969 6.11421875 54.06398438 6.79484375 54.65234375 7.49609375 C55.23628906 8.17671875 55.82023438 8.85734375 56.421875 9.55859375 C58.86814129 12.90115045 58.97885119 15.80614123 59.03271484 19.81860352 C59.04877777 20.90726212 59.0648407 21.99592072 59.08139038 23.11756897 C59.1260006 28.11133134 59.16693227 33.10496156 59.18994141 38.09887695 C59.20646472 40.72624593 59.23370616 43.35357063 59.27197266 45.98071289 C59.32698974 49.77904467 59.348658 53.57632233 59.36328125 57.375 C59.38595062 58.53890762 59.40862 59.70281525 59.43197632 60.9019928 C59.4126249 68.44367768 58.19957656 74.22667271 53.83984375 80.49609375 C48.78834874 84.72285488 44.72147123 85.60037406 38.29614258 85.70483398 C36.62839531 85.73376991 36.62839531 85.73376991 34.92695618 85.76329041 C29.84448693 85.82125039 24.76215529 85.87030741 19.67944336 85.90112305 C17.00317105 85.91889669 14.32796036 85.95365749 11.65209961 86.00366211 C7.78337243 86.07077195 3.91610274 86.09814255 0.046875 86.1171875 C-1.14093063 86.14501816 -2.32873627 86.17284882 -3.55253601 86.20152283 C-11.31577856 86.18242092 -16.46450623 84.95235418 -22.16015625 79.49609375 C-27.25191228 73.35467384 -26.77321268 66.95451744 -26.76171875 59.22265625 C-26.770289 57.94433929 -26.77885925 56.66602234 -26.78768921 55.34896851 C-26.80255371 52.65077052 -26.80207647 49.95309614 -26.79150391 47.25488281 C-26.7799276 43.81925755 -26.81376314 40.38579359 -26.86019325 36.95052528 C-26.89697516 33.64531745 -26.88929292 30.34056686 -26.88671875 27.03515625 C-26.90513824 25.81301422 -26.92355774 24.59087219 -26.9425354 23.33169556 C-26.85834167 15.50576256 -25.68108414 10.23409972 -20.16015625 4.49609375 C-14.02455137 -0.592292 -7.72186965 -0.0714718 0 0 Z " fill="#34BD43" transform="translate(773.16015625,351.50390625)"/>
<path d="M0 0 C8.35311641 5.19811237 14.26784913 12.10340087 17.24609375 21.57421875 C19.25430051 31.93732343 17.52502258 42.2027429 12.15234375 51.25 C7.2970866 58.00219482 0.66659108 63.23355963 -7.33984375 65.7109375 C-10.28187122 66.01712302 -13.19642556 66.03564195 -16.15234375 66.0234375 C-16.92126953 66.03955078 -17.69019531 66.05566406 -18.48242188 66.07226562 C-27.40784411 66.07979763 -34.95073491 63.03290892 -41.3828125 56.69921875 C-49.85895153 47.60551039 -51.67924226 39.52531502 -51.55078125 27.21875 C-50.93296794 16.94474347 -45.89521195 9.89734771 -38.58984375 2.9609375 C-27.31970525 -6.34917692 -12.66108099 -6.97521991 0 0 Z " fill="#33B0F3" transform="translate(553.33984375,569.2890625)"/>
<path d="M0 0 C6.82050446 4.79278692 11.91823709 11.62971128 14.5625 19.5625 C15.77528567 31.1016946 15.69647945 41.92935578 8.5625 51.5625 C3.19193104 58.1156791 -2.85255315 63.27357547 -11.4375 64.5625 C-23.21796676 65.52267748 -32.5048998 65.35987314 -41.89453125 57.5078125 C-48.08805418 51.72452291 -52.83138298 45.28663685 -53.61450195 36.59887695 C-54.15221602 18.62723024 -54.15221602 18.62723024 -49.4375 11.5625 C-49.01339844 10.87027344 -48.58929688 10.17804687 -48.15234375 9.46484375 C-37.10141213 -7.0038148 -16.5400414 -9.75438339 0 0 Z " fill="#28A4ED" transform="translate(388.4375,570.4375)"/>
<path d="M0 0 C6.23451797 2.88945929 10.18230822 7.87878507 12.7953186 14.19241333 C14.02652542 18.47288503 13.76818862 22.86284944 13.69921875 27.28125 C13.69497391 28.31455948 13.69072906 29.34786896 13.68635559 30.41249084 C13.66964394 33.69323447 13.63200511 36.97335017 13.59375 40.25390625 C13.57869348 42.48631922 13.56500677 44.71874187 13.55273438 46.95117188 C13.51976493 52.40648971 13.46803414 57.86134174 13.40625 63.31640625 C7.13625 63.31640625 0.86625 63.31640625 -5.59375 63.31640625 C-5.64982422 59.07216797 -5.64982422 59.07216797 -5.70703125 54.7421875 C-5.75327189 51.99512092 -5.80449631 49.24818923 -5.85620117 46.5012207 C-5.88940962 44.59537994 -5.91745425 42.68944179 -5.94018555 40.78344727 C-5.97380668 38.0401061 -6.02612595 35.29765403 -6.08203125 32.5546875 C-6.08842117 31.70554276 -6.0948111 30.85639801 -6.10139465 29.98152161 C-6.21640673 25.3305689 -6.4889134 22.03937136 -9.59375 18.31640625 C-13.23157632 17.10379748 -15.77110999 16.92096073 -19.59375 17.31640625 C-22.75329305 19.85777784 -24.30915886 21.46263284 -25.59375 25.31640625 C-25.74788876 28.19079173 -25.85122285 31.04539611 -25.91015625 33.921875 C-25.93093735 34.76107986 -25.95171844 35.60028473 -25.97312927 36.46492004 C-26.03849018 39.14449919 -26.09744714 41.82417594 -26.15625 44.50390625 C-26.19944802 46.32097362 -26.24306273 48.13803113 -26.28710938 49.95507812 C-26.39494168 54.40875559 -26.49411495 58.86250764 -26.59375 63.31640625 C-32.53375 63.31640625 -38.47375 63.31640625 -44.59375 63.31640625 C-44.59375 42.85640625 -44.59375 22.39640625 -44.59375 1.31640625 C-38.98375 1.31640625 -33.37375 1.31640625 -27.59375 1.31640625 C-27.26375 2.96640625 -26.93375 4.61640625 -26.59375 6.31640625 C-26.11164062 5.89488281 -25.62953125 5.47335937 -25.1328125 5.0390625 C-24.50117187 4.49121094 -23.86953125 3.94335938 -23.21875 3.37890625 C-22.27902344 2.56099609 -22.27902344 2.56099609 -21.3203125 1.7265625 C-16.06839532 -2.56289927 -6.30372091 -1.66137223 0 0 Z " fill="#FCFEFE" transform="translate(907.59375,608.68359375)"/>
<path d="M0 0 C0.33 0 0.66 0 1 0 C1 30.03 1 60.06 1 91 C-29.69 91 -60.38 91 -92 91 C-92 90.67 -92 90.34 -92 90 C-90.78376953 89.83564453 -90.78376953 89.83564453 -89.54296875 89.66796875 C-63.64436135 85.95955349 -39.57781958 74.51246311 -22.625 54.0625 C-10.44500439 37.71840332 -3.24402987 20.07482017 0 0 Z " fill="#FCFDFE" transform="translate(1023,933)"/>
<path d="M0 0 C0.33 0 0.66 0 1 0 C1.12375 0.85078125 1.2475 1.7015625 1.375 2.578125 C5.97799029 29.62069298 19.98795917 54.49025748 42.421875 70.6171875 C56.49640598 80.24505128 72.0773677 86.64279342 89 89 C89 89.33 89 89.66 89 90 C59.63 90 30.26 90 0 90 C0 60.3 0 30.6 0 0 Z " fill="#FCFEFE" transform="translate(0,934)"/>
<path d="M0 0 C1.06335571 0.01244751 1.06335571 0.01244751 2.14819336 0.02514648 C10.01181317 0.2794539 14.27364093 2.55422846 19.9375 7.75 C26.10431781 14.45183853 26.64435422 20.12827942 26.3984375 29.06640625 C25.75757013 36.96738539 23.0518741 41.37787583 17.20703125 46.73828125 C9.98571655 52.63184953 2.15956338 52.29092781 -6.875 51.4375 C-13.59682666 49.77015142 -18.02009333 44.99550036 -21.875 39.4375 C-25.72035294 32.76949436 -26.02781813 25.14484072 -24.21875 17.7578125 C-21.68127685 10.56101365 -17.63666991 5.72674483 -11.140625 1.7734375 C-7.35145891 0.2233241 -4.03180271 -0.06056049 0 0 Z " fill="#56C3F9" transform="translate(399.875,395.5625)"/>
<path d="M0 0 C7.7479509 2.5826503 12.3359733 7.88238057 16 15 C19.0885084 21.86926868 18.69405548 27.60068512 16.3125 34.6875 C13.28606752 42.19598472 9.31540258 46.68681765 1.94921875 50.078125 C-4.31444264 52.0360377 -11.1812607 52.34055582 -17.42578125 50.1484375 C-23.89895031 46.45307497 -29.80448778 40.17132262 -32 33 C-32.97629601 24.26027323 -33.12018476 16.48635609 -27.859375 9.05859375 C-19.88111541 0.22552063 -11.50770178 -1.51134106 0 0 Z " fill="#50C2FA" transform="translate(261,396)"/>
<path d="M0 0 C6.27 0 12.54 0 19 0 C22.44367085 10.25092718 25.8264683 20.50832045 29.01953125 30.83984375 C29.65867318 32.89986694 30.31792977 34.95378932 31 37 C34.70791579 24.67850663 38.38079947 12.34786064 42 0 C48.6 0 55.2 0 62 0 C55.25889005 20.88099911 47.59065428 41.4163339 40 62 C34.06 62 28.12 62 22 62 C17.32892186 51.22562937 13.34789688 40.22050578 9.35961914 29.17895508 C8.17833254 25.9121477 6.988787 22.64842259 5.79882812 19.38476562 C5.04637475 17.3074728 4.29440382 15.23000515 3.54296875 13.15234375 C3.18679977 12.17740463 2.8306308 11.20246552 2.46366882 10.19798279 C2.1394545 9.29596634 1.81524017 8.39394989 1.48120117 7.46459961 C1.19427902 6.67250595 0.90735687 5.88041229 0.61174011 5.0643158 C0 3 0 3 0 0 Z " fill="#FCFEFE" transform="translate(795,610)"/>
<path d="M0 0 C2.64 0 5.28 0 8 0 C8 28.38 8 56.76 8 86 C5.36 86 2.72 86 0 86 C-0.495 81.545 -0.495 81.545 -1 77 C-1.54527344 77.54269531 -2.09054687 78.08539063 -2.65234375 78.64453125 C-9.2290121 84.88393455 -14.69230516 87.99620597 -23.8125 88.375 C-34.20572417 87.97153633 -42.53899016 85.40179548 -50 78 C-57.78147438 69.4676816 -59.75559375 61.16210314 -59.34375 49.84765625 C-58.56121084 41.08855317 -54.35437803 34.91829326 -48 29 C-38.83351323 21.79776039 -30.61026337 19.96046186 -19 21 C-13.45196767 22.3684697 -8.34219888 24.18806965 -4 28 C-4 28.66 -4 29.32 -4 30 C-3.34 30 -2.68 30 -2 30 C-1.505 30.99 -1.505 30.99 -1 32 C-0.67 21.44 -0.34 10.88 0 0 Z M-42 34 C-42.56074219 34.53109375 -43.12148438 35.0621875 -43.69921875 35.609375 C-48.93521279 41.13696193 -51.10693626 46.80402411 -51.4375 54.375 C-51.18755393 61.32542341 -49.61553596 67.08680043 -44.90625 72.33203125 C-37.48052979 79.20082244 -31.71876482 80.58464711 -21.66796875 80.30859375 C-14.23948759 79.68362036 -9.4624124 76.30156025 -4.4765625 70.89453125 C0.9750306 63.89976233 0.88100736 55.55978743 0 47 C-1.6568579 40.85581862 -5.94086116 35.76338953 -11 32 C-15.99639421 29.42335709 -20.3636231 28.44726512 -25.9375 28.5 C-26.99300049 28.50858032 -26.99300049 28.50858032 -28.06982422 28.51733398 C-33.9884619 28.72111736 -37.757566 29.91239936 -42 34 Z " fill="#FAFDFE" transform="translate(426,367)"/>
<path d="M0 0 C4.74345358 4.09425829 10.12843638 8.81109038 12.140625 14.84765625 C8.6561941 15.43688152 5.61383291 15.5696152 2.140625 14.84765625 C-0.37767842 12.82956378 -2.38025005 10.56854485 -4.55078125 8.18359375 C-11.04133895 1.61615973 -18.52698187 0.35545446 -27.421875 0.22265625 C-34.89952033 0.32002332 -40.72711124 1.28033693 -46.859375 5.84765625 C-47.57222656 6.35554688 -48.28507812 6.8634375 -49.01953125 7.38671875 C-56.36398946 13.17991756 -61.75085062 21.45984044 -62.859375 30.84765625 C-63.87255047 41.20104309 -61.39946748 50.6258257 -54.859375 58.84765625 C-49.36017087 65.40836896 -42.95268289 69.14988695 -34.859375 71.84765625 C-23.64153734 72.81965639 -13.84995356 70.91168226 -4.859375 63.84765625 C-3.15440963 62.22018931 -1.48040468 60.55874314 0.140625 58.84765625 C2.140625 56.84765625 2.140625 56.84765625 4.5234375 56.65234375 C5.42835938 56.67554688 6.33328125 56.69875 7.265625 56.72265625 C8.17570312 56.74070312 9.08578125 56.75875 10.0234375 56.77734375 C10.72210938 56.80054688 11.42078125 56.82375 12.140625 56.84765625 C7.41258792 67.11153575 -0.4084605 74.45756121 -10.859375 78.84765625 C-22.77986179 82.71978716 -36.52961063 82.17128047 -47.859375 76.84765625 C-58.51307555 70.44343175 -67.83341346 61.23605125 -71.39208984 49.01879883 C-73.97620311 37.01225792 -72.95576923 22.86193422 -66.3515625 12.4765625 C-59.40532165 2.89721174 -50.18662709 -5.27857611 -38.37109375 -7.83203125 C-24.7972793 -9.56306202 -11.3879599 -8.24572652 0 0 Z " fill="#F9FDFE" transform="translate(174.859375,374.15234375)"/>
<path d="M0 0 C1.72211111 0.35545354 3.42823455 0.7884798 5.125 1.25 C9.62860205 2.42462369 14.11524755 3.44382405 18.6875 4.3125 C25.72671065 5.69416325 32.70728434 7.2841417 39.6875 8.9375 C40.72028076 9.17831299 41.75306152 9.41912598 42.81713867 9.66723633 C50.02348073 11.39302142 57.00697382 13.55216825 64 16 C62.58549421 24.23741605 56.88296655 30.54340108 50.16796875 35.296875 C41.85827039 40.29355637 31.41204418 39.94727391 22 39 C13.38721258 36.76503618 6.50747198 30.15462733 1.5859375 22.921875 C-2.32994473 15.76623409 -2.38242058 8.87979729 -1 1 C-0.67 0.67 -0.34 0.34 0 0 Z " fill="#5CC7FB" transform="translate(337,596)"/>
<path d="M0 0 C7.89421118 4.50901993 13.04843074 11.4338901 16 20 C17.92585417 31.0527283 17.1810988 39.57151795 11 49 C10.4225 49.886875 9.845 50.77375 9.25 51.6875 C1.88190607 59.26026321 -6.85516724 63.00161803 -17.3125 63.5625 C-26.90095495 63.29397851 -34.12505761 59.10676758 -41 52.625 C-48.12627067 44.95651309 -50.41278803 37.33642941 -50.2734375 26.96875 C-49.44629182 17.98831121 -45.29772578 10.34711971 -39 4 C-27.26252453 -5.52903061 -13.56153756 -6.80195868 0 0 Z M-35.8359375 12.33203125 C-41.3717815 20.37589847 -41.88864632 27.41105943 -41 37 C-39.44176807 43.22354079 -34.98345716 48.10975182 -30 52 C-23.45696544 55.89119186 -17.43114254 55.85114408 -10 55 C-3.48932533 53.11991213 1.07868338 49.81161263 4.81640625 44.16796875 C8.23501047 37.90616895 10.37108469 31.13870541 9 24 C6.16372709 15.95869879 2.4878172 10.21379187 -5 6 C-5.58136719 5.63132812 -6.16273438 5.26265625 -6.76171875 4.8828125 C-17.26022066 0.74204211 -28.99002037 3.63625992 -35.8359375 12.33203125 Z " fill="#F7FCFE" transform="translate(270,392)"/>
<path d="M0 0 C2.64 0 5.28 0 8 0 C8 21.12 8 42.24 8 64 C5.69 64 3.38 64 1 64 C0.505 60.04 0.505 60.04 0 56 C-0.721875 56.928125 -1.44375 57.85625 -2.1875 58.8125 C-5.48974616 62.76773268 -8.93272899 64.9865458 -14 66 C-23.82274263 66.72968945 -31.47747316 65.53041513 -39.39453125 59.515625 C-44.6774081 54.52838359 -46.80471197 49.0069333 -47.08569336 41.80293274 C-47.11544435 39.20394533 -47.11240417 36.60692771 -47.09765625 34.0078125 C-47.0962413 33.06187225 -47.09482635 32.11593201 -47.09336853 31.1413269 C-47.08779484 28.13585171 -47.0752472 25.13045247 -47.0625 22.125 C-47.0574816 20.08073025 -47.05291929 18.03645932 -47.04882812 15.9921875 C-47.03783403 10.99476264 -47.02058757 5.99739417 -47 1 C-44.36 1 -41.72 1 -39 1 C-38.99589111 2.25022949 -38.99178223 3.50045898 -38.98754883 4.78857422 C-38.96562967 9.46687971 -38.9112086 14.14435936 -38.84741211 18.82226562 C-38.82434305 20.83943717 -38.80986267 22.85672727 -38.80444336 24.87402344 C-39.37501042 40.41839131 -39.37501042 40.41839131 -33 54 C-27.03358246 58.3473083 -20.07606787 57.70925622 -13 57 C-8.31292097 55.80023574 -5.78803283 53.06955575 -3.3605957 48.99633789 C-0.57497237 43.80104052 -0.26801564 39.30818773 -0.29296875 33.49609375 C-0.27784744 32.5322023 -0.26272614 31.56831085 -0.24714661 30.57521057 C-0.20452835 27.52906425 -0.1954566 24.48391378 -0.1875 21.4375 C-0.1643356 19.35869796 -0.13896626 17.27991925 -0.11132812 15.20117188 C-0.0487313 10.13402754 -0.01619414 5.06749645 0 0 Z " fill="#F9FDFE" transform="translate(346,389)"/>
<path d="M0 0 C0.66 0 1.32 0 2 0 C6.29201073 13.26955982 10.54608644 26.53879017 14.40136719 39.94238281 C15.05896966 42.20269016 15.73502666 44.45697955 16.4140625 46.7109375 C16.64778564 47.49082031 16.88150879 48.27070312 17.12231445 49.07421875 C17.5709898 50.56990904 18.0224956 52.0647542 18.47729492 53.55859375 C19.34897519 56.4808517 20 58.93193436 20 62 C7.79 62 -4.42 62 -17 62 C-16.38230059 57.6761041 -15.84249942 54.00573731 -14.6875 49.90234375 C-14.42074463 48.949646 -14.15398926 47.99694824 -13.87915039 47.01538086 C-13.58903076 45.99968018 -13.29891113 44.98397949 -13 43.9375 C-12.69892334 42.87217041 -12.39784668 41.80684082 -12.08764648 40.70922852 C-8.21339085 27.0940432 -4.10931052 13.5457129 0 0 Z " fill="#45B3EF" transform="translate(191,543)"/>
<path d="M0 0 C2.64 0 5.28 0 8 0 C8 28.38 8 56.76 8 86 C5.36 86 2.72 86 0 86 C0 57.62 0 29.24 0 0 Z " fill="#F6FCFE" transform="translate(200,367)"/>
<path d="M0 0 C6.27 0 12.54 0 19 0 C19 6.27 19 12.54 19 19 C12.73 19 6.46 19 0 19 C0 12.73 0 6.46 0 0 Z " fill="#FCFEFF" transform="translate(769,653)"/>
<path d="M0 0 C1.70209877 0.00333092 1.70209877 0.00333092 3.43858337 0.00672913 C4.71983597 0.00680466 6.00108856 0.00688019 7.32116699 0.00695801 C8.73001646 0.01206542 10.13886554 0.01728143 11.54771423 0.02259827 C12.98118033 0.02446249 14.41464706 0.02588637 15.84811401 0.02688599 C19.62765755 0.03071079 23.40716288 0.04054075 27.18669128 0.05158997 C31.04075097 0.06180489 34.8948168 0.06638378 38.74888611 0.07142639 C46.31596085 0.08216306 53.88300407 0.09923903 61.45005798 0.12025452 C62.12762681 1.67805784 62.79165255 3.24175548 63.45005798 4.80775452 C63.82130798 5.6778717 64.19255798 6.54798889 64.57505798 7.44447327 C65.46876287 10.17745472 65.61455474 12.26726386 65.45005798 15.12025452 C63.44012094 12.10534895 62.72382458 9.90526181 61.82505798 6.43275452 C61.43447205 4.94195374 61.43447205 4.94195374 61.03599548 3.42103577 C60.84263611 2.66177795 60.64927673 1.90252014 60.45005798 1.12025452 C53.06673184 1.23842699 45.68353891 1.36324264 38.30039978 1.49256897 C35.79131077 1.53574826 33.28219559 1.57743453 30.77305603 1.61756897 C27.15619537 1.67568556 23.5394644 1.73925869 19.92271423 1.80384827 C18.8098555 1.82056076 17.69699677 1.83727325 16.55041504 1.85449219 C10.45076677 1.96921921 4.50149544 2.33915487 -1.54994202 3.12025452 C-3.52994202 8.40025452 -5.50994202 13.68025452 -7.54994202 19.12025452 C-8.69595196 14.53621476 -7.7962979 12.14569254 -6.17494202 7.93275452 C-5.94033264 7.29144592 -5.70572327 6.65013733 -5.46400452 5.98939514 C-3.29551365 0.15541546 -3.29551365 0.15541546 0 0 Z " fill="#3CA8EA" transform="translate(162.54994201660156,642.8797454833984)"/>
<path d="M0 0 C0.66 0 1.32 0 2 0 C5.44419134 9.41002278 5.44419134 9.41002278 5 14 C2.69 13.34 0.38 12.68 -2 12 C-1 3.42857143 -1 3.42857143 0 0 Z " fill="#30A2E9" transform="translate(191,543)"/>
<path d="M0 0 C0.33 0 0.66 0 1 0 C1.08159574 4.16138263 0.98248524 7.9472484 0 12 C0.99 12.66 1.98 13.32 3 14 C1.68 14 0.36 14 -1 14 C-1.66 16.64 -2.32 19.28 -3 22 C-3.66 22 -4.32 22 -5 22 C-4.3588567 18.7074017 -3.71129104 15.41609917 -3.0625 12.125 C-2.78889648 10.71927734 -2.78889648 10.71927734 -2.50976562 9.28515625 C-2.33251953 8.38925781 -2.15527344 7.49335937 -1.97265625 6.5703125 C-1.72914429 5.32918701 -1.72914429 5.32918701 -1.48071289 4.06298828 C-1 2 -1 2 0 0 Z " fill="#49B7F3" transform="translate(445,609)"/>
<path d="M0 0 C0.99 0.33 1.98 0.66 3 1 C3.10054687 1.99515625 3.20109375 2.9903125 3.3046875 4.015625 C4.00765917 8.94884666 6.01030448 13.21840261 8.00390625 17.74609375 C10.10177874 22.69466378 10.10177874 22.69466378 9 26 C7.4885202 22.42140185 5.99284249 18.83640839 4.5 15.25 C4.07074219 14.23421875 3.64148438 13.2184375 3.19921875 12.171875 C2.79316406 11.1921875 2.38710937 10.2125 1.96875 9.203125 C1.40317383 7.85202637 1.40317383 7.85202637 0.82617188 6.47363281 C0 4 0 4 0 0 Z " fill="#67CBFC" transform="translate(246,571)"/>
<path d="M0 0 C0.66 0.33 1.32 0.66 2 1 C-4.73010202 6.50179443 -10.2128651 10.23755879 -19 11 C-17.51339419 8.02678839 -15.36876886 7.80540396 -12.3125 6.625 C-7.76973989 4.80031566 -3.9077735 2.93083013 0 0 Z " fill="#39A7EA" transform="translate(715,662)"/>
<path d="M0 0 C2.9375 1.5 2.9375 1.5 5 3 C4.67 3.66 4.34 4.32 4 5 C3.34 4.34 2.68 3.68 2 3 C-0.0719137 2.68110168 -0.0719137 2.68110168 -2.375 2.75 C-3.53128906 2.74226562 -3.53128906 2.74226562 -4.7109375 2.734375 C-7.1992361 3.02311955 -8.84234198 3.75860771 -11 5 C-8.50133296 -0.53276273 -5.94216564 -0.40285869 0 0 Z " fill="#5FC7FB" transform="translate(895,625)"/>
<path d="M0 0 C0 3.3 0 6.6 0 10 C-0.33 10 -0.66 10 -1 10 C-1 8.02 -1 6.04 -1 4 C-2.98 5.32 -4.96 6.64 -7 8 C-5.84316054 5.30070793 -3.38550714 0 0 0 Z " fill="#5AC2F8" transform="translate(426,443)"/>
<path d="M0 0 C0.66 0 1.32 0 2 0 C1.67 0.53625 1.34 1.0725 1 1.625 C-0.23690753 4.56265539 -0.13461189 6.83662059 0 10 C0 10.99 0 11.98 0 13 C-2 11 -2 11 -2.265625 8.90625 C-2.25789062 7.71515625 -2.25789062 7.71515625 -2.25 6.5 C-2.25515625 5.7059375 -2.2603125 4.911875 -2.265625 4.09375 C-2 2 -2 2 0 0 Z " fill="#36A7EA" transform="translate(666,562)"/>
<path d="M0 0 C0.33 0 0.66 0 1 0 C1 3.63 1 7.26 1 11 C1.66 11 2.32 11 3 11 C2.34 12.32 1.68 13.64 1 15 C0.67 15 0.34 15 0 15 C0 10.05 0 5.1 0 0 Z " fill="#3CBFFE" transform="translate(334,531)"/>
</svg>
