<?xml version="1.0" encoding="UTF-8"?>
<svg version="1.1" xmlns="http://www.w3.org/2000/svg" width="2363" height="2363">
<path d="M0 0 C1.04077698 0.18713562 2.08155396 0.37427124 3.15386963 0.56707764 C96.81356481 17.48509003 188.97841051 42.30333998 370 114 C371.02577148 114.4640625 372.05154297 114.928125 373.10839844 115.40625 C407.93770356 131.19290388 442.41785764 147.9224628 475.609375 166.93359375 C479.8051824 169.33386435 484.03516553 171.65924682 488.28930664 173.95410156 C500.46847948 180.53529361 512.24816962 187.74344426 524.04421997 194.97923279 C527.3685237 197.0146532 530.70820711 199.01876089 534.07421875 200.984375 C548.21902679 209.2566081 561.78759529 218.38032352 575.38671875 227.51171875 C576.03987061 227.94967773 576.69302246 228.38763672 577.3659668 228.83886719 C581.88034251 231.88034251 581.88034251 231.88034251 583 233 C583.09797242 234.7387147 583.1247835 236.48145779 583.12467116 238.22293055 C583.12702406 239.36598253 583.12937696 240.5090345 583.13180115 241.68672442 C583.12929228 242.96184006 583.1267834 244.2369557 583.1241985 245.55071121 C583.12506302 246.91132084 583.12636634 248.27193025 583.1280715 249.63253908 C583.13151238 253.41230518 583.12864058 257.19204529 583.12483748 260.97181009 C583.12179263 265.08520952 583.12452677 269.19860563 583.12654402 273.31200513 C583.1292891 280.56154304 583.12827566 287.81107312 583.12488258 295.06061065 C583.11983216 305.89236464 583.12050662 316.72411296 583.12235395 327.5558677 C583.12533438 346.0226882 583.12353671 364.48950554 583.11921513 382.95632565 C583.11480547 401.88622038 583.11262712 420.8161135 583.11307228 439.74600875 C583.11309925 440.94877989 583.11312623 442.15155104 583.11315403 443.39076979 C583.1133016 449.524003 583.11348463 455.65723621 583.11368043 461.79046942 C583.11501554 505.81974045 583.11162849 549.84901006 583.10557556 593.87828064 C583.09740491 653.41197775 583.09547362 712.94567187 583.09460449 772.47937012 C583.0893469 915.67374705 583.0753859 1058.86812355 583.0625 1202.0625 C583.0315625 1681.6865625 583.0315625 1681.6865625 583 2171 C-196.79 2171 -976.58 2171 -1780 2171 C-1780 1569.74 -1780 968.48 -1780 349 C-1775.42435097 347.47478366 -1771.25462442 346.34922816 -1766.55859375 345.4140625 C-1765.49072884 345.20131432 -1765.49072884 345.20131432 -1764.40129089 344.98426819 C-1762.08115204 344.52520496 -1759.75961002 344.07398094 -1757.4375 343.625 C-1756.63955017 343.47004059 -1755.84160034 343.31508118 -1755.01947021 343.15542603 C-1732.52416383 338.80889338 -1709.86856268 335.56887888 -1687 334 C-1685.13807007 333.86972412 -1685.13807007 333.86972412 -1683.23852539 333.73681641 C-1670.10293842 332.880052 -1656.97272119 332.75695105 -1643.8125 332.75 C-1642.65348175 332.74932526 -1641.4944635 332.74865051 -1640.30032349 332.74795532 C-1595.23770811 332.78929044 -1550.91203221 337.90005996 -1507 348 C-1506.02410919 348.22399475 -1506.02410919 348.22399475 -1505.02850342 348.45251465 C-1459.87054327 358.88416657 -1404.71913989 374.19089028 -1366.43261719 400.78320312 C-1364.10923859 402.28963665 -1364.10923859 402.28963665 -1361.89941406 401.3894043 C-1359.95019045 399.96356476 -1358.29161532 398.50266738 -1356.609375 396.76953125 C-1355.98643555 396.13499023 -1355.36349609 395.50044922 -1354.72167969 394.84667969 C-1354.07102539 394.17540039 -1353.42037109 393.50412109 -1352.75 392.8125 C-1348.2837357 388.26934162 -1343.82574642 383.84432524 -1338.953125 379.734375 C-1336.35925425 377.43101777 -1333.93537005 374.96791856 -1331.5 372.5 C-1327.88651308 368.84305085 -1324.20338248 365.34577391 -1320.29296875 362.0078125 C-1317.13162577 359.2396178 -1314.07088009 356.36779342 -1311 353.5 C-1306.07392659 348.90898979 -1301.11722843 344.37827848 -1296 340 C-1294.96605322 339.11208701 -1293.93220867 338.22405495 -1292.8984375 337.3359375 C-1290.50990921 335.28530022 -1288.11895605 333.23753232 -1285.7265625 331.19140625 C-1283.25825626 329.07969066 -1280.79496691 326.9623536 -1278.3359375 324.83984375 C-1272.54696086 319.84783192 -1266.73602429 314.91237702 -1260.734375 310.17578125 C-1258.60469296 308.48116282 -1256.49344798 306.77044328 -1254.390625 305.04296875 C-1247.09371454 299.05372244 -1239.72365013 293.21311653 -1232.13989258 287.59082031 C-1227.04732238 283.80956994 -1222.04904903 279.91960964 -1217.0625 276 C-1209.96164545 270.43758793 -1202.70179905 265.16547784 -1195.30078125 260.01171875 C-1190.71842003 256.81871849 -1186.20408383 253.53504651 -1181.6875 250.25 C-1175.97779053 246.1111681 -1170.23313188 242.06093516 -1164.3359375 238.19140625 C-1161.70567329 236.4635629 -1159.08823901 234.72045285 -1156.4765625 232.96484375 C-1107.82043712 200.28549724 -1057.30348913 170.58830958 -1005.04748535 144.04162598 C-1002.89833667 142.94828038 -1000.75128495 141.85089334 -998.60449219 140.75292969 C-977.67360026 130.0585368 -956.56254714 119.97814969 -935.00216675 110.61592102 C-930.91172327 108.8393754 -926.83580347 107.03550665 -922.7734375 105.1953125 C-892.76993354 91.64764308 -861.93424571 79.70281951 -830.91973877 68.68505859 C-828.90134598 67.96479532 -826.88570623 67.23723318 -824.87060547 66.5078125 C-732.53677418 33.09657863 -636.36436791 9.38387411 0 0 Z " fill="#75D2FE" transform="translate(1780,192)"/>
<path d="M0 0 C5.30921452 1.45743144 10.2222229 3.21367551 15.25 5.4375 C18.69883678 6.92949678 22.22016171 8.08574229 25.79296875 9.2421875 C27.8514432 9.94899112 29.82208441 10.74700083 31.8125 11.625 C34.25487621 12.67857405 36.40936423 13.48187285 39 14 C39 14.66 39 15.32 39 16 C40.670625 16.12375 40.670625 16.12375 42.375 16.25 C47.63944787 16.90805598 52.16111086 18.9114825 57 21 C62.76601297 23.40699607 68.48570482 25.48488177 74.48828125 27.21875 C79.9797683 28.92683306 85.2535362 31.22032866 90.5 33.5625 C94.08960465 35.03680191 97.67191507 36.107921 101.39453125 37.18359375 C104.85024934 38.26641996 108.15129915 39.64936303 111.49609375 41.03125 C113.99400281 41.99767971 116.4871456 42.76759628 119.0625 43.5 C122.34025396 44.43941858 125.35197212 45.55057053 128.4375 47 C132.64638971 48.95572084 136.89006964 50.13045549 141.375 51.2890625 C145.84740163 52.50033794 150.0837464 54.21132703 154.36328125 55.97265625 C159.35637973 58.01493448 164.31666933 59.72854243 169.5 61.21875 C172.06634353 62.02073235 174.5149524 62.97491786 177 64 C180.9397584 65.6172465 184.87255641 66.90484963 188.9609375 68.0859375 C193.0418713 69.31336489 197.08212769 70.65319963 201.125 72 C201.87716797 72.24927246 202.62933594 72.49854492 203.40429688 72.75537109 C207.5388027 74.13686132 211.61975537 75.61337809 215.69580078 77.16064453 C222.04198853 79.47238362 228.49561455 81.49518456 234.9140625 83.59570312 C241.00198984 85.60567465 246.97736128 87.7435407 252.90869141 90.17602539 C255.40003068 91.1576119 257.89770474 91.87413152 260.5 92.5 C264.13456382 93.4392693 267.53628227 94.55313057 271 96 C275.28306767 97.78517717 279.56887791 99.06176185 284.06640625 100.19140625 C287.22119435 101.06096835 290.29775124 102.08543854 293.3972168 103.13256836 C296.28992177 104.09662246 299.19382428 105.01980078 302.1015625 105.9375 C303.16890625 106.27523438 304.23625 106.61296875 305.3359375 106.9609375 C307.53575053 107.65589031 309.73627819 108.3485849 311.9375 109.0390625 C317.43713404 110.78349848 322.72946128 112.65832441 328 115 C330.77888613 115.69140522 330.77888613 115.69140522 333 116 C333 116.66 333 117.32 333 118 C334.485 117.505 334.485 117.505 336 117 C336 117.66 336 118.32 336 119 C337.485 118.505 337.485 118.505 339 118 C341.36522558 118.92203709 343.70401807 119.91698965 346 121 C345.37158034 126.11223056 343.81879921 130.43311884 341.89697266 135.1628418 C341.57485369 135.96944213 341.25273472 136.77604246 340.92085457 137.60708523 C339.84100053 140.30680393 338.75253108 143.00296291 337.6640625 145.69921875 C336.8857327 147.63991883 336.10793466 149.58083226 335.33062744 151.52194214 C333.21236983 156.80728418 331.08661766 162.08958336 328.95955658 167.37138748 C326.71884382 172.93912118 324.48505908 178.50963312 322.25048828 184.07983398 C317.97831298 194.72607981 313.69981369 205.36977228 309.4188633 216.01249218 C304.5161939 228.20133352 299.61920195 240.39245292 294.72253799 252.58370781 C288.64922077 267.70425147 282.57485559 282.82437191 276.49462891 297.94213867 C266.97236396 321.61852154 257.46527289 345.30077257 248 369 C247.08366924 371.29386808 246.1673286 373.58773221 245.25097656 375.8815918 C244.82604919 376.94536545 244.40112183 378.0091391 243.96331787 379.10514832 C242.41184442 382.98903579 240.86014845 386.87283432 239.30834961 390.7565918 C238.53756048 392.68616694 237.76706933 394.61586115 236.99682617 396.5456543 C235.8463318 399.4278885 234.69476171 402.30969079 233.54296875 405.19140625 C233.19832077 406.05560684 232.85367279 406.91980743 232.49858093 407.81019592 C232.18347061 408.59800949 231.86836029 409.38582306 231.54370117 410.19750977 C231.13072029 411.23162743 231.13072029 411.23162743 230.70939636 412.28663635 C230.18812585 413.54563061 229.60939142 414.78121716 229 416 C267.61 416 306.22 416 346 416 C347.485 411.05 347.485 411.05 349 406 C349.63773087 404.12543557 350.29293535 402.25657596 350.97705078 400.3984375 C351.33397003 399.42463135 351.69088928 398.4508252 352.05862427 397.44750977 C352.43373138 396.43358154 352.8088385 395.41965332 353.1953125 394.375 C353.58822479 393.30628662 353.98113708 392.23757324 354.38595581 391.13647461 C355.20984209 388.89727063 356.03514842 386.65858868 356.86181641 384.42041016 C358.13117395 380.98328237 359.39602205 377.54452063 360.66015625 374.10546875 C361.46328136 371.9243833 362.26665772 369.74339034 363.0703125 367.5625 C363.44946808 366.53237793 363.82862366 365.50225586 364.2192688 364.44091797 C364.56988373 363.4923291 364.92049866 362.54374023 365.28173828 361.56640625 C365.59023712 360.73052979 365.89873596 359.89465332 366.21658325 359.03344727 C367 357 367 357 368 355 C416.84 355 465.68 355 516 355 C520.50175956 366.25439891 520.50175956 366.25439891 521.92285156 370.49389648 C522.24288147 371.44445419 522.56291138 372.3950119 522.89263916 373.37437439 C523.22197449 374.36329178 523.55130981 375.35220917 523.890625 376.37109375 C524.24010193 377.41523941 524.58957886 378.45938507 524.949646 379.53517151 C525.68051539 381.72207777 526.40984653 383.90949867 527.13769531 386.09741211 C528.25555502 389.45418091 529.38143938 392.80818905 530.5078125 396.16210938 C531.21923575 398.2941088 531.9301902 400.42626474 532.640625 402.55859375 C532.97805725 403.56168076 533.3154895 404.56476776 533.66314697 405.59825134 C533.97056824 406.52674393 534.2779895 407.45523651 534.59472656 408.41186523 C534.86690002 409.2277562 535.13907349 410.04364716 535.41949463 410.88426208 C536 413 536 413 536 416 C574.94 415.67 613.88 415.34 654 415 C650.390625 405.904375 646.78125 396.80875 643.0625 387.4375 C641.30411275 383.00602722 639.5457255 378.57455444 637.78733826 374.14308167 C632.83899055 361.67245164 627.88947945 349.20228503 622.93777275 336.73298836 C621.26429812 332.51869198 619.59112669 328.30427522 617.91796589 324.08985424 C616.5918679 320.74971207 615.26556346 317.40965222 613.93875122 314.0697937 C608.60610198 300.64620688 603.27579576 287.22218179 598.05358887 273.75512695 C596.28586252 269.21324096 594.46782746 264.69825963 592.5847168 260.20288086 C589.82202885 253.6071473 587.18046774 246.96609092 584.55078125 240.31640625 C584.04714775 239.0451234 583.54341754 237.77387885 583.03959656 236.50267029 C581.72924653 233.19577066 580.42013804 229.88838101 579.11132812 226.58087158 C577.7774185 223.21052795 576.4423932 219.84062633 575.10742188 216.47070312 C573.60625825 212.68118374 572.10528342 208.89159028 570.60505676 205.10169983 C569.9387751 203.41855934 569.9387751 203.41855934 569.2590332 201.70141602 C568.67542778 200.22681664 568.67542778 200.22681664 568.08003235 198.72242737 C567.3632997 196.91576613 566.62297694 195.1182765 565.85881042 193.3311615 C565 191 565 191 565 188 C572.5250099 189.35291625 579.79769342 191.26695824 587.125 193.4375 C588.15753906 193.73720703 589.19007813 194.03691406 590.25390625 194.34570312 C594.72489119 195.658521 599.14246179 197.0045097 603.4921875 198.6796875 C607.12873161 200.04845355 610.16166266 200.60017319 614 201 C614 201.66 614 202.32 614 203 C614.99 202.67 615.98 202.34 617 202 C619.234375 202.48828125 619.234375 202.48828125 621.75 203.3125 C628.03420108 205.33806796 634.37105986 207.11611342 640.75390625 208.8046875 C642.02169922 209.14113281 643.28949219 209.47757813 644.59570312 209.82421875 C646.56732695 210.34671243 648.53905576 210.86880186 650.51098633 211.39013672 C657.65399168 213.27968725 664.78979727 215.19386285 671.90234375 217.1953125 C673.05081787 217.51773926 674.19929199 217.84016602 675.38256836 218.17236328 C678 219 678 219 679 220 C679.09709605 221.61597566 679.12371596 223.23622122 679.12304783 224.85511112 C679.12503888 225.91257103 679.12702993 226.97003094 679.12908131 228.05953509 C679.12616847 229.23557958 679.12325563 230.41162407 679.12025452 231.62330627 C679.12110894 232.86147706 679.12196337 234.09964785 679.12284368 235.37533897 C679.12421194 238.82777739 679.12106421 242.28015983 679.11606562 245.73259151 C679.11176462 249.44971842 679.11320729 253.16684347 679.1139679 256.88397217 C679.11449335 263.32935055 679.11134428 269.77471884 679.10573006 276.22009468 C679.09761801 285.53913349 679.09500014 294.85816741 679.09374207 304.17720937 C679.09155108 319.2951443 679.08488974 334.41307385 679.07543945 349.53100586 C679.06626654 364.22045871 679.05918512 378.9099101 679.05493164 393.59936523 C679.05466892 394.50416217 679.05440619 395.40895911 679.05413551 396.34117413 C679.05283051 400.88007708 679.05156679 405.41898004 679.05032361 409.957883 C679.03994954 447.63859345 679.02151046 485.31929394 679 523 C710.68 523 742.36 523 775 523 C775 478.78 775 434.56 775 389 C783.65248227 395.4893617 783.65248227 395.4893617 787.0625 398.8125 C800.11104357 410.55843509 817.18067462 417.78576187 834 422 C835.15242187 422.28875 836.30484375 422.5775 837.4921875 422.875 C875.4500272 431.99189452 917.06494647 424.94454688 950.34765625 404.75415039 C987.25720564 381.36029521 1007.6501074 345.4735691 1021 305 C1026.78455505 306.26134539 1032.56863892 307.52482178 1038.35229492 308.7902832 C1040.32026542 309.22055865 1042.28836384 309.65024948 1044.2565918 310.0793457 C1047.08415953 310.69589375 1049.91126196 311.31453648 1052.73828125 311.93359375 C1053.61962234 312.12529648 1054.50096344 312.31699921 1055.40901184 312.51451111 C1056.22963608 312.69462234 1057.05026031 312.87473358 1057.89575195 313.06030273 C1058.61745071 313.21796616 1059.33914948 313.37562958 1060.0827179 313.53807068 C1062 314 1062 314 1065 315 C1065 383.64 1065 452.28 1065 523 C1096.68 523 1128.36 523 1161 523 C1161 478.78 1161 434.56 1161 389 C1169.65248227 395.4893617 1169.65248227 395.4893617 1173.0625 398.8125 C1200.21069401 423.25054727 1237.14766574 427.21640774 1272 426 C1285.55663334 425.1130774 1298.26940521 421.60299802 1311 417 C1312.08667969 416.60941406 1313.17335938 416.21882813 1314.29296875 415.81640625 C1333.831568 408.19608886 1352.72454723 395.47358187 1366.125 379.25 C1369 377 1369 377 1370.82487488 376.88792419 C1378.83684912 377.88059487 1386.77496062 379.27659046 1394.72014809 380.69847298 C1397.34707961 381.16843917 1399.97482689 381.63357897 1402.60282898 382.09751892 C1409.12103391 383.24916398 1415.63788586 384.40838475 1422.15460205 385.56842041 C1427.68253899 386.55226121 1433.21105507 387.53271048 1438.74043846 388.50839043 C1441.32515987 388.96590844 1443.90895148 389.4284431 1446.49275208 389.89112854 C1448.07756045 390.17124898 1449.66241228 390.45112369 1451.24731445 390.73071289 C1452.31887283 390.92472183 1452.31887283 390.92472183 1453.41207886 391.12265015 C1456.26447914 391.62131036 1458.96607052 392.00009556 1461.86613464 391.9919281 C1464 392 1464 392 1465.89453125 393.3984375 C1466.52746094 394.05070312 1467.16039062 394.70296875 1467.8125 395.375 C1496.13919735 421.91659868 1536.16459006 427.35006936 1573.27587891 426.1640625 C1586.92028095 425.56297176 1599.56199128 422.2552341 1612.5859375 418.3046875 C1615.70478218 417.36056959 1618.78130483 416.54307202 1622 416 C1621.67 416.99 1621.34 417.98 1621 419 C1621.83138992 419.04803268 1622.66277985 419.09606537 1623.5193634 419.14555359 C1632.56903254 419.72307336 1641.47443542 420.78603539 1650.44921875 422.08203125 C1651.9475443 422.29450138 1653.44594466 422.50644459 1654.94441223 422.71791077 C1658.16361628 423.17275801 1661.38246443 423.63001719 1664.60107422 424.08905029 C1673.49599469 425.3561922 1682.39463275 426.59695864 1691.29296875 427.83984375 C1692.22359509 427.96991066 1693.15422142 428.09997757 1694.11304855 428.2339859 C1797.23025709 442.64003491 1900.58884683 455.02503319 2013.10522461 465.72496796 C2015.95568389 465.99578954 2018.80599389 466.26812565 2021.65625 466.54107666 C2101.1303096 474.151195 2180.74811716 480.03510084 2260.4375 484.875 C2261.25047924 484.92440609 2262.06345848 484.97381218 2262.90107346 485.02471542 C2277.83832327 485.93030079 2292.77680558 486.79781115 2307.72314453 487.54003906 C2308.61842519 487.58474649 2309.51370584 487.62945393 2310.43611622 487.67551613 C2314.77972749 487.89195753 2319.12346763 488.10433767 2323.46763611 488.30929565 C2325.03449997 488.38594657 2326.60135915 488.46269329 2328.16821289 488.53955078 C2328.87411875 488.57138081 2329.5800246 488.60321083 2330.30732155 488.6360054 C2334.31880194 488.83660776 2338.00540429 489.33423405 2342 490 C2348.6 490.33 2355.2 490.66 2362 491 C2362 736.19 2362 981.38 2362 1234 C1582.21 1234 802.42 1234 -1 1234 C-1.020625 1030.575625 -1.04125 827.15125 -1.0625 617.5625 C-1.071604 553.20033447 -1.08070801 488.83816895 -1.09008789 422.52563477 C-1.09460449 344.2635498 -1.09460449 344.2635498 -1.09544373 307.68980408 C-1.09641076 281.15737912 -1.10039244 254.62495676 -1.10612545 228.09253252 C-1.11214682 200.14419898 -1.1149646 172.19586696 -1.11356223 144.24753276 C-1.11336797 140.357582 -1.11320941 136.46763124 -1.11307228 132.57768047 C-1.1130441 131.8152575 -1.11301592 131.05283452 -1.11298688 130.26730782 C-1.11263463 118.26544863 -1.1156046 106.26359274 -1.12001978 94.26173445 C-1.12424349 82.5972457 -1.12487762 70.93276221 -1.12183534 59.26827295 C-1.12031125 53.02211512 -1.12043602 46.77596842 -1.12488258 40.52981174 C-1.12889445 34.85022794 -1.12840379 29.17066403 -1.12413984 23.49108058 C-1.12341873 21.4361925 -1.12441669 19.38130302 -1.12723528 17.32641675 C-1.13079187 14.56099632 -1.12832051 11.79564855 -1.1241985 9.03023058 C-1.12670737 8.21988547 -1.12921625 7.40954036 -1.13180115 6.57463933 C-1.11415509 1.11415509 -1.11415509 1.11415509 0 0 Z " fill="#3BBEFD" transform="translate(1,1129)"/>
<path d="M0 0 C5.86244509 3.90829672 11.47207918 7.80645722 17 12.125 C87.13629597 66.22396252 167.94403371 106.79337215 292 151 C292.65319214 151.2064917 293.30638428 151.4129834 293.97937012 151.62573242 C303.27994024 154.55658681 312.62067848 157.33256487 322 160 C323.87800293 160.53439697 323.87800293 160.53439697 325.79394531 161.07958984 C392.95071149 180.03964481 462.31923938 191.33432445 532 195 C532.96760254 195.05639648 533.93520508 195.11279297 534.93212891 195.17089844 C618.0811756 199.95462232 703.09122346 191.88579989 857.15209961 144.13818359 C858.09190674 143.76258301 859.03171387 143.38698242 860 143 C860.95358398 142.55785156 861.90716797 142.11570312 862.88964844 141.66015625 C867.1577337 140.75427693 869.85913338 142.18178973 873.61328125 144.0390625 C874.35888306 144.38696335 875.10448486 144.7348642 875.87268066 145.0933075 C877.50033671 145.85377606 879.12416092 146.62248715 880.74453735 147.39834595 C885.20340718 149.52824092 889.69592503 151.58472378 894.1875 153.64453125 C895.13841019 154.08180038 896.08932037 154.51906952 897.06904602 154.96958923 C908.19124824 160.05324966 919.4837085 164.71157035 930.8125 169.3125 C932.37587097 169.94750427 932.37587097 169.94750427 933.9708252 170.59533691 C952.51287746 178.10768728 971.16007069 185.27126918 990 192 C990.7752301 192.27761169 991.55046021 192.55522339 992.34918213 192.84124756 C1048.0699323 212.78673538 1104.50788544 229.90360825 1162 244 C1162.79482788 244.19575623 1163.58965576 244.39151245 1164.40856934 244.59320068 C1200.64604865 253.5168828 1237.19124847 261.79627783 1274 268 C1275.27085449 268.21543457 1276.54170898 268.43086914 1277.85107422 268.65283203 C1352.62720092 281.23696778 1428.24062311 289.61170989 1504 293 C1505.34609895 293.06079443 1505.34609895 293.06079443 1506.71939182 293.12281704 C1523.11715044 293.84895162 1539.48174853 294.16263287 1555.89453125 294.16796875 C1558.30547605 294.17120168 1560.71642067 294.17456706 1563.12736511 294.17805481 C1568.15010022 294.1839844 1573.17281829 294.18590142 1578.19555664 294.18530273 C1583.23953884 294.18522199 1588.28342921 294.19209274 1593.32739258 294.20581055 C1625.27714535 294.29126261 1657.0998295 293.83400884 1689 292 C1690.35989059 291.92347609 1691.71978421 291.8470059 1693.0796814 291.77059937 C1700.78740622 291.32901853 1708.48798357 290.81609418 1716.1875 290.25 C1717.32448334 290.16763092 1718.46146667 290.08526184 1719.63290405 290.00039673 C1825.98486904 282.22604253 1931.36073801 264.73116641 2112.81311035 215.69271851 C2115.32168222 214.89810404 2117.83215399 214.10965405 2120.34277344 213.3215332 C2125.33054962 211.75484507 2130.31531065 210.17881123 2135.29882812 208.59863281 C2137.34532577 207.95090007 2139.39252577 207.30538216 2141.44042969 206.66210938 C2153.01160582 203.02598299 2164.42280458 199.2045847 2175.68798828 194.70605469 C2180.10062743 192.94531126 2184.55104913 191.29958165 2189.015625 189.67578125 C2190.13781181 189.26692436 2190.13781181 189.26692436 2191.28266907 188.84980774 C2192.81509094 188.29171201 2194.34760862 187.73387928 2195.88021851 187.17630005 C2225.3416562 176.43742333 2254.25927216 164.52866393 2283 152 C2283.98981873 151.56856689 2283.98981873 151.56856689 2284.99963379 151.12841797 C2302.85353809 143.35585459 2302.85353809 143.35585459 2320.359375 134.83984375 C2326.34067927 131.78114294 2332.43919403 128.95544295 2338.50561523 126.07080078 C2345.24046638 122.86117528 2351.91848742 119.56068259 2358.55078125 116.14453125 C2361 115 2361 115 2363 115 C2363 211.69 2363 308.38 2363 408 C1583.21 408 803.42 408 0 408 C0 273.36 0 138.72 0 0 Z " fill="#05A1E5" transform="translate(0,1955)"/>
<path d="M0 0 C6.87303557 6.08594148 12.89261948 12.59861945 18.41796875 19.94921875 C19.01472412 20.73353271 19.01472412 20.73353271 19.62353516 21.53369141 C41.78102719 50.81477823 54.54269735 87.15135047 55.41796875 123.94921875 C55.44375 124.84914551 55.46953125 125.74907227 55.49609375 126.67626953 C56.8417943 179.35203562 41.50339769 223.94899931 5.890625 262.69921875 C-19.42600466 288.95958015 -55.87920377 304.36526269 -92.23046875 305.25 C-94.80592338 305.26887562 -97.38153016 305.27253272 -99.95703125 305.26171875 C-100.63013336 305.26056061 -101.30323547 305.25940247 -101.99673462 305.25820923 C-112.50787428 305.22256981 -122.36034402 304.46693286 -132.58203125 301.94921875 C-134.17724609 301.60697266 -134.17724609 301.60697266 -135.8046875 301.2578125 C-159.21044054 295.97264246 -176.97729926 283.79347754 -194.58203125 267.94921875 C-194.91203125 311.83921875 -195.24203125 355.72921875 -195.58203125 400.94921875 C-227.26203125 400.94921875 -258.94203125 400.94921875 -291.58203125 400.94921875 C-291.58203125 260.36921875 -291.58203125 119.78921875 -291.58203125 -25.05078125 C-261.88203125 -25.05078125 -232.18203125 -25.05078125 -201.58203125 -25.05078125 C-201.58203125 -13.50078125 -201.58203125 -1.95078125 -201.58203125 9.94921875 C-197.5144179 5.8826657 -197.5144179 5.8826657 -193.5234375 1.75 C-141.96223928 -51.83020688 -54.34669198 -46.86516014 0 0 Z " fill="#FEFEFE" transform="translate(1357.58203125,1251.05078125)"/>
<path d="M0 0 C6.87303557 6.08594148 12.89261948 12.59861945 18.41796875 19.94921875 C19.01472412 20.73353271 19.01472412 20.73353271 19.62353516 21.53369141 C37.96070785 45.76623292 49.25092803 73.87004188 53.41796875 103.94921875 C53.52238281 104.69977539 53.62679688 105.45033203 53.734375 106.22363281 C56.74022358 128.8911555 56.0659246 151.40739773 52.41796875 173.94921875 C52.11052734 175.86541016 52.11052734 175.86541016 51.796875 177.8203125 C47.11123024 202.52908517 36.15403701 226.34312596 20.41796875 245.94921875 C19.98129883 246.49723145 19.54462891 247.04524414 19.09472656 247.60986328 C-5.37239436 278.03963391 -38.49523693 299.11461126 -77.67504883 304.17529297 C-95.90024084 306.14959664 -114.71399258 306.34577085 -132.58203125 301.94921875 C-133.55052002 301.72443848 -133.55052002 301.72443848 -134.53857422 301.49511719 C-158.5863759 295.90039523 -176.3679334 284.13952795 -194.58203125 267.94921875 C-194.91203125 311.83921875 -195.24203125 355.72921875 -195.58203125 400.94921875 C-227.26203125 400.94921875 -258.94203125 400.94921875 -291.58203125 400.94921875 C-291.58203125 260.36921875 -291.58203125 119.78921875 -291.58203125 -25.05078125 C-261.88203125 -25.05078125 -232.18203125 -25.05078125 -201.58203125 -25.05078125 C-201.58203125 -13.50078125 -201.58203125 -1.95078125 -201.58203125 9.94921875 C-197.59714371 5.96775826 -197.59714371 5.96775826 -193.671875 1.93359375 C-141.74479889 -51.62263163 -54.64851594 -47.12543409 0 0 Z " fill="#FEFEFE" transform="translate(971.58203125,1251.05078125)"/>
<path d="M0 0 C28.71 0 57.42 0 87 0 C106.52329338 48.73997019 106.52329338 48.73997019 115.625 71.8125 C121.70198392 87.21695177 127.829137 102.60057763 133.9909668 117.97128296 C138.37863899 128.91755602 142.74716362 139.87099302 147.078125 150.83984375 C147.50122955 151.91104965 147.92433411 152.98225555 148.36026001 154.08592224 C150.39544974 159.23990668 152.42800859 164.39490627 154.45654297 169.55151367 C157.79419635 178.02067528 161.16460832 186.46783167 164.73046875 194.84375 C170.4813573 208.36297555 175.86543173 222.0339915 181.31048584 235.67840576 C182.48365301 238.61675312 183.65875943 241.55432317 184.83390331 244.49188042 C185.9834322 247.3658398 187.132056 250.24016023 188.28038979 253.11459732 C188.82031788 254.46598339 189.36043955 255.81729214 189.90077782 257.16851425 C192.88647187 264.63711707 195.82315928 272.12222983 198.70027161 279.63339233 C201.21501091 286.14716911 203.80794415 292.630132 206.390625 299.1171875 C207.01094772 300.67688836 207.63120033 302.23661711 208.25138855 303.79637146 C209.56790935 307.10704779 210.88484958 310.41755683 212.20211792 313.72793579 C214.26861081 318.9213464 216.33377764 324.11528365 218.39868164 329.30932617 C221.21684491 336.39789682 224.03522208 343.48638233 226.85400391 350.57470703 C227.20089107 351.44701619 227.54777822 352.31932535 227.90517712 353.21806812 C229.91817596 358.27997905 231.93146181 363.34177574 233.94494057 368.40349579 C236.94975213 375.9573703 239.95361181 383.51162149 242.95534706 391.06671906 C244.59951706 395.20477898 246.24518101 399.34224047 247.89197063 403.47925854 C249.13638658 406.60672019 250.37858073 409.7350631 251.62109375 412.86328125 C252.06954147 413.98858749 252.5179892 415.11389374 252.98002625 416.27330017 C253.38163467 417.28566238 253.7832431 418.2980246 254.19702148 419.34106445 C254.54764145 420.2227681 254.89826141 421.10447174 255.25950623 422.01289368 C256 424 256 424 256 425 C216.73 425 177.46 425 137 425 C130.4 405.2 123.8 385.4 117 365 C43.74 364.505 43.74 364.505 -31 364 C-31.99 367.3 -32.98 370.6 -34 374 C-34.63773087 375.87456443 -35.29293535 377.74342404 -35.97705078 379.6015625 C-36.33397003 380.57536865 -36.69088928 381.5491748 -37.05862427 382.55249023 C-37.43373138 383.56641846 -37.8088385 384.58034668 -38.1953125 385.625 C-38.78468094 387.22807007 -38.78468094 387.22807007 -39.38595581 388.86352539 C-40.20984209 391.10272937 -41.03514842 393.34141132 -41.86181641 395.57958984 C-43.13117395 399.01671763 -44.39602205 402.45547937 -45.66015625 405.89453125 C-46.46328136 408.0756167 -47.26665772 410.25660966 -48.0703125 412.4375 C-48.44946808 413.46762207 -48.82862366 414.49774414 -49.2192688 415.55908203 C-49.56988373 416.5076709 -49.92049866 417.45625977 -50.28173828 418.43359375 C-50.59023712 419.26947021 -50.89873596 420.10534668 -51.21658325 420.96655273 C-52 423 -52 423 -53 425 C-91.61 425 -130.22 425 -170 425 C-168.14453383 419.43360149 -166.2815969 413.97389124 -164.12011719 408.53564453 C-163.84579613 407.84014874 -163.57147507 407.14465294 -163.28884125 406.42808151 C-162.37749754 404.12026923 -161.46235613 401.81398637 -160.546875 399.5078125 C-159.88324532 397.83148566 -159.21965179 396.15514451 -158.55609131 394.47879028 C-150.76180322 374.81089987 -142.84903614 355.19037083 -134.94485474 335.56646729 C-122.25956672 304.0709741 -109.60340991 272.56422091 -97.05078125 241.015625 C-96.32202223 239.18417372 -96.32202223 239.18417372 -95.5785408 237.31572342 C-90.87656904 225.49775986 -86.17850589 213.6782502 -81.48631096 201.85640144 C-72.48085325 179.16996297 -63.42619715 156.51537294 -54 134 C-42.93464393 107.56562111 -32.33190066 80.94826946 -21.7064209 54.3347168 C-18.81932125 47.10474754 -15.92953587 39.87585132 -13.04022217 32.64676666 C-8.69146947 21.76531345 -4.34604278 10.88253759 0 0 Z " fill="#FEFEFE" transform="translate(400,1120)"/>
<path d="M0 0 C0.81952148 0.20898926 1.63904297 0.41797852 2.48339844 0.63330078 C29.1811305 7.65763509 53.74852898 23.55122548 68.0390625 47.57421875 C68.68617188 48.70472656 69.33328125 49.83523438 70 51 C70.56460937 51.97582031 71.12921875 52.95164062 71.7109375 53.95703125 C74.70093147 59.50445661 76.89244649 65.1835724 78.75 71.1875 C78.94883789 71.80923096 79.14767578 72.43096191 79.35253906 73.0715332 C81.64516905 81.01020693 82.00748623 88.56363295 83 97 C51.98 97 20.96 97 -11 97 C-11.99 93.04 -12.98 89.08 -14 85 C-17.84270481 79.44942639 -21.37093812 76.23677226 -28.046875 74.453125 C-38.25540794 72.88673635 -51.23782684 71.83520544 -60.25 77.5 C-64.23284292 80.91386536 -66.66204284 84.88082163 -67.23828125 90.19921875 C-67.45992062 97.62997015 -66.12146914 102.36761774 -61.2578125 108.02734375 C-47.7193941 121.33586448 -25.85703174 125.69991686 -8.1875 130.9375 C26.44082842 141.21115704 64.32941496 152.79200775 83.5859375 186.15625 C95.41919543 209.95352009 95.87270795 237.97816497 87.70410156 263.06005859 C83.86499632 273.63756563 78.08983153 283.29699457 71 292 C70.33613281 292.82757812 69.67226562 293.65515625 68.98828125 294.5078125 C46.81428578 320.65755208 12.34958988 333.65976 -21 337 C-26.37917431 337.28094102 -31.73957023 337.34164877 -37.125 337.3125 C-37.84577728 337.31034485 -38.56655457 337.3081897 -39.30917358 337.30596924 C-77.73738409 337.1222927 -111.88464373 325.073287 -139.33203125 297.671875 C-155.47803137 280.61817811 -167 254.70580244 -167 231 C-135.65 231 -104.3 231 -72 231 C-70.68 235.29 -69.36 239.58 -68 244 C-63.49382067 251.61758886 -57.73839767 256.27530153 -49.1796875 258.84765625 C-36.81695137 261.33668713 -24.61164539 260.17296754 -13.75 253.6484375 C-9.3278703 250.60822333 -5.53478286 247.30024392 -4 242 C-2.96089936 234.43930581 -3.66436641 228.21516879 -7.125 221.4140625 C-12.12960212 214.97063728 -18.31497037 210.85561186 -25.7421875 207.69140625 C-26.59320038 207.31899307 -27.44421326 206.9465799 -28.3210144 206.56288147 C-40.35452586 201.41519709 -52.76827851 197.2299643 -65.125 192.9375 C-115.53354727 175.40423726 -115.53354727 175.40423726 -136 158 C-137.5159375 156.8553125 -137.5159375 156.8553125 -139.0625 155.6875 C-152.39558219 143.4891482 -162.1280338 126.75594486 -163.140625 108.45898438 C-163.99594219 82.91921302 -159.66708343 61.12748742 -143 41 C-142.31292969 40.16210938 -141.62585937 39.32421875 -140.91796875 38.4609375 C-107.06904166 -0.93799385 -49.01495272 -12.81853974 0 0 Z " fill="#FEFEFE" transform="translate(1599,1219)"/>
<path d="M0 0 C1.19016724 -0.00700928 2.38033447 -0.01401855 3.60656738 -0.02124023 C6.83831683 -0.03572129 10.06939934 -0.03247836 13.30113745 -0.01972389 C16.7063151 -0.00950034 20.11145244 -0.01901567 23.51663208 -0.02526855 C29.23414953 -0.03252003 34.95145947 -0.02302554 40.66894531 -0.00390625 C47.24638885 0.01783702 53.82333578 0.01081992 60.40076721 -0.01121187 C66.0801688 -0.02946276 71.75942234 -0.03187668 77.43884385 -0.0214572 C80.81669169 -0.01527234 84.1943075 -0.01424575 87.57213974 -0.02760315 C91.34530146 -0.03784708 95.117532 -0.02215572 98.890625 0 C100.53383224 -0.01214539 100.53383224 -0.01214539 102.2102356 -0.02453613 C113.87395022 0.10131755 124.44305295 3.12956665 133.57470703 10.51757812 C134.18830078 10.99582031 134.80189453 11.4740625 135.43408203 11.96679688 C141.83384706 17.58782943 146.90263942 27.12833685 148.57470703 35.51757812 C148.6700931 37.23087696 148.71375302 38.94739728 148.72187805 40.66333008 C148.73261101 42.22321907 148.73261101 42.22321907 148.74356079 43.81462097 C148.74624969 44.95022964 148.7489386 46.08583832 148.75170898 47.25585938 C148.75828018 48.45636429 148.76485138 49.6568692 148.7716217 50.89375305 C148.79135419 54.87253063 148.80302459 58.85126788 148.81298828 62.83007812 C148.81703835 64.20424418 148.82115534 65.57841003 148.82533836 66.95257568 C148.84438589 73.41427617 148.85861413 79.8759653 148.86695033 86.33768845 C148.87670159 93.77188983 148.90296723 101.2057918 148.94345123 108.63988781 C148.97373423 114.40062032 148.98843094 120.16126765 148.99173135 125.92207813 C148.99406927 129.3553835 149.00286267 132.78836889 149.02819252 136.22158813 C149.05265336 140.06267802 149.05160526 143.90299599 149.04467773 147.74414062 C149.06389282 149.42326286 149.06389282 149.42326286 149.08349609 151.13630676 C149.00247522 163.53344046 145.03209426 175.5929588 136.46923828 184.77539062 C126.11507329 194.43452561 116.04300559 196.82192693 102.1887207 196.79223633 C100.95530441 196.79734726 99.72188812 196.80245819 98.45109558 196.807724 C95.08309595 196.8192095 91.71534315 196.82169872 88.3473413 196.8191607 C85.52707601 196.81808692 82.70683312 196.82298489 79.88657266 196.82776612 C73.22718031 196.83884293 66.56784436 196.83930946 59.90844727 196.83325195 C53.05959501 196.82721743 46.21094847 196.83951401 39.3621313 196.86082202 C33.46378027 196.87849195 27.56549439 196.88443079 21.66711789 196.88118428 C18.15239794 196.87937934 14.63782465 196.88192771 11.12312889 196.89589882 C7.19829759 196.91091764 3.27372399 196.90146004 -0.65112305 196.88989258 C-2.37603973 196.90135818 -2.37603973 196.90135818 -4.13580322 196.91305542 C-16.99825397 196.82956687 -26.36372458 193.2991188 -35.69091797 184.34179688 C-45.55061279 173.77001299 -47.72705529 163.27524826 -47.71582031 149.12573242 C-47.72253754 147.90352997 -47.72925476 146.68132751 -47.73617554 145.42208862 C-47.75185605 142.08920886 -47.75852687 138.7565784 -47.75980711 135.42367911 C-47.76123464 133.3356984 -47.76551555 131.24774336 -47.77080154 129.15976906 C-47.78927043 121.85918154 -47.7974761 114.55866675 -47.79589844 107.25805664 C-47.79469784 100.47901913 -47.81579193 93.7003004 -47.84738576 86.92134351 C-47.8736331 81.07900535 -47.88426221 75.23677078 -47.88298762 69.39437419 C-47.88248047 65.91479141 -47.88802547 62.4354923 -47.90934372 58.95596886 C-47.93250691 55.06972448 -47.92315365 51.18390932 -47.91113281 47.29760742 C-47.92237183 46.16218002 -47.93361084 45.02675262 -47.94519043 43.85691833 C-47.84475849 31.02116126 -43.42697285 22.33029582 -35.11279297 12.89257812 C-24.61584111 3.61620206 -13.93209467 -0.10259669 0 0 Z " fill="#F8BF10" transform="translate(1991.42529296875,811.482421875)"/>
<path d="M0 0 C1.62299515 -0.0129007 1.62299515 -0.0129007 3.27877808 -0.02606201 C5.05232162 -0.03245193 5.05232162 -0.03245193 6.86169434 -0.03897095 C8.73560349 -0.05123718 8.73560349 -0.05123718 10.64736938 -0.06375122 C14.78846927 -0.08859496 18.92953263 -0.1052789 23.07067871 -0.11953735 C24.50056463 -0.12490033 25.93045049 -0.13027784 27.3603363 -0.13566971 C33.3138466 -0.15729536 39.26735425 -0.1760271 45.22089386 -0.1872921 C53.72778743 -0.20349836 62.23422191 -0.23659811 70.74094248 -0.29369295 C76.73521614 -0.33253935 82.72936781 -0.35194238 88.72376394 -0.35721266 C92.29687153 -0.36084772 95.86948889 -0.37266853 99.44245911 -0.4053154 C103.43924699 -0.44131059 107.4350634 -0.43698819 111.43200684 -0.42959595 C112.59817535 -0.44600128 113.76434387 -0.46240662 114.96585083 -0.47930908 C126.91428384 -0.38932462 137.02203741 3.87232439 145.66442871 12.15390015 C155.09427963 22.6596401 157.962709 33.47868823 157.9708252 47.3086853 C157.97914871 48.51777557 157.98747223 49.72686584 157.99604797 50.97259521 C158.01595829 54.27467223 158.02677868 57.57649762 158.03187442 60.878613 C158.03553138 62.94801059 158.04177845 65.01738444 158.04887581 67.08677292 C158.07333986 74.32481691 158.08641462 81.5627896 158.08996582 88.8008728 C158.09359395 95.51686405 158.12344472 102.23239634 158.1653704 108.94824755 C158.20022952 114.73794388 158.21551698 120.52748931 158.21621186 126.31728971 C158.21699969 129.76461228 158.22550656 133.2114671 158.25420952 136.65867996 C158.28125621 140.5137679 158.27625677 144.36761144 158.26379395 148.2227478 C158.28604538 149.90343353 158.28604538 149.90343353 158.30874634 151.61807251 C158.18744599 164.88579053 153.13571657 175.43533562 144.01208496 184.8609314 C134.10541637 194.06830574 122.70472287 196.45748058 109.64562988 196.42855835 C108.45122787 196.43366928 107.25682587 196.43878021 106.02622986 196.44404602 C102.76569848 196.45552879 99.50532553 196.45802115 96.24477935 196.45548272 C93.51398558 196.45440867 90.78321494 196.4593076 88.05242616 196.46408814 C81.60398409 196.47516368 75.15560028 196.47563222 68.70715332 196.46957397 C62.07642472 196.46353976 55.44590861 196.47583551 48.81521624 196.49714404 C43.10369975 196.51481719 37.39225054 196.52075231 31.68070775 196.5175063 C28.27776863 196.51570185 24.874981 196.51824475 21.47206688 196.53222084 C17.67168364 196.5446071 13.87178705 196.53777947 10.07141113 196.5262146 C8.95886963 196.53385834 7.84632812 196.54150208 6.70007324 196.54937744 C-6.27168434 196.46247275 -16.84110547 192.36580388 -26.52307129 183.65390015 C-33.47896157 176.35869815 -38.42861505 165.99249804 -38.48947144 155.89425659 C-38.50237213 154.29650391 -38.50237213 154.29650391 -38.51553345 152.66647339 C-38.5197934 151.5028125 -38.52405334 150.33915161 -38.52844238 149.14022827 C-38.53661987 147.91046265 -38.54479736 146.68069702 -38.55322266 145.41366577 C-38.57806496 141.33749717 -38.59475028 137.26136567 -38.60900879 133.18515015 C-38.61437187 131.77755223 -38.61974938 130.36995437 -38.62514114 128.96235657 C-38.64676664 123.1014927 -38.66549824 117.2406315 -38.67676353 111.37973785 C-38.69296891 103.00596716 -38.72606661 94.63266293 -38.78316438 86.25906801 C-38.82201495 80.35821185 -38.8414143 74.45747961 -38.8466841 68.556499 C-38.85031864 65.0392794 -38.86213368 61.5225579 -38.89478683 58.00547791 C-38.93079003 54.07109322 -38.92645837 50.13728134 -38.91906738 46.20272827 C-38.93547272 45.05526123 -38.95187805 43.90779419 -38.96878052 42.72555542 C-38.87377305 30.30235139 -34.10089513 20.13840295 -25.52697754 11.28671265 C-18.31401181 4.52365021 -9.96994413 0.05913989 0 0 Z " fill="#D92F3F" transform="translate(1982.3355712890625,1038.8460998535156)"/>
<path d="M0 0 C1.19440201 -0.00511093 2.38880402 -0.01022186 3.61940002 -0.01548767 C6.8799314 -0.02697044 10.14030435 -0.0294628 13.40085053 -0.02692437 C16.1316443 -0.02585032 18.86241494 -0.03074925 21.59320372 -0.03552979 C28.04164579 -0.04660533 34.4900296 -0.04707387 40.93847656 -0.04101562 C47.56920517 -0.03498141 54.19972128 -0.04727716 60.83041364 -0.06858569 C66.54193013 -0.08625884 72.25337934 -0.09219396 77.96492213 -0.08894795 C81.36786125 -0.0871435 84.77064888 -0.0896864 88.173563 -0.10366249 C91.97394625 -0.11604875 95.77384284 -0.10922112 99.57421875 -0.09765625 C100.68676025 -0.10529999 101.79930176 -0.11294373 102.94555664 -0.12081909 C115.00466692 -0.04002871 126.32652559 3.39378211 135.50073242 11.5012207 C142.99074488 19.32660686 148.07815974 28.61273875 148.12837219 39.57899475 C148.13910515 41.19153641 148.13910515 41.19153641 148.15005493 42.83665466 C148.15274384 44.01123734 148.15543274 45.18582001 148.15820312 46.39599609 C148.16477432 47.63712158 148.17134552 48.87824707 148.17811584 50.15698242 C148.19784925 54.2704289 148.20951758 58.38383637 148.21948242 62.49731445 C148.22353218 63.91731727 148.22764917 65.33731989 148.2318325 66.75732231 C148.25087883 73.43312918 148.26510838 80.10892506 148.27344447 86.78475386 C148.28320091 94.46969295 148.30948074 102.15434278 148.34994537 109.83918005 C148.38020393 115.79182735 148.39492272 121.74439223 148.39822549 127.69711488 C148.40056581 131.24607887 148.40939146 134.79473368 148.43468666 138.34361458 C148.46251251 142.31168767 148.45810656 146.27938715 148.45117188 150.24755859 C148.47038696 151.98817818 148.47038696 151.98817818 148.48999023 153.76396179 C148.4110273 166.21330742 144.30255304 176.01751416 135.98120117 185.2746582 C125.97478746 194.35455213 114.29377446 196.88921446 101.11938477 196.77636719 C99.28279549 196.78447166 99.28279549 196.78447166 97.40910339 196.79273987 C94.08863149 196.80301856 90.76917563 196.7956281 87.44879484 196.77902865 C83.95280905 196.76504458 80.45684972 196.77165303 76.96084595 196.77516174 C71.09547571 196.77785272 65.23031143 196.76448237 59.36499023 196.74121094 C52.60746493 196.71458325 45.85028308 196.71286611 39.09272325 196.7245993 C32.55838005 196.73541839 26.0241597 196.72915936 19.4898262 196.71504402 C16.72372112 196.70932239 13.95770708 196.70933641 11.1916008 196.71410942 C7.32234689 196.71981532 3.45342977 196.70046174 -0.41577148 196.67871094 C-1.54850998 196.68321259 -2.68124847 196.68771423 -3.84831238 196.69235229 C-17.15144784 196.56863175 -26.55834973 192.5259172 -36.26879883 183.5246582 C-40.32577731 179.30604712 -42.83541884 174.67386918 -45.01879883 169.2746582 C-45.36326553 168.48950836 -45.70773224 167.70435852 -46.06263733 166.89541626 C-47.4728306 161.55534698 -47.32208383 156.35157872 -47.32519531 150.8503418 C-47.33351883 149.60077698 -47.34184235 148.35121216 -47.35041809 147.06378174 C-47.37035294 143.64601625 -47.38115339 140.2284941 -47.38624454 136.81069136 C-47.38989766 134.67011564 -47.3961428 132.529563 -47.40324593 130.38899612 C-47.42772197 122.90572337 -47.44078725 115.4225197 -47.44433594 107.93920898 C-47.44796453 100.98976215 -47.47781564 94.04075875 -47.51974052 87.09144723 C-47.55457238 81.10561044 -47.56988663 75.11991962 -47.57058197 69.1339823 C-47.57137075 65.56763483 -47.57992231 62.00173904 -47.60857964 58.43549728 C-47.63990264 54.44846734 -47.63063959 50.46247553 -47.61816406 46.4753418 C-47.63299835 45.31231537 -47.64783264 44.14928894 -47.66311646 42.95101929 C-47.55733904 31.01579226 -43.29137057 20.90765319 -35.01879883 12.2746582 C-24.5584961 2.8855913 -13.77695465 -0.03051209 0 0 Z " fill="#34BD43" transform="translate(1771.018798828125,811.725341796875)"/>
<path d="M0 0 C10.07273116 9.07631941 16.82576691 18.81660101 22.37475586 31.09521484 C22.71506836 31.83771484 23.05538086 32.58021484 23.40600586 33.34521484 C27.36867323 42.85561653 27.71880701 53.43574594 27.68725586 63.59521484 C27.70336914 64.63291016 27.71948242 65.67060547 27.73608398 66.73974609 C27.74941435 88.14831158 18.05492877 107.11404021 3.36303711 122.26708984 C-13.41882148 138.69781689 -33.64857385 143.40771484 -56.28833008 143.40771484 C-77.71066608 143.15440047 -94.9191174 134.67877444 -110.05493164 119.68896484 C-118.85766465 110.32309404 -124.64527929 100.29752467 -128.62524414 88.09521484 C-129.10670898 86.70882813 -129.10670898 86.70882813 -129.59790039 85.29443359 C-135.79762947 63.98466714 -132.08563443 41.0362082 -121.76977539 21.83349609 C-111.73326413 3.92449666 -96.02815059 -9.56748663 -76.34790039 -15.97119141 C-49.39998214 -23.00551559 -21.21023211 -18.48995457 0 0 Z " fill="#27A4ED" transform="translate(903.625244140625,1322.90478515625)"/>
<path d="M0 0 C9.46738217 8.79962011 15.71834987 18.04602027 20.9375 29.75 C21.27652344 30.49121094 21.61554688 31.23242188 21.96484375 31.99609375 C29.61778362 50.30984537 27.75491021 74.75164116 20.6875 92.875 C10.84537653 114.79477351 -4.0523629 129.08050794 -26.140625 138.33984375 C-35.17076996 141.7534993 -43.76697428 142.08719929 -53.375 142.0625 C-54.61701172 142.07861328 -55.85902344 142.09472656 -57.13867188 142.11132812 C-68.25137661 142.11715545 -78.17874136 140.29192172 -88.0625 135.125 C-88.73619629 134.77800049 -89.40989258 134.43100098 -90.10400391 134.07348633 C-106.53496466 125.35561345 -117.66452141 113.07832033 -126.0625 96.75 C-126.48402344 95.95851563 -126.90554688 95.16703125 -127.33984375 94.3515625 C-136.36157716 76.03574146 -135.28006039 51.53646476 -128.99609375 32.5234375 C-127.81742799 29.51258832 -126.50668913 26.64233493 -125.0625 23.75 C-124.58167969 22.77675781 -124.10085938 21.80351563 -123.60546875 20.80078125 C-113.94504253 2.81969594 -97.20183827 -10.99846323 -77.78515625 -17.31640625 C-49.51292843 -24.69642032 -22.10367819 -19.01865562 0 0 Z " fill="#32B0F3" transform="translate(1291.0625,1324.25)"/>
<path d="M0 0 C11.32502585 10.6358762 16.41431523 24.68717093 17.01576424 40.11706543 C17.0479321 42.68014939 17.04958094 45.2414215 17.03930664 47.8046875 C17.03945267 48.7714592 17.03959869 49.7382309 17.03974915 50.73429871 C17.03905683 53.9049205 17.03129652 57.07548231 17.0234375 60.24609375 C17.0215709 62.454264 17.02014814 64.66243466 17.01914978 66.87060547 C17.01534368 72.66393185 17.00552976 78.4572329 16.9944458 84.25054932 C16.98238544 91.21152727 16.97782036 98.17251372 16.97199249 105.13349915 C16.96231692 115.6918816 16.94314702 126.25020854 16.92578125 136.80859375 C2.73578125 136.80859375 -11.45421875 136.80859375 -26.07421875 136.80859375 C-26.12320313 131.04003906 -26.1721875 125.27148438 -26.22265625 119.328125 C-26.25808605 115.65037421 -26.29407081 111.97264529 -26.33203125 108.29492188 C-26.39209055 102.47114369 -26.45021295 96.64739573 -26.49609375 90.82348633 C-26.53325742 86.12252535 -26.57969687 81.42173533 -26.63228226 76.72092247 C-26.65066258 74.9370292 -26.66582928 73.15309953 -26.67756271 71.36915016 C-26.09422307 52.07296783 -26.09422307 52.07296783 -33.07421875 34.80859375 C-40.46066625 28.96098948 -47.90675747 29.07971385 -57.07421875 29.80859375 C-61.94573232 31.13032224 -66.0343804 33.78208227 -69.05595398 37.90338135 C-74.47965927 48.05134177 -73.54818885 60.42996538 -73.5859375 71.57421875 C-73.60281344 73.46280055 -73.62096753 75.35137131 -73.64033508 77.2399292 C-73.68752492 82.1716975 -73.71753388 87.10342105 -73.74377441 92.03533936 C-73.77902082 97.9736398 -73.83594398 103.91176851 -73.88916779 109.84992981 C-73.96731732 118.83612825 -74.01819809 127.82210755 -74.07421875 136.80859375 C-88.26421875 136.80859375 -102.45421875 136.80859375 -117.07421875 136.80859375 C-117.07421875 89.28859375 -117.07421875 41.76859375 -117.07421875 -7.19140625 C-103.54421875 -7.19140625 -90.01421875 -7.19140625 -76.07421875 -7.19140625 C-75.57921875 -0.75640625 -75.57921875 -0.75640625 -75.07421875 5.80859375 C-74.12546875 4.61234375 -73.17671875 3.41609375 -72.19921875 2.18359375 C-65.17384137 -5.83527134 -54.90270617 -11.06881368 -44.26171875 -12.06640625 C-28.45633871 -12.96957082 -12.44401819 -10.57855294 0 0 Z " fill="#FDFEFE" transform="translate(2108.07421875,1414.19140625)"/>
<path d="M0 0 C0.97646484 -0.00322266 1.95292969 -0.00644531 2.95898438 -0.00976562 C18.24139209 0.10268018 31.29143941 5.3768208 42.265625 16.08203125 C42.98234375 16.81808594 43.6990625 17.55414062 44.4375 18.3125 C45.07171875 18.91449219 45.7059375 19.51648438 46.359375 20.13671875 C57.08845994 31.07943591 60.7824595 46.16922325 60.67041016 61.01416016 C60.35315279 75.27189472 56.18780462 88.6597527 46.4375 99.3125 C45.74527344 100.08464844 45.05304688 100.85679687 44.33984375 101.65234375 C35.50634726 111.01553844 23.11973127 118.54600973 9.97070312 119.48950195 C-14.10692168 120.02565204 -14.10692168 120.02565204 -23.5625 115.3125 C-24.96628906 114.65894531 -24.96628906 114.65894531 -26.3984375 113.9921875 C-39.5957317 107.37546192 -49.74890953 96.42926854 -55 82.5625 C-55.54731163 80.8205995 -56.07059654 79.07085103 -56.5625 77.3125 C-56.78550781 76.61253906 -57.00851562 75.91257812 -57.23828125 75.19140625 C-61.28527075 60.62775016 -58.64855031 43.71736822 -51.8125 30.4375 C-42.95547849 15.70524727 -30.89646422 5.79987954 -14.3737793 0.94311523 C-9.58524665 -0.13102978 -4.88635565 -0.08095354 0 0 Z " fill="#55C3F9" transform="translate(923.5625,912.6875)"/>
<path d="M0 0 C13.33154084 10.55168945 23.42353332 23.91542393 25.66015625 41.10546875 C26.56879073 60.92637908 22.95101072 77.62294095 9.71875 92.99609375 C-0.58049748 103.54940237 -14.13606154 110.37229826 -28.9543457 110.625 C-29.96843506 110.61855469 -30.98252441 110.61210938 -32.02734375 110.60546875 C-33.08590576 110.59902344 -34.14446777 110.59257813 -35.23510742 110.5859375 C-48.86616228 110.26886346 -58.9099637 105.98539758 -69.33984375 97.10546875 C-70.13132812 96.43773437 -70.9228125 95.77 -71.73828125 95.08203125 C-82.81127127 84.91604383 -89.70364001 70.47149322 -90.54296875 55.4765625 C-90.7561952 37.58330948 -86.31898204 22.77702393 -74.33984375 9.10546875 C-73.80746094 8.49058594 -73.27507813 7.87570312 -72.7265625 7.2421875 C-54.40804954 -12.4753527 -22.00588242 -15.1999394 0 0 Z " fill="#50C1FA" transform="translate(617.33984375,921.89453125)"/>
<path d="M0 0 C14.85 0 29.7 0 45 0 C50.9467501 18.439055 56.69916305 36.92842669 62.35699463 55.4574585 C63.44904144 59.03255128 64.54297489 62.60706674 65.63671875 66.18164062 C67.7595911 73.12055083 69.88048288 80.06006409 72 87 C74.30197261 83.54704109 75.33143098 80.09406211 76.50610352 76.16381836 C76.74862854 75.36680008 76.99115356 74.5697818 77.24102783 73.74861145 C78.04159976 71.11372999 78.83519614 68.47679949 79.62890625 65.83984375 C80.18367381 64.01031545 80.73893251 62.18093602 81.29466248 60.35169983 C82.75673509 55.53524929 84.21314942 50.71710739 85.66809082 45.89849854 C87.99919417 38.18123248 90.33841993 30.46642663 92.67844963 22.75186348 C93.49630794 20.05242289 94.31151255 17.35219156 95.12635803 14.65184021 C95.6252722 13.00346996 96.12424656 11.35511792 96.62329102 9.70678711 C96.85032211 8.95193024 97.07735321 8.19707336 97.31126404 7.41934204 C98.88652625 2.2269475 98.88652625 2.2269475 100 0 C114.85 0 129.7 0 145 0 C140.4909836 13.78227654 135.79425145 27.45128276 130.765625 41.05151367 C126.17002854 53.48855362 121.67435315 65.96086557 117.1875 78.4375 C116.41301597 80.58960372 115.63852054 82.74170333 114.86401367 84.89379883 C111.15310225 95.20897972 107.45184135 105.52753074 103.765625 115.8515625 C102.79639811 118.56304255 101.82700385 121.27446271 100.85757446 123.98587036 C99.95325541 126.51837763 99.05212332 129.05200383 98.15112305 131.58569336 C97.6100073 133.10014912 97.0687561 134.6145565 96.52734375 136.12890625 C96.2834491 136.81800079 96.03955444 137.50709534 95.78826904 138.21707153 C94.11373002 142.88626998 94.11373002 142.88626998 93 144 C89.97022196 144.08871273 86.96332978 144.1151935 83.93359375 144.09765625 C83.02497086 144.0962413 82.11634796 144.09482635 81.18019104 144.09336853 C78.26592779 144.08775193 75.35174019 144.07519665 72.4375 144.0625 C70.46679798 144.05748714 68.49609476 144.05292386 66.52539062 144.04882812 C61.68356441 144.03777711 56.84179505 144.02050138 52 144 C48.39982817 135.6122897 45.17866057 127.14249274 42.15625 118.53125 C41.70591854 117.25633065 41.255257 115.98152784 40.80429077 114.70683289 C39.85548328 112.02324034 38.90859215 109.33898339 37.96331787 106.65414429 C35.74171613 100.34484237 33.50937497 94.03933687 31.27810287 87.73344994 C30.54167861 85.65192577 29.80562397 83.57027117 29.0696106 81.48860168 C25.37482184 71.04158397 21.64750861 60.60671601 17.875 50.1875 C17.62626129 49.50005707 17.37752258 48.81261414 17.12124634 48.1043396 C14.56674681 41.04723173 11.99902109 33.99496076 9.42773438 26.94395447 C8.56559842 24.57969602 7.70392459 22.21526951 6.84228516 19.85083008 C5.76474914 16.89412259 4.68475328 13.93833118 3.60302734 10.9831543 C3.12461943 9.67238337 2.64626351 8.36159347 2.16796875 7.05078125 C1.74797607 5.90262939 1.3279834 4.75447754 0.89526367 3.5715332 C0 1 0 1 0 0 Z " fill="#FEFEFE" transform="translate(1833,1407)"/>
<path d="M0 0 C6.27 0 12.54 0 19 0 C19 65.67 19 131.34 19 199 C12.73 199 6.46 199 0 199 C-0.33 191.08 -0.66 183.16 -1 175 C-2.32 176.505625 -3.64 178.01125 -5 179.5625 C-18.59035132 194.52242161 -33.85692667 201.58365857 -53.91796875 203.34375 C-76.54554555 203.91599641 -97.1398271 196.02995676 -114 181 C-128.49629917 166.98335779 -136.72787894 147.83595433 -137.35571289 127.7199707 C-137.5488137 106.11956765 -130.16375575 87.15574979 -115.3828125 71.34765625 C-99.65892901 55.85576448 -80.25723011 47.85848167 -58.1875 47.5625 C-39.0849394 47.73455823 -22.23255121 53.55786037 -8.1484375 66.62890625 C-5.51043473 69.54030204 -3.2835549 72.80302313 -1 76 C-0.67 50.92 -0.34 25.84 0 0 Z M-97 79 C-97.84175781 79.63292969 -98.68351563 80.26585937 -99.55078125 80.91796875 C-110.93085492 90.59193887 -116.56568076 105.55046462 -118.23632812 120.05126953 C-119.59211717 137.75804606 -113.98289473 153.94885849 -102.515625 167.390625 C-92.93418513 177.32913716 -79.48521813 184.7794554 -65.5234375 185.3359375 C-49.34703825 185.58570448 -49.34703825 185.58570448 -34 181 C-33.20078125 180.649375 -32.4015625 180.29875 -31.578125 179.9375 C-25.15301185 176.74709899 -20.08019198 171.99580341 -15 167 C-14.34773437 166.360625 -13.69546875 165.72125 -13.0234375 165.0625 C-1.15336061 152.51263897 1.48148278 136.81754484 1.20703125 120.25 C0.6407842 104.60351713 -7.07565847 91.80581341 -18 81 C-18.51691406 80.44957031 -19.03382813 79.89914062 -19.56640625 79.33203125 C-23.47849184 75.52208889 -28.18156183 73.15672352 -33 70.6875 C-33.67683838 70.3373584 -34.35367676 69.9872168 -35.05102539 69.62646484 C-54.84289055 59.88787747 -80.74184482 65.50519463 -97 79 Z " fill="#FDFEFE" transform="translate(983,847)"/>
<path d="M0 0 C8.88269679 7.6805273 16.91264949 15.63298261 23.1875 25.625 C23.744375 26.50414062 24.30125 27.38328125 24.875 28.2890625 C26.1875 30.625 26.1875 30.625 26.1875 32.625 C22.50137336 32.88819835 18.81767002 33.04676303 15.125 33.1875 C13.56749023 33.30061523 13.56749023 33.30061523 11.97851562 33.41601562 C4.34701812 33.63405841 4.34701812 33.63405841 1.04638672 30.76171875 C-0.72671672 28.45567874 -2.27703512 26.09382255 -3.8125 23.625 C-17.01674854 8.63527131 -35.49149374 -0.88962756 -55.51708984 -2.60693359 C-78.52776846 -3.84810853 -99.15961255 1.26661784 -116.8125 16.625 C-117.37582031 17.04652344 -117.93914062 17.46804688 -118.51953125 17.90234375 C-135.35713314 30.87557799 -144.47733005 51.89826417 -147.33984375 72.40234375 C-149.38342857 94.28477447 -143.47044676 115.99208394 -129.57617188 133.15234375 C-115.97726833 149.19027645 -98.17617107 162.06755933 -76.8125 164.625 C-51.58372868 166.11397985 -30.09715623 161.7190342 -10.8125 144.625 C-10.19246094 144.13515625 -9.57242188 143.6453125 -8.93359375 143.140625 C-6.14452955 140.91935686 -4.13102449 139.21578286 -2.4140625 136.03125 C-0.44380493 132.60972954 0.85542492 130.81804941 4.1875 128.625 C11.74390719 127.32783565 19.58357898 128.01691084 27.1875 128.625 C15.7098638 152.66299733 -4.77175558 170.74381258 -29.8125 179.625 C-51.02484134 186.8529089 -79.96077723 187.01576859 -100.8125 178.625 C-101.92214111 178.18293213 -101.92214111 178.18293213 -103.05419922 177.73193359 C-116.91642092 172.03719907 -127.9214678 163.87869125 -138.8125 153.625 C-139.42738281 153.07457031 -140.04226563 152.52414062 -140.67578125 151.95703125 C-153.29970733 140.20372076 -161.72027515 123.14905485 -165.8125 106.625 C-165.98910156 105.94252197 -166.16570312 105.26004395 -166.34765625 104.55688477 C-168.15649931 96.78451224 -168.2113428 88.99996501 -168.1875 81.0625 C-168.18662384 80.3519043 -168.18574768 79.64130859 -168.18484497 78.90917969 C-168.06915787 50.48457938 -157.80844012 27.80152173 -137.8125 7.625 C-136.94753906 6.74714844 -136.08257812 5.86929688 -135.19140625 4.96484375 C-99.33733208 -29.50408045 -38.5308017 -30.5834813 0 0 Z " fill="#FDFEFE" transform="translate(404.8125,865.375)"/>
<path d="M0 0 C0.33 0.99 0.66 1.98 1 3 C2.25941406 3.10699219 3.51882813 3.21398438 4.81640625 3.32421875 C10.35130024 3.94136862 15.57917772 5.33244251 20.9375 6.8125 C27.51326353 8.61439961 34.0981647 10.26614922 40.76171875 11.7109375 C54.15017941 14.62807463 67.43481653 17.99377977 80.7354126 21.28363037 C83.56035234 21.98190745 86.38574749 22.67833063 89.21116257 23.37468147 C96.80226241 25.24558766 104.39183117 27.12260783 111.98034668 29.00396729 C114.65851984 29.66788024 117.33699696 30.33054532 120.01574707 30.99212646 C123.82631033 31.9333084 127.63585638 32.87856503 131.4453125 33.82421875 C132.5692038 34.10135208 133.69309509 34.37848541 134.8510437 34.66401672 C139.82602368 35.90252671 144.78864884 37.17812938 149.72216797 38.57348633 C150.92702347 38.9133532 150.92702347 38.9133532 152.15621948 39.26008606 C154 40 154 40 155 42 C152.42139087 50.77854365 147.71051667 57.96530555 142 65 C141.3090625 65.8559375 140.618125 66.711875 139.90625 67.59375 C127.98368668 81.58980259 110.60541528 92.30135134 92 94 C66.79766904 95.25817426 46.01833187 92.26254572 26.4921875 75.34375 C15.34076634 64.85652007 7.75627648 53.58243009 3 39 C2.67902344 38.07574219 2.35804688 37.15148438 2.02734375 36.19921875 C-1.36842287 24.52725813 -0.26258399 12.02634692 0 0 Z " fill="#5BC7FB" transform="translate(772,1372)"/>
<path d="M0 0 C14.89620936 12.4135078 24.91537454 31.12399809 26.72314453 50.44775391 C28.02100412 71.09552002 23.3747289 90.63182047 9.72265625 106.625 C-3.94154986 121.60999932 -19.84311862 133.48453112 -40.71264648 135.34960938 C-43.9804495 135.4624202 -47.23057321 135.47244637 -50.5 135.4375 C-51.58539062 135.44910156 -52.67078125 135.46070313 -53.7890625 135.47265625 C-74.45355511 135.39867835 -91.20342771 126.58475461 -105.75 112.4375 C-119.4032174 98.61012964 -127.49073254 80.84629853 -127.75 61.25 C-127.55168458 38.81832266 -119.84146753 19.58966455 -104.5 3.0625 C-94.33382678 -6.50835677 -82.97201032 -13.25995534 -69.5 -16.9375 C-68.71496094 -17.16308594 -67.92992187 -17.38867188 -67.12109375 -17.62109375 C-42.70017164 -23.61269055 -19.15652383 -14.84630597 0 0 Z M-93.14453125 17.26953125 C-100.4485084 25.93013433 -104.8601139 35.08534652 -107.5 46.0625 C-107.69207031 46.85527344 -107.88414062 47.64804687 -108.08203125 48.46484375 C-110.672679 64.56559843 -106.88773471 79.23407251 -98.5 93.0625 C-95.74216594 96.67789376 -92.76803649 99.90534332 -89.5 103.0625 C-88.901875 103.64644531 -88.30375 104.23039063 -87.6875 104.83203125 C-77.48140468 114.1639934 -64.52311549 118.83930686 -50.8125 118.6875 C-49.76811768 118.67912109 -48.72373535 118.67074219 -47.64770508 118.66210938 C-31.49136162 118.19442248 -18.65700345 111.58254702 -7.3125 100.0625 C4.82797407 85.69418636 8.72994337 67.47065251 7.5 49.0625 C5.40541573 34.13414943 -2.06457152 23.36021755 -12.5 13.0625 C-13.13164063 12.43214844 -13.76328125 11.80179688 -14.4140625 11.15234375 C-26.12979891 0.29724201 -41.07706667 -1.70491828 -56.390625 -1.28125 C-71.26330988 -0.51630662 -83.03724015 6.64803774 -93.14453125 17.26953125 Z " fill="#FCFEFE" transform="translate(635.5,913.9375)"/>
<path d="M0 0 C5.94 0 11.88 0 18 0 C18.01981934 2.59770264 18.03963867 5.19540527 18.06005859 7.87182617 C18.12725144 16.49722359 18.20488513 25.12250493 18.28752708 33.74776745 C18.33727043 38.97236208 18.38360075 44.19693862 18.421875 49.42163086 C18.4590073 54.47271317 18.50543936 59.52363542 18.55806351 64.57457924 C18.57646015 66.49244667 18.59162116 68.41034822 18.60334396 70.32826805 C18.72160366 89.02356771 18.88055121 108.47268515 32.625 122.6796875 C42.93265215 132.27153047 54.89926747 132.53029365 68.25390625 132.34375 C75.07321287 132.07913665 80.15579554 130.6586453 86 127 C86.75152344 126.53078125 87.50304687 126.0615625 88.27734375 125.578125 C98.74832157 118.32448673 104.44356158 108.03996323 107.3800354 95.79992676 C108.7325104 87.51025031 108.48556609 79.08217401 108.51171875 70.703125 C108.52859109 68.65760234 108.54674472 66.61208988 108.56611633 64.56658936 C108.61334503 59.22053213 108.64332919 53.87451631 108.66955566 48.52832031 C108.69949898 43.05785958 108.74598157 37.58754113 108.79101562 32.1171875 C108.87673974 21.41151695 108.94269015 10.7058604 109 0 C115.27 0 121.54 0 128 0 C128 48.51 128 97.02 128 147 C122.06 147 116.12 147 110 147 C109.67 140.4 109.34 133.8 109 127 C107.02 129.64 105.04 132.28 103 135 C94.68138165 143.95725244 83.08671078 149.14120615 70.9621582 150.28710938 C67.82338953 150.40044206 64.70298671 150.4098298 61.5625 150.375 C60.52029297 150.38660156 59.47808594 150.39820313 58.40429688 150.41015625 C42.61184064 150.35141184 28.70284632 145.35610223 17.25 134.34375 C0.94695102 117.36140731 -0.46319718 97.66552051 -0.29296875 75.29296875 C-0.28736324 73.11436762 -0.28309766 70.93576266 -0.28010559 68.75715637 C-0.26873204 63.06408984 -0.2393304 57.37125832 -0.20599365 51.67828369 C-0.17513011 45.85261207 -0.16156566 40.02690194 -0.14648438 34.20117188 C-0.11445261 22.80066217 -0.06174695 11.40038753 0 0 Z " fill="#FDFEFE" transform="translate(690,899)"/>
<path d="M0 0 C0.66 0 1.32 0 2 0 C4.52217163 8.31147172 7.04354799 16.62318419 9.5639677 24.93518734 C10.7348969 28.79666788 11.9060784 32.65807148 13.07788086 36.51928711 C14.21321082 40.26035797 15.34782017 44.00164673 16.48197365 47.74307442 C16.91020975 49.15534475 17.33868581 50.56754234 17.76743126 51.97965813 C20.26960883 60.22149593 22.73490558 68.47302274 25.15829277 76.73838043 C27.213031 83.74094891 29.31616376 90.72862514 31.42578125 97.71484375 C32.02542352 99.70499057 32.62468001 101.69525331 33.22393322 103.68551731 C34.67563046 108.50693374 36.12814007 113.32810106 37.58422852 118.14819336 C38.61032615 121.54517871 39.63376851 124.94295387 40.65541649 128.34127998 C41.22962978 130.24860673 41.80672575 132.15506486 42.38386536 134.06150818 C42.72810043 135.20773148 43.07233551 136.35395477 43.42700195 137.53491211 C43.731689 138.54508896 44.03637604 139.55526581 44.35029602 140.59605408 C45 143 45 143 45 145 C15.96 145 -13.08 145 -43 145 C-41.87500459 136.00003676 -41.87500459 136.00003676 -40.52880859 131.59155273 C-40.23114594 130.60529404 -39.93348328 129.61903534 -39.62680054 128.60289001 C-39.30394073 127.55702225 -38.98108093 126.51115448 -38.6484375 125.43359375 C-38.31131744 124.32307144 -37.97419739 123.21254913 -37.62686157 122.06837463 C-36.54901076 118.52285682 -35.46218739 114.98016465 -34.375 111.4375 C-33.66736997 109.11541676 -32.96033361 106.79315252 -32.25390625 104.47070312 C-30.1759646 97.64508262 -28.08834284 90.82244382 -26 84 C-22.29857994 71.90097217 -18.63114692 59.79236049 -15.01231766 47.66835594 C-14.41750192 45.67558534 -13.82236462 43.68291104 -13.22714233 41.69026184 C-12.82980431 40.35991693 -12.43247563 39.02956923 -12.03515625 37.69921875 C-11.83776667 37.03830577 -11.64037708 36.37739279 -11.437006 35.69645214 C-10.41698865 32.28032843 -9.39818621 28.86384868 -8.38134766 25.44677734 C-7.37751689 22.07376111 -6.37060876 18.70167749 -5.36158371 15.33021164 C-4.79818008 13.44457778 -4.23812772 11.55794365 -3.6781311 9.67129517 C-3.34042694 8.54436249 -3.00272278 7.41742981 -2.65478516 6.25634766 C-2.21013412 4.76489731 -2.21013412 4.76489731 -1.75650024 3.24331665 C-1 1 -1 1 0 0 Z " fill="#43B2EF" transform="translate(443,1252)"/>
<path d="M0 0 C6.27 0 12.54 0 19 0 C19 65.67 19 131.34 19 199 C12.73 199 6.46 199 0 199 C0 133.33 0 67.66 0 0 Z " fill="#FCFEFE" transform="translate(460,847)"/>
<path d="M0 0 C14.85 0 29.7 0 45 0 C45 14.52 45 29.04 45 44 C30.15 44 15.3 44 0 44 C0 29.48 0 14.96 0 0 Z " fill="#FDFEFE" transform="translate(1773,1507)"/>
<path d="M0 0 C3.47612368 1.39044947 5.75390506 2.34166207 8.6875 4.36328125 C9.37457031 4.83096924 10.06164063 5.29865723 10.76953125 5.78051758 C11.50558594 6.28607178 12.24164063 6.79162598 13 7.3125 C31.46357556 19.78334589 50.65461037 30.9714489 70 42 C70 42.33 70 42.66 70 43 C46.9 43 23.8 43 0 43 C0 28.81 0 14.62 0 0 Z " fill="#25B7FE" transform="translate(0,2320)"/>
<path d="M0 0 C0 13.86 0 27.72 0 42 C-21.12 42 -42.24 42 -64 42 C-58.38089788 37.5047183 -58.38089788 37.5047183 -55.54882812 35.7019043 C-54.58910095 35.08675713 -54.58910095 35.08675713 -53.60998535 34.45918274 C-52.58101135 33.80456306 -52.58101135 33.80456306 -51.53125 33.13671875 C-44.79076274 28.81210869 -38.0863609 24.43683673 -31.40625 20.01953125 C-30.51301025 19.42953339 -29.61977051 18.83953552 -28.69946289 18.23165894 C-25.01813724 15.79985031 -21.33751849 13.36698358 -17.65869141 10.93139648 C-14.93004285 9.1254167 -12.19955312 7.32225088 -9.46875 5.51953125 C-8.21124939 4.68540459 -8.21124939 4.68540459 -6.92834473 3.83442688 C-6.16244019 3.32937119 -5.39653564 2.82431549 -4.60742188 2.30395508 C-3.93255737 1.85748123 -3.25769287 1.41100739 -2.56237793 0.95100403 C-1 0 -1 0 0 0 Z " fill="#26B7FE" transform="translate(2363,2321)"/>
<path d="M0 0 C0.66 0 1.32 0 2 0 C3.14635895 3.76987458 4.28546192 7.54185821 5.41796875 11.31591797 C5.99358692 13.22868943 6.57488734 15.13974791 7.15625 17.05078125 C7.5171875 18.25605469 7.878125 19.46132812 8.25 20.703125 C8.58515625 21.81333008 8.9203125 22.92353516 9.265625 24.06738281 C10 27 10 27 10 31 C-3.42857143 29.57142857 -3.42857143 29.57142857 -7 26 C-6.5264882 20.10083214 -5.22293164 14.70879313 -3.5 9.0625 C-3.27441406 8.29615234 -3.04882812 7.52980469 -2.81640625 6.74023438 C-1.13972622 1.13972622 -1.13972622 1.13972622 0 0 Z " fill="#279EE8" transform="translate(443,1252)"/>
<path d="M0 0 C2.97 1.65 5.94 3.3 9 5 C9 5.33 9 5.66 9 6 C6.03 6 3.06 6 0 6 C0 4.02 0 2.04 0 0 Z " fill="#96C0D5" transform="translate(0,2357)"/>
</svg>
