<?xml version="1.0" encoding="UTF-8"?>
<svg version="1.1" xmlns="http://www.w3.org/2000/svg" width="2363" height="2363">
<path d="M0 0 C0.9461618 0.00060425 1.89232361 0.0012085 2.86715698 0.00183105 C83.27356795 0.13966149 163.19896241 15.13660847 278.13720703 61.92773438 C280.66651934 63.11875933 283.20422396 64.28919189 285.74609375 65.453125 C312.78804631 77.91146956 339.68910522 92.95367425 364.12890625 110.01611328 C365.95146157 111.28418469 367.78693869 112.53186383 369.625 113.77734375 C384.74964433 124.05117782 399.57669877 134.70904323 413.8125 146.1875 C414.75351563 146.94546875 415.69453125 147.7034375 416.6640625 148.484375 C426.40472192 156.40041522 436.0259273 164.46294178 445.30078125 172.921875 C447.39753793 174.81319518 449.51437895 176.67401854 451.64453125 178.52734375 C461.91695372 187.5012018 471.71583037 196.9988207 481.375 206.625 C482.11218262 207.35759033 482.84936523 208.09018066 483.60888672 208.8449707 C487.60781418 212.85527686 491.42490052 216.96209407 495.12182617 221.25170898 C497.88763638 224.41851175 500.79571362 227.44870877 503.6875 230.5 C508.54603164 235.66679621 513.19317933 240.9236638 517.62109375 246.46875 C519.59998278 248.92384227 521.63122921 251.32411451 523.68847656 253.71362305 C530.17432848 261.26085904 536.22161732 269.11121515 542.20703125 277.05859375 C543.73574541 279.0857208 545.27293975 281.10610437 546.8125 283.125 C558.86413653 298.98452168 570.18725483 315.34062839 580.8125 332.1875 C581.31604004 332.9820459 581.81958008 333.7765918 582.33837891 334.59521484 C628.8125 408.08751153 628.8125 408.08751153 628.8125 421.1875 C629.9778125 421.17178955 631.143125 421.1560791 632.34375 421.13989258 C690.01851721 420.43405902 744.93589699 427.87445615 799.8125 446.1875 C800.88838379 446.54569824 801.96426758 446.90389648 803.07275391 447.27294922 C860.54381761 466.64272775 914.48033872 497.89883834 959.8125 538.1875 C960.65296875 538.92871094 961.4934375 539.66992188 962.359375 540.43359375 C964.86376571 542.66381097 967.34046601 544.92146884 969.8125 547.1875 C970.62557617 547.92492432 970.62557617 547.92492432 971.45507812 548.67724609 C1044.9135251 615.38251532 1092.7003011 708.35311776 1110.671875 843.64794922 C1113.46860558 914.04204645 1099.52572128 983.78249376 1068.8125 1047.1875 C1068.40177246 1048.04988281 1067.99104492 1048.91226562 1067.56787109 1049.80078125 C1059.04204247 1067.68338917 1049.16799524 1084.94401903 1037.8125 1101.1875 C1037.37615234 1101.81930176 1036.93980469 1102.45110352 1036.49023438 1103.10205078 C1027.82303815 1115.6483744 1018.70803699 1127.70911201 1008.8125 1139.3125 C1008.37486328 1139.82578857 1007.93722656 1140.33907715 1007.48632812 1140.86791992 C998.87096966 1150.85067298 989.8007051 1160.38596693 980.47851562 1169.70678711 C978.80828905 1171.3792165 977.14627621 1173.05953669 975.484375 1174.74023438 C969.64495562 1180.60976024 963.69959713 1186.11319145 957.21142578 1191.27661133 C955.19403966 1192.88358071 953.23876797 1194.52494959 951.30859375 1196.234375 C931.7618064 1213.54178518 909.43735631 1228.22059269 886.8125 1241.1875 C886.14250977 1241.57325195 885.47251953 1241.95900391 884.78222656 1242.35644531 C863.19744932 1254.72614476 840.93026037 1265.05327945 817.8125 1274.1875 C816.8647168 1274.56503418 815.91693359 1274.94256836 814.94042969 1275.33154297 C760.44735189 1296.82390359 700.46190238 1306.45882467 642.0625 1306.375 C641.26946472 1306.37439575 640.47642944 1306.3737915 639.65936279 1306.37316895 C607.20268857 1306.3068896 575.00714249 1303.15703272 543.18676758 1296.67456055 C542.14157959 1296.46613525 541.0963916 1296.25770996 540.01953125 1296.04296875 C539.1066333 1295.85371826 538.19373535 1295.66446777 537.25317383 1295.46948242 C534.70785511 1295.17540989 533.18754267 1295.25100967 530.8125 1296.1875 C528.78732474 1298.26836025 526.95582228 1300.32245575 525.125 1302.5625 C524.59173096 1303.19881348 524.05846191 1303.83512695 523.5090332 1304.49072266 C520.45798484 1308.14318619 517.47709632 1311.84961942 514.5 1315.5625 C510.08104701 1321.01173711 505.30928377 1326.09637297 500.47924805 1331.17919922 C497.13428418 1334.69931788 493.85120254 1338.25754715 490.62890625 1341.890625 C485.57175388 1347.53154373 480.25759424 1352.89362717 474.8918457 1358.23852539 C473.24508596 1359.87989796 471.60377905 1361.52658819 469.96289062 1363.17382812 C464.96225918 1368.17761508 459.93229172 1373.09846237 454.54956055 1377.69555664 C451.78818073 1380.06727724 449.15445788 1382.57268889 446.5 1385.0625 C441.67667577 1389.54939457 436.73094022 1393.81039013 431.58984375 1397.93359375 C429.16439955 1399.90192188 426.79430052 1401.92095358 424.43408203 1403.96655273 C416.01086013 1411.23827562 407.1061992 1417.84376229 398.15771484 1424.45068359 C396.14449213 1425.94163367 394.14184632 1427.44489847 392.14453125 1428.95703125 C366.55961007 1448.21181407 338.99916102 1465.0545944 310.8125 1480.1875 C309.55083008 1480.8686084 309.55083008 1480.8686084 308.26367188 1481.56347656 C230.69514377 1523.28124131 145.62017794 1548.14105841 1.5625 1558.375 C0.31861511 1558.37439575 -0.92526978 1558.3737915 -2.20684814 1558.37316895 C-20.62101066 1558.34888796 -38.85665461 1558.07047309 -57.1875 1556.1875 C-58.49025879 1556.05859375 -59.79301758 1555.9296875 -61.13525391 1555.796875 C-92.14008888 1552.68641768 -122.91175432 1547.58647197 -153.1875 1540.1875 C-154.33895508 1539.90712891 -155.49041016 1539.62675781 -156.67675781 1539.33789062 C-212.97554321 1525.42823707 -267.64591801 1503.56076236 -318.1875 1475.1875 C-319.53787354 1474.43484863 -319.53787354 1474.43484863 -320.91552734 1473.66699219 C-332.97246774 1466.93864397 -344.69428283 1459.83960265 -356.1875 1452.1875 C-357.41146484 1452.87972656 -357.41146484 1452.87972656 -358.66015625 1453.5859375 C-391.60283428 1471.86890956 -427.78458141 1482.99788113 -465.1875 1487.1875 C-465.94764404 1487.2817627 -466.70778809 1487.37602539 -467.4909668 1487.47314453 C-477.32921979 1488.55350666 -487.24004322 1488.43137008 -497.125 1488.4375 C-498.10281433 1488.43817474 -499.08062866 1488.43884949 -500.08807373 1488.43954468 C-551.03129648 1488.38386504 -600.33714326 1476.45480186 -646.64501953 1455.34570312 C-648.95378948 1454.29396464 -651.27026967 1453.26198727 -653.58984375 1452.234375 C-693.66744604 1434.21671046 -729.90216901 1407.75406628 -762.1875 1378.1875 C-762.95344482 1377.48923096 -762.95344482 1377.48923096 -763.73486328 1376.77685547 C-772.64450128 1368.65048235 -781.46940632 1360.50110136 -789.32421875 1351.328125 C-791.47636777 1348.85563514 -793.70730719 1346.46478643 -795.9375 1344.0625 C-801.24166426 1338.24399253 -806.08024274 1332.12255861 -810.87451172 1325.88134766 C-812.05526257 1324.35809563 -813.26238722 1322.85537481 -814.47265625 1321.35546875 C-840.0130148 1289.33145142 -860.43324995 1252.07288688 -875.75 1214.1875 C-876.09708008 1213.33196533 -876.44416016 1212.47643066 -876.80175781 1211.5949707 C-877.1159668 1210.80050537 -877.43017578 1210.00604004 -877.75390625 1209.1875 C-878.03177979 1208.48625 -878.30965332 1207.785 -878.59594727 1207.0625 C-879.1875 1205.1875 -879.1875 1205.1875 -879.1875 1202.1875 C-879.85467041 1202.45900879 -880.52184082 1202.73051758 -881.20922852 1203.01025391 C-903.13379317 1211.86400872 -924.66195883 1218.46194688 -948.1875 1221.1875 C-949.30769531 1221.31898437 -950.42789062 1221.45046875 -951.58203125 1221.5859375 C-1011.45174817 1227.27317633 -1069.62142427 1206.24173751 -1116.1875 1169.1875 C-1119.99274447 1166.00107974 -1123.59018522 1162.60494904 -1127.1875 1159.1875 C-1128.49408357 1158.055634 -1129.80627662 1156.93019848 -1131.125 1155.8125 C-1139.47799609 1148.52074522 -1147.10897433 1140.6194957 -1153.99609375 1131.93359375 C-1156.22291838 1129.14311654 -1158.54335502 1126.45319166 -1160.875 1123.75 C-1214.96593527 1058.62351071 -1238.76898383 971.57098221 -1241.1875 888.1875 C-1241.21086426 887.4342041 -1241.23422852 886.6809082 -1241.25830078 885.90478516 C-1243.6581542 796.42453608 -1216.14115367 698.82934151 -1157.1875 630.1875 C-1156.33698615 629.15492512 -1155.48811936 628.12099209 -1154.640625 627.0859375 C-1142.9075231 612.89972018 -1129.87056661 599.33328238 -1115.1875 588.1875 C-1113.72570313 587.01767578 -1113.72570313 587.01767578 -1112.234375 585.82421875 C-1070.78953149 552.78753511 -1020.16464595 534.75628035 -967.1875 536.1875 C-967.08518066 535.36467529 -966.98286133 534.54185059 -966.87744141 533.6940918 C-965.63436655 524.31863522 -963.76351212 515.1896797 -961.5625 506 C-961.38731842 505.26383453 -961.21213684 504.52766907 -961.03164673 503.76919556 C-943.28830412 429.47887376 -907.68770689 355.26099856 -845.1875 308.1875 C-844.00323773 307.26387737 -842.81969741 306.33932862 -841.63671875 305.4140625 C-792.21403697 267.13546664 -731.58638954 245.9606155 -669.1875 244.1875 C-667.89972656 244.14625 -666.61195313 244.105 -665.28515625 244.0625 C-626.97067503 243.45971563 -575.08672636 247.66395805 -541.43359375 268.453125 C-538.49861044 270.40694982 -538.49861044 270.40694982 -536.16040039 269.98999023 C-533.81724718 269.03689723 -532.91974843 268.07111744 -531.375 266.08203125 C-530.86291992 265.43508301 -530.35083984 264.78813477 -529.82324219 264.12158203 C-529.0135498 263.07139893 -529.0135498 263.07139893 -528.1875 262 C-527.0276391 260.53389108 -525.86614651 259.06907172 -524.703125 257.60546875 C-524.11724609 256.86474121 -523.53136719 256.12401367 -522.92773438 255.36083984 C-520.3321103 252.11922291 -517.64768932 248.9585295 -514.9375 245.8125 C-514.44145264 245.23636963 -513.94540527 244.66023926 -513.43432617 244.06665039 C-509.78833728 239.85004819 -506.08723338 235.68546588 -502.33984375 231.55859375 C-500.84511439 229.91194997 -499.35870285 228.25773264 -497.87890625 226.59765625 C-493.98373734 222.22954946 -490.0313925 217.98619538 -485.85546875 213.88671875 C-484.11223144 212.11082126 -482.49341964 210.26504251 -480.875 208.375 C-474.82449297 201.37486182 -468.21077475 194.97400255 -461.18359375 188.96484375 C-458.92617374 186.95481223 -456.81014287 184.83917047 -454.6875 182.6875 C-450.67999289 178.63916939 -446.52085937 174.8810345 -442.1875 171.1875 C-441.19234375 170.32640625 -440.1971875 169.4653125 -439.171875 168.578125 C-423.63479389 155.14703514 -407.73224008 142.35981922 -391.1875 130.1875 C-390.4229248 129.62144043 -389.65834961 129.05538086 -388.87060547 128.47216797 C-377.27515744 119.89702331 -365.36557014 111.90960961 -353.1875 104.1875 C-352.36443359 103.66188477 -351.54136719 103.13626953 -350.69335938 102.59472656 C-308.53890589 75.73159444 -263.35311382 53.71219023 -216.1875 37.1875 C-215.0128418 36.7740332 -213.83818359 36.36056641 -212.62792969 35.93457031 C-144.2945282 12.05550629 -72.39005465 -0.08693858 0 0 Z " fill="#FEFEFE" transform="translate(1246.1875,401.8125)"/>
<path d="M0 0 C2.48171225 2.2076351 4.91570743 4.45553167 7.33203125 6.734375 C7.9353125 7.28480469 8.53859375 7.83523438 9.16015625 8.40234375 C23.72221351 22.18186055 34.5264116 40.87893519 40.70117188 59.83544922 C41.31131631 61.67202175 41.98477501 63.48718398 42.66015625 65.30078125 C50.11518676 86.47576248 51.33549264 109.48271415 50.33203125 131.734375 C50.29867676 132.55550781 50.26532227 133.37664062 50.23095703 134.22265625 C49.27988396 153.39106466 42.97375702 172.68410549 34.33203125 189.734375 C34.03216309 190.32863281 33.73229492 190.92289063 33.42333984 191.53515625 C22.69003607 212.3774045 5.50074568 231.73619817 -14.66796875 243.734375 C-15.78945312 244.41628906 -16.9109375 245.09820313 -18.06640625 245.80078125 C-25.14639783 249.92972263 -32.48135125 252.95975786 -40.23046875 255.609375 C-41.05611328 255.89570801 -41.88175781 256.18204102 -42.73242188 256.47705078 C-55.39260748 260.58592835 -68.29537826 261.1186585 -81.48046875 261.046875 C-82.22975647 261.04405518 -82.97904419 261.04123535 -83.7510376 261.03833008 C-115.52727572 260.85866446 -138.07719546 251.35925051 -161.66796875 229.734375 C-161.99796875 267.024375 -162.32796875 304.314375 -162.66796875 342.734375 C-176.01234375 342.755 -189.35671875 342.775625 -203.10546875 342.796875 C-207.32513428 342.805979 -211.5447998 342.81508301 -215.89233398 342.82446289 C-221.02941895 342.82897949 -221.02941895 342.82897949 -223.43128967 342.82981873 C-225.11541508 342.83135829 -226.79953935 342.83488347 -228.48365784 342.83995056 C-231.02875699 342.84722792 -233.57378855 342.84828242 -236.11889648 342.84790039 C-237.25175536 342.85329755 -237.25175536 342.85329755 -238.40750027 342.85880375 C-243.55394241 342.84840134 -243.55394241 342.84840134 -244.66796875 341.734375 C-244.7656439 339.82132731 -244.79168193 337.90461322 -244.79101658 335.98907375 C-244.79300763 334.7330603 -244.79499868 333.47704684 -244.79705006 332.18297237 C-244.79419646 330.77102416 -244.79125086 329.35907614 -244.78822327 327.9471283 C-244.78865884 326.46133692 -244.78953348 324.97554562 -244.79081243 323.48975474 C-244.79306017 319.3874378 -244.78903232 315.28514672 -244.78403437 311.18283308 C-244.77973403 306.76631313 -244.781176 302.34979476 -244.78193665 297.93327332 C-244.78246215 290.27488291 -244.77931263 282.61650099 -244.77369881 274.95811272 C-244.76558733 263.88523587 -244.76296895 252.81236315 -244.76171082 241.73948366 C-244.75951974 223.77643404 -244.75285815 205.81338895 -244.7434082 187.8503418 C-244.73423552 170.39624047 -244.72715398 152.94214036 -244.72290039 135.48803711 C-244.72263767 134.41298142 -244.72237494 133.33792574 -244.72210426 132.23029261 C-244.72079926 126.8372976 -244.71953555 121.44430258 -244.71829236 116.05130756 C-244.70791801 71.27899268 -244.68947879 26.50668618 -244.66796875 -18.265625 C-219.58796875 -18.265625 -194.50796875 -18.265625 -168.66796875 -18.265625 C-168.66796875 -8.695625 -168.66796875 0.874375 -168.66796875 10.734375 C-167.67796875 10.734375 -166.68796875 10.734375 -165.66796875 10.734375 C-165.45140625 10.19425781 -165.23484375 9.65414063 -165.01171875 9.09765625 C-163.19778357 5.90745049 -160.75651809 3.48258614 -158.16796875 0.921875 C-157.36166016 0.12293823 -157.36166016 0.12293823 -156.5390625 -0.69213867 C-151.94021824 -5.15848077 -147.1163322 -8.87609014 -141.66796875 -12.265625 C-140.75660156 -12.85988281 -139.84523438 -13.45414063 -138.90625 -14.06640625 C-131.14763454 -18.90388745 -123.39084897 -21.6978091 -114.66796875 -24.265625 C-113.48332031 -24.61753906 -112.29867188 -24.96945312 -111.078125 -25.33203125 C-73.2118616 -35.6986257 -29.67367834 -25.19873124 0 0 Z " fill="#026CD6" transform="translate(1323.66796875,1297.265625)"/>
<path d="M0 0 C23.02668661 19.31979846 38.63131373 46.36289382 45.6875 75.4375 C45.99143677 76.68793091 45.99143677 76.68793091 46.30151367 77.96362305 C49.31801305 91.01750208 50.37686789 103.78059533 50.3125 117.125 C50.31100952 117.89146851 50.30951904 118.65793701 50.3079834 119.44763184 C50.26590918 131.50786183 49.64354019 143.19293951 47 155 C46.85546387 155.66789551 46.71092773 156.33579102 46.56201172 157.02392578 C38.79981682 191.88073676 17.01407573 223.59240216 -13 243 C-13.86753906 243.57492187 -14.73507812 244.14984375 -15.62890625 244.7421875 C-45.44121016 263.40079217 -81.46709908 265.17593466 -115 258 C-129.4181217 254.4543543 -142.92586995 246.76295305 -154 237 C-156.64 234.69 -159.28 232.38 -162 230 C-162.33 267.29 -162.66 304.58 -163 343 C-189.73 343 -216.46 343 -244 343 C-244 223.87 -244 104.74 -244 -18 C-218.92 -18 -193.84 -18 -168 -18 C-168 -8.43 -168 1.14 -168 11 C-163.56924575 7.45600066 -163.56924575 7.45600066 -160.0625 3.4375 C-120.71941412 -42.19368168 -43.2171681 -36.02446593 0 0 Z " fill="#016BD6" transform="translate(996,1297)"/>
<path d="M0 0 C1.29461655 0.00222061 2.58923309 0.00444122 3.92308044 0.00672913 C4.99131546 0.00651009 4.99131546 0.00651009 6.08113098 0.00628662 C8.4457143 0.00698581 10.81021979 0.01477846 13.17478943 0.02259827 C14.81003781 0.02446243 16.44528675 0.02588634 18.08053589 0.02688599 C22.39273103 0.03071134 26.7048927 0.04054177 31.01707458 0.05158997 C35.41404263 0.06180371 39.81101607 0.06638353 44.20799255 0.07142639 C52.84147149 0.08216402 61.47492317 0.09924065 70.10838318 0.12025452 C75.49527086 13.58679747 75.49527086 13.58679747 77.74559021 19.21546936 C81.11143419 27.63357626 84.48060474 36.05033098 87.8563385 44.46447754 C97.60890209 68.77505236 107.30533076 93.10552615 116.85838318 117.49525452 C124.59160068 137.2356597 132.40877182 156.94096492 140.29588318 176.62025452 C140.55916664 177.27717915 140.8224501 177.93410378 141.09371185 178.61093521 C141.35823906 179.27095913 141.62276627 179.93098305 141.89530945 180.61100769 C143.55128894 184.74286824 145.20697687 188.87484548 146.86228943 193.00697327 C147.28614677 194.06501632 147.28614677 194.06501632 147.71856689 195.14443398 C152.72999046 207.65648386 157.71819994 220.17770964 162.69822693 232.70228577 C163.25178801 234.09446949 163.25178801 234.09446949 163.81653214 235.51477814 C167.20685127 244.041942 170.59588382 252.56961701 173.9841156 261.09761047 C181.52380977 280.07440017 189.06872911 299.04885554 196.67478943 317.99916077 C197.25478853 319.44491684 197.83476533 320.89068185 198.41471863 322.3364563 C200.81062972 328.30826598 203.20805482 334.27943976 205.61404896 340.24719524 C206.77477158 343.12837448 207.93140587 346.01119526 209.08885193 348.89369202 C209.50260574 349.91616531 209.91635956 350.93863861 210.34265137 351.99209595 C210.8960746 353.37303688 210.8960746 353.37303688 211.4606781 354.78187561 C211.78146835 355.57790192 212.10225861 356.37392822 212.43276978 357.19407654 C213.10838318 359.12025452 213.10838318 359.12025452 213.10838318 361.12025452 C180.10838318 361.12025452 147.10838318 361.12025452 113.10838318 361.12025452 C106.41304254 344.38190293 100.93394184 327.18081917 95.10838318 310.12025452 C53.85838318 309.79025452 12.60838318 309.46025452 -29.89161682 309.12025452 C-30.22161682 310.77025452 -30.55161682 312.42025452 -30.89161682 314.12025452 C-36.50161682 329.63025452 -42.11161682 345.14025452 -47.89161682 361.12025452 C-80.89161682 361.12025452 -113.89161682 361.12025452 -147.89161682 361.12025452 C-144.26593787 351.4517773 -140.62956237 341.82262342 -136.77442932 332.24916077 C-136.26794516 330.98746529 -135.76161497 329.72570798 -135.25541687 328.46389771 C-133.7993737 324.8360007 -132.34082467 321.20911537 -130.88186646 317.58238983 C-129.45677765 314.0390798 -128.03295992 310.49525936 -126.60905075 306.95147514 C-122.83359099 297.55533077 -119.05639248 288.15988613 -115.27833557 278.76478577 C-99.78261015 240.23019124 -84.3041118 201.68892044 -68.8927536 163.12050247 C-53.97136357 125.77921741 -38.97845973 88.46676517 -23.97755432 51.15736389 C-23.52699299 50.03673742 -23.07643166 48.91611095 -22.61221695 47.76152611 C-20.49489936 42.49546794 -18.3773993 37.2294833 -16.25947571 31.96366882 C-15.87708363 31.01271017 -15.49469154 30.06175152 -15.10071182 29.08197594 C-14.36767782 27.25928334 -13.63434958 25.43670904 -12.90069199 23.61426735 C-11.27342813 19.56975262 -9.65235168 15.52306588 -8.04945374 11.46882629 C-7.62896696 10.40778844 -7.62896696 10.40778844 -7.1999855 9.32531548 C-6.46206388 7.4609862 -5.72715748 5.59546423 -4.99250793 3.72984314 C-3.48007702 0.14472698 -3.48007702 0.14472698 0 0 Z " fill="#0172DB" transform="translate(517.8916168212891,1187.8797454833984)"/>
<path d="M0 0 C0.84949219 0.67546875 1.69898438 1.3509375 2.57421875 2.046875 C18.95574557 15.79431252 27.95945609 36.14080192 31 57 C31 58.98 31 60.96 31 63 C4.6 63 -21.8 63 -49 63 C-49.99 58.545 -49.99 58.545 -51 54 C-53.75979994 48.37425398 -57.2527649 46.04602536 -63 44 C-66.35553127 43.48494748 -69.61154303 43.4829226 -73 43.5625 C-73.85078125 43.55541016 -74.7015625 43.54832031 -75.578125 43.54101562 C-81.35934996 43.59865054 -85.74085799 44.57135967 -91 47 C-94.68573856 50.78024468 -96.13844861 54.01013725 -96.3125 59.25 C-96.21000377 65.0084243 -94.13876901 68.66496748 -90.33984375 72.8125 C-85.20248814 77.70722895 -79.55325392 80.42550739 -73 83 C-72.1234375 83.34804687 -71.246875 83.69609375 -70.34375 84.0546875 C-64.2269591 86.37546993 -58.00265229 88.1826252 -51.70703125 89.94921875 C-1.27025004 104.24584061 -1.27025004 104.24584061 16 120 C16.84046875 120.76054688 17.6809375 121.52109375 18.546875 122.3046875 C24.20202764 127.67540938 28.45591305 133.0571672 32 140 C32.37769531 140.72832031 32.75539063 141.45664063 33.14453125 142.20703125 C37.98709063 152.27302547 39.4837612 162.48532558 39.3125 173.5625 C39.31572266 174.60857422 39.31894531 175.65464844 39.32226562 176.73242188 C39.15595001 201.09009961 29.75687993 220.24312007 12.6640625 237.3359375 C-10.20586845 259.0216649 -42.63534292 267.6955857 -73.50561523 267.28320312 C-100.63849455 266.47881456 -126.95403559 259.92804376 -148 242 C-148.88042969 241.26910156 -149.76085938 240.53820313 -150.66796875 239.78515625 C-164.91328054 227.52255048 -174.94395171 210.90717762 -179.1875 192.5625 C-179.36474609 191.85029297 -179.54199219 191.13808594 -179.72460938 190.40429688 C-179.97500977 189.33985352 -179.97500977 189.33985352 -180.23046875 188.25390625 C-180.37895264 187.62814697 -180.52743652 187.0023877 -180.68041992 186.35766602 C-181.14439122 182.93477003 -181 179.45419836 -181 176 C-154.6 176 -128.2 176 -101 176 C-100.01 178.97 -99.02 181.94 -98 185 C-94.61445365 191.95675169 -90.27638446 196.34085246 -83.05126953 199.36499023 C-79.28297432 200.53153818 -75.53839341 200.43126284 -71.625 200.375 C-70.82578125 200.38660156 -70.0265625 200.39820313 -69.203125 200.41015625 C-60.14001754 200.36616058 -53.18527359 198.03639428 -46.59765625 191.75 C-42.86394433 187.66026176 -42.6034648 183.61072105 -42.75390625 178.265625 C-43.48102184 171.57154494 -47.28479665 166.52474208 -52 162 C-54.68063401 160.19360569 -57.48586176 158.86893234 -60.4375 157.5625 C-61.25951904 157.18617432 -62.08153809 156.80984863 -62.9284668 156.42211914 C-72.09507904 152.33387695 -81.57721398 149.16772431 -91.0859375 145.98388672 C-125.02790439 134.52392303 -157.36253612 122.29069019 -174.51953125 88.72265625 C-181.13669058 73.58339778 -179.73208455 53.20398142 -174 38 C-169.87445236 27.76261987 -164.51158062 19.14089308 -157 11 C-156.41089844 10.319375 -155.82179688 9.63875 -155.21484375 8.9375 C-117.72150953 -31.93435445 -42.09285506 -34.73489142 0 0 Z " fill="#026FD8" transform="translate(1571,1292)"/>
<path d="M0 0 C1.38941551 -0.01723618 1.38941551 -0.01723618 2.80690002 -0.03482056 C3.82140228 -0.0422226 4.83590454 -0.04962463 5.88114929 -0.05725098 C7.48667412 -0.07433609 7.48667412 -0.07433609 9.12463379 -0.09176636 C20.34616792 -0.20261341 31.56836255 -0.2498894 42.79032898 -0.29260254 C48.10672489 -0.31348821 53.42242717 -0.35652747 58.73857117 -0.41564941 C65.16768998 -0.48700443 71.59614603 -0.52347543 78.02564049 -0.53572083 C80.46751655 -0.54607944 82.90937431 -0.56840251 85.35102272 -0.60331726 C100.17762411 -0.80427577 112.5049453 -0.9497851 124.03491211 9.47631836 C130.33879303 15.9535336 134.57898142 23.5768816 134.62866211 32.7124176 C134.63939507 34.07253464 134.63939507 34.07253464 134.65034485 35.46012878 C134.65303375 36.44769669 134.65572266 37.43526459 134.65849304 38.45275879 C134.66506424 39.49881287 134.67163544 40.54486694 134.67840576 41.62261963 C134.69812535 45.08675205 134.70980007 48.55084109 134.71977234 52.01501465 C134.72384787 53.200166 134.72792339 54.38531734 134.73212242 55.60638237 C134.75298007 61.88248393 134.76728166 68.15856366 134.7766571 74.43469238 C134.78770495 80.90183616 134.82208746 87.36863431 134.8618288 93.83565617 C134.88803937 98.82098508 134.89635304 103.80623232 134.89993858 108.79162407 C134.90479508 111.17451746 134.91638212 113.55740744 134.93497658 115.94023323 C134.95945576 119.28582835 134.95838628 122.6305381 134.95146179 125.97619629 C134.97067688 127.43629372 134.97067688 127.43629372 134.99028015 128.92588806 C134.90820353 139.8770159 131.43129426 148.17234891 123.84477234 156.00720215 C115.28248109 163.83356093 106.25866105 166.62477162 94.83378601 166.57141113 C93.27845909 166.58170601 93.27845909 166.58170601 91.69171143 166.59220886 C88.28165285 166.61043216 84.87205642 166.60664493 81.46195984 166.60095215 C79.07835746 166.60551669 76.69475639 166.61082307 74.31115723 166.61683655 C69.32059883 166.62575938 64.33020052 166.62335454 59.33964539 166.61340332 C52.96448539 166.60192606 46.58988033 166.62211099 40.21479321 166.65132046 C35.29292323 166.66972575 30.3711851 166.66938113 25.44928932 166.66368294 C23.09990474 166.66353019 20.75051095 166.66953543 18.40115929 166.68197441 C15.10621918 166.69696073 11.81228968 166.68614985 8.51737976 166.66906738 C7.08073471 166.68356934 7.08073471 166.68356934 5.61506653 166.69836426 C-5.33750484 166.58029956 -13.55012269 163.05428651 -21.35835266 155.4564209 C-29.74005845 146.57454098 -31.98404685 137.45938519 -31.9066925 125.35266113 C-31.91194946 124.32202545 -31.91720642 123.29138977 -31.92262268 122.22952271 C-31.93572983 118.85317425 -31.92711808 115.47730465 -31.91694641 112.10095215 C-31.91896965 109.73783783 -31.92188317 107.37472413 -31.92564392 105.01161194 C-31.93005458 100.07168604 -31.92367609 95.13192344 -31.90962219 90.1920166 C-31.8925219 83.87508633 -31.90238516 77.55853827 -31.92033958 71.24162197 C-31.93120332 66.36616662 -31.92771931 61.49080122 -31.91995621 56.61534309 C-31.91796186 54.28664161 -31.92038644 51.95793183 -31.92739487 49.62924004 C-31.93505293 46.37016165 -31.92334415 43.11169427 -31.9066925 39.85266113 C-31.9127652 38.90020004 -31.91883789 37.94773895 -31.9250946 36.96641541 C-31.8237117 26.20148177 -28.29856337 17.27304973 -20.85444641 9.4095459 C-15.06167285 4.14579275 -7.9427226 0.08061285 0 0 Z " fill="#DA2F3F" transform="translate(1855.5185089111328,1119.8326416015625)"/>
<path d="M0 0 C1.04517792 -0.00846954 2.09035583 -0.01693909 3.16720581 -0.02566528 C6.59947097 -0.04893637 10.03128518 -0.05005969 13.46362305 -0.04882812 C15.86582109 -0.05593609 18.26801745 -0.06363601 20.67021179 -0.07189941 C25.6976697 -0.0853219 30.72497063 -0.08692315 35.75244141 -0.08105469 C42.1712853 -0.0751636 48.58937154 -0.10573741 55.00806904 -0.14617157 C59.96772772 -0.17211626 64.92720566 -0.17491975 69.88692284 -0.17127991 C72.25223887 -0.17296508 74.61756379 -0.18254896 76.98281288 -0.20042419 C92.75132086 -0.30647968 105.24937504 -0.27058793 117.2565918 11.23632812 C120.23311802 14.64591451 122.32162651 18.3012194 124.1628418 22.41992188 C124.5065834 23.0718602 124.85032501 23.72379852 125.20448303 24.39549255 C126.6338459 28.90633664 126.46611424 33.28126462 126.46923828 37.98657227 C126.4775618 39.05067322 126.48588531 40.11477417 126.49446106 41.21112061 C126.51855924 44.72997704 126.52733477 48.2486479 126.53393555 51.76757812 C126.54290472 54.22033238 126.55202662 56.67308609 126.56129456 59.12583923 C126.57778854 64.27132495 126.58548496 69.41674559 126.58837891 74.56225586 C126.59375116 81.13363382 126.63138262 87.70439371 126.67712307 94.27559757 C126.70697438 99.34504893 126.71410429 104.41435323 126.71510506 109.48388481 C126.71929427 111.9050319 126.73167591 114.32617996 126.7526226 116.74724007 C126.98033195 145.3527669 126.98033195 145.3527669 116.04174805 156.74023438 C107.34243065 164.51717093 97.81274562 166.88023572 86.36987305 166.80810547 C84.80950821 166.81599091 84.80950821 166.81599091 83.21762085 166.82403564 C79.80337186 166.83716265 76.38959494 166.82852323 72.9753418 166.81835938 C70.588378 166.8203822 68.20141481 166.82329538 65.81445312 166.82705688 C60.82147311 166.83147037 55.82865455 166.82508047 50.83569336 166.81103516 C44.45035449 166.7939441 38.06539398 166.80379049 31.68006897 166.82175255 C26.75399956 166.83261664 21.82801918 166.82913196 16.90194702 166.82136917 C14.54812576 166.81937443 12.1942963 166.82180079 9.84048462 166.82880783 C6.54537686 166.83646539 3.25087354 166.82475735 -0.04418945 166.80810547 C-1.00757233 166.81417816 -1.9709552 166.82025085 -2.96353149 166.82650757 C-14.63113146 166.71781648 -22.28077926 162.74318512 -30.5949707 154.72460938 C-38.53827887 146.14264327 -39.9850146 136.63304855 -39.99829102 125.37231445 C-40.00325592 124.36352234 -40.00822083 123.35473022 -40.01333618 122.31536865 C-40.02792696 118.98172316 -40.03475522 115.64812529 -40.0402832 112.31445312 C-40.04603784 109.99142964 -40.05179553 107.66840616 -40.05755615 105.34538269 C-40.06805782 100.47398661 -40.07390574 95.60260698 -40.07739258 90.73120117 C-40.08287101 84.50506304 -40.10688888 78.27914428 -40.13536453 72.05307484 C-40.15403802 67.25308101 -40.15919906 62.45313949 -40.16072845 57.65311241 C-40.16374561 55.35871877 -40.17174229 53.06432585 -40.18491364 50.76996803 C-40.20207003 47.5513123 -40.20007019 44.33318553 -40.19360352 41.11450195 C-40.2028183 40.17648239 -40.21203308 39.23846283 -40.2215271 38.27201843 C-40.15385913 27.45799214 -37.09026475 18.53033745 -29.8371582 10.41992188 C-20.81538342 2.48672488 -11.81221255 -0.03576051 0 0 Z " fill="#34BD43" transform="translate(1676.837158203125,927.580078125)"/>
<path d="M0 0 C0.90667419 -0.00860046 1.81334839 -0.01720093 2.74749756 -0.02606201 C3.72989914 -0.03032196 4.71230072 -0.03458191 5.72447205 -0.03897095 C6.76906586 -0.04714844 7.81365967 -0.05532593 8.88990784 -0.06375122 C12.34379004 -0.08854314 15.79763125 -0.1051074 19.25157166 -0.11953735 C20.43455778 -0.12486103 21.61754391 -0.13018471 22.8363781 -0.13566971 C29.10066453 -0.16237712 35.36493123 -0.18175789 41.6292572 -0.19619751 C46.80001062 -0.20952252 51.97036811 -0.2373531 57.14097595 -0.27822876 C63.39728853 -0.32768084 69.6532427 -0.35233427 75.90974236 -0.35942459 C78.2862432 -0.36611561 80.66273672 -0.38128112 83.03912544 -0.4053154 C111.28784659 -0.67466878 111.28784659 -0.67466878 122.59141541 10.1343689 C130.43568033 19.1867907 132.64286257 28.03262327 132.63194275 39.68807983 C132.63865997 40.72481842 132.6453772 41.76155701 132.65229797 42.82971191 C132.67124069 46.24511557 132.67520045 49.66032228 132.67735291 53.07577515 C132.68378386 55.46080607 132.69051244 57.8458362 132.69752502 60.23086548 C132.70948881 65.22736438 132.71320681 70.22379419 132.71202087 75.2203064 C132.71181785 81.60331675 132.73910801 87.98588108 132.77356529 94.36878586 C132.79587169 99.29493215 132.79985724 104.22097178 132.79880142 109.14716339 C132.8011522 111.49934677 132.80994599 113.85153333 132.82546616 116.20366669 C132.84519937 119.50347044 132.83925854 122.80232118 132.82725525 126.10214233 C132.83849426 127.06147675 132.84973328 128.02081116 132.86131287 129.00921631 C132.76817709 139.15363639 129.58727486 148.84391804 122.34141541 156.15390015 C112.65532105 163.9310562 103.49471911 166.30064807 91.29380798 166.31503296 C90.28501587 166.31999786 89.27622375 166.32496277 88.23686218 166.33007812 C84.90321669 166.34466891 81.56961882 166.35149716 78.23594666 166.35702515 C75.91292317 166.36277978 73.58989969 166.36853747 71.26687622 166.3742981 C66.39548014 166.38479976 61.52410051 166.39064768 56.6526947 166.39413452 C50.42655657 166.39961295 44.20063781 166.42363083 37.97456837 166.45210648 C33.17457454 166.47077996 28.37463302 166.475941 23.57460594 166.4774704 C21.2802123 166.48048755 18.98581938 166.48848423 16.69146156 166.50165558 C13.47280583 166.51881198 10.25467906 166.51681213 7.03599548 166.51034546 C6.09797592 166.51956024 5.15995636 166.52877502 4.19351196 166.53826904 C-6.62051433 166.47060108 -15.54816902 163.40700669 -23.65858459 156.15390015 C-31.5816436 147.14365447 -34.1211513 138.16120216 -34.04676819 126.3609314 C-34.05202515 125.32068817 -34.0572821 124.28044495 -34.06269836 123.2086792 C-34.07582537 119.79443021 -34.06718595 116.38065329 -34.05702209 112.96640015 C-34.05904492 110.57943635 -34.06195809 108.19247316 -34.0657196 105.80551147 C-34.07013309 100.81253146 -34.06374319 95.8197129 -34.04969788 90.82675171 C-34.03260682 84.44141284 -34.04245321 78.05645233 -34.06041527 71.67112732 C-34.07127936 66.74505791 -34.06779467 61.81907753 -34.06003189 56.89300537 C-34.05803715 54.53918411 -34.06046351 52.18535465 -34.06747055 49.83154297 C-34.07512811 46.53643521 -34.06342007 43.24193189 -34.04676819 39.9468689 C-34.05284088 38.98348602 -34.05891357 38.02010315 -34.06517029 37.02752686 C-33.96455456 26.22678823 -30.46676136 17.28929813 -22.99452209 9.39608765 C-16.33027043 3.34044344 -9.04481832 0.06431838 0 0 Z " fill="#F9BF10" transform="translate(1857.6585845947266,927.8460998535156)"/>
<path d="M0 0 C14.53199739 11.50757154 24.81405193 27.24549058 27.27978516 45.74804688 C28.79912667 66.53440029 24.91597634 85.04055067 11.96728516 101.68554688 C-0.57889967 115.99335355 -16.65992068 124.55159848 -35.65380859 126.06054688 C-54.99928829 126.37736128 -71.06051561 121.32300825 -85.72021484 108.74804688 C-86.39697266 108.17183594 -87.07373047 107.595625 -87.77099609 107.00195312 C-99.41020276 96.24020328 -107.20438004 79.07787887 -108.00537109 63.32617188 C-108.61467426 42.24471443 -104.11627785 24.724516 -89.72021484 8.74804688 C-89.16720703 8.11382813 -88.61419922 7.47960938 -88.04443359 6.82617188 C-65.91225164 -17.04911749 -25.78268152 -18.76434726 0 0 Z " fill="#FDFEFE" transform="translate(937.72021484375,1357.251953125)"/>
<path d="M0 0 C13.21694254 10.32630449 22.88270417 24.40415561 26.27734375 41.03125 C26.71020217 45.8099787 26.74224839 50.54793729 26.71484375 55.34375 C26.73482422 56.57287109 26.75480469 57.80199219 26.77539062 59.06835938 C26.76586503 77.11935677 19.59523475 92.62480287 7.03125 105.375 C-6.21026406 118.14695682 -22.4346055 124.98967741 -40.84765625 125.46875 C-61.17899219 124.70284351 -76.75463227 117.55006357 -90.72265625 103.03125 C-91.31304688 102.46019531 -91.9034375 101.88914062 -92.51171875 101.30078125 C-96.03794159 97.63313236 -98.453655 93.26901562 -100.91015625 88.84375 C-101.24370117 88.25625977 -101.57724609 87.66876953 -101.92089844 87.06347656 C-107.25094464 77.03139564 -108.2825204 66.41641674 -108.22265625 55.21875 C-108.21766113 53.98914551 -108.21266602 52.75954102 -108.20751953 51.49267578 C-108.02726342 42.09325213 -106.91716298 34.48684294 -102.72265625 26.03125 C-102.27664063 25.13148437 -101.830625 24.23171875 -101.37109375 23.3046875 C-91.8117169 6.05508569 -76.83482089 -6.35086148 -57.91015625 -11.90625 C-38.06908974 -16.19764222 -16.40739011 -11.86416731 0 0 Z " fill="#FEFEFE" transform="translate(1265.72265625,1357.96875)"/>
<path d="M0 0 C7.73977912 6.89303406 12.39775901 15.74060737 14 26 C14.13852763 28.9741954 14.12637491 31.94421081 14.11352539 34.92114258 C14.11367142 35.80944763 14.11381744 36.69775269 14.1139679 37.61297607 C14.11327293 40.54018624 14.1055 43.46733225 14.09765625 46.39453125 C14.09579059 48.42762721 14.09436739 50.46072362 14.09336853 52.49382019 C14.08955499 57.83838141 14.07973462 63.18291536 14.06866455 68.52746582 C14.05842543 73.98380158 14.05386555 79.44014177 14.04882812 84.89648438 C14.03811132 95.59767015 14.02052392 106.29882854 14 117 C2.12 117 -9.76 117 -22 117 C-22.04898437 111.76253906 -22.09796875 106.52507812 -22.1484375 101.12890625 C-22.18385112 97.79750751 -22.21982667 94.46613361 -22.2578125 91.13476562 C-22.31796251 85.85493653 -22.37610727 80.57514192 -22.421875 75.29516602 C-22.45893262 71.03511239 -22.50534624 66.77525129 -22.55806351 62.51536369 C-22.57649925 60.89563332 -22.59164649 59.27586185 -22.60334396 57.6560688 C-22.12385579 43.34910192 -22.12385579 43.34910192 -27.375 30.5625 C-32.39119975 25.66573358 -36.43490918 25.59748929 -43.34692383 25.63647461 C-48.85358233 25.78736953 -51.84804407 26.40163819 -56 30 C-60.85750643 36.2109912 -61.11435061 42.85849383 -61.20532227 50.47412109 C-61.21522186 51.19676147 -61.22512146 51.91940186 -61.23532104 52.66394043 C-61.26670923 55.03374036 -61.29160294 57.40356029 -61.31640625 59.7734375 C-61.33699541 61.42396543 -61.35799238 63.07448832 -61.37937927 64.7250061 C-61.4343974 69.05515443 -61.48389546 73.38534873 -61.53222656 77.71557617 C-61.59145536 82.91863499 -61.65757116 88.12161035 -61.72252655 93.32460022 C-61.82028094 101.21634888 -61.90931129 109.10815273 -62 117 C-74.21 117 -86.42 117 -99 117 C-99 76.41 -99 35.82 -99 -6 C-87.45 -6 -75.9 -6 -64 -6 C-63.505 -0.555 -63.505 -0.555 -63 5 C-62.21625 3.96875 -61.4325 2.9375 -60.625 1.875 C-45.58273678 -15.57402533 -16.86917138 -13.50060049 0 0 Z " fill="#035ECE" transform="translate(1963,1438)"/>
<path d="M0 0 C12.54 0 25.08 0 38 0 C40.42062611 6.05156527 42.64796586 11.72752619 44.375 17.9375 C46.15386062 24.15791825 48.03045253 30.33730358 50 36.5 C52.17622132 43.32049441 54.24065508 50.16513845 56.23510742 57.04077148 C57.9981549 63.08128222 59.94828432 69.05117075 62 75 C62.15557373 74.44763672 62.31114746 73.89527344 62.47143555 73.32617188 C63.20782309 70.71679274 63.94766818 68.1084046 64.6875 65.5 C64.93177734 64.63246094 65.17605469 63.76492188 65.42773438 62.87109375 C67.18347266 56.69267294 69.05941513 50.55644343 70.98655701 44.42977905 C72.63881232 39.17249462 74.2568871 33.90546887 75.859375 28.6328125 C76.09711136 27.85141907 76.33484772 27.07002563 76.57978821 26.26495361 C77.55422626 23.06127534 78.52795541 19.85738552 79.49951172 16.65283203 C80.22205063 14.27067463 80.94678609 11.88919475 81.671875 9.5078125 C81.89164001 8.78087189 82.11140503 8.05393127 82.33782959 7.30496216 C83.88645852 2.22708295 83.88645852 2.22708295 85 0 C97.54 0 110.08 0 123 0 C122.22415353 4.6550788 121.54150574 7.43547174 119.6875 11.5625 C117.37683044 16.91632804 115.59697021 22.29199338 113.9921875 27.89453125 C113.08680458 30.7283085 111.96997364 33.38441199 110.78927612 36.11079407 C109.54247312 39.0951332 108.50205024 42.14306045 107.4453125 45.19921875 C104.75490075 52.91322114 101.97946871 60.59459491 99.1796875 68.26953125 C98.75044983 69.44707977 98.32121216 70.6246283 97.87896729 71.83786011 C96.09304538 76.73575073 94.30578368 81.63315029 92.51708984 86.5300293 C91.19484615 90.15100539 89.87465234 93.77272393 88.5546875 97.39453125 C88.15667938 98.48232376 87.75867126 99.57011627 87.34860229 100.69087219 C85.05113797 106.99870523 82.87188608 113.33068209 80.81253052 119.72050476 C80 122 80 122 79 123 C76.40640678 123.08851529 73.83960309 123.11525945 71.24609375 123.09765625 C70.47064713 123.0962413 69.6952005 123.09482635 68.89625549 123.09336853 C66.40996506 123.08775345 63.9237634 123.07519846 61.4375 123.0625 C59.75586067 123.05748694 58.07421994 123.0529237 56.39257812 123.04882812 C52.26168434 123.03777913 48.13085724 123.02050445 44 123 C42.24688487 118.20946729 40.49724025 113.4176779 38.75 108.625 C38.48388916 107.89513885 38.21777832 107.16527771 37.94360352 106.41329956 C33.20547746 93.40735601 28.57297611 80.36600232 24.01074219 67.29736328 C21.1318162 59.06730958 21.1318162 59.06730958 17.97265625 50.94140625 C15.34974895 44.51909146 13.17076378 37.94037808 10.9375 31.375 C7.76620241 21.98103623 7.76620241 21.98103623 4.37890625 12.6640625 C2.80570119 8.48370457 1.41245766 4.23737299 0 0 Z " fill="#035ECE" transform="translate(1730,1432)"/>
<path d="M0 0 C5.28 0 10.56 0 16 0 C16 55.77 16 111.54 16 169 C10.72 169 5.44 169 0 169 C-0.495 158.605 -0.495 158.605 -1 148 C-1.969375 149.340625 -2.93875 150.68125 -3.9375 152.0625 C-12.41587125 162.93395991 -25.29606591 170.23644768 -39 172 C-44.99200965 172.2770328 -51.00504858 172.12228723 -57 172 C-57.88558594 171.98324219 -58.77117188 171.96648437 -59.68359375 171.94921875 C-74.36965159 170.97755141 -88.9746735 162.48283148 -99 152 C-113.35346112 135.31164367 -117.34179112 118.43671056 -116 97 C-114.3398154 82.01306083 -107.59937965 70.49103846 -97 60 C-96.33613281 59.30261719 -95.67226563 58.60523438 -94.98828125 57.88671875 C-81.90607999 45.05370227 -64.3130295 40.48677599 -46.45654297 40.57543945 C-38.80191801 40.7928756 -32.16980371 42.20405338 -25 45 C-24.11183594 45.33902344 -23.22367188 45.67804687 -22.30859375 46.02734375 C-13.64398919 49.83760022 -6.63019619 56.49307175 -1 64 C-0.67 42.88 -0.34 21.76 0 0 Z M-89 73 C-99.23373687 85.39900413 -101.20681868 100.44282619 -100 116 C-97.70456914 129.03970662 -90.55435505 140.9253808 -79.72265625 148.6171875 C-77.20379839 150.21684131 -74.64999365 151.629586 -72 153 C-71.24847656 153.41636719 -70.49695313 153.83273437 -69.72265625 154.26171875 C-58.5139949 159.43913931 -42.15530279 159.04381066 -30.625 154.9375 C-25.11990136 152.36603945 -20.48725504 149.07291125 -16 145 C-15.37480469 144.46632813 -14.74960937 143.93265625 -14.10546875 143.3828125 C-4.83046603 134.93629586 0.3168011 122.15038529 1.23828125 109.80859375 C1.59180006 93.75139741 -3.71065659 80.9164281 -14.61328125 69.29296875 C-24.2667479 60.018689 -35.89466565 55.82290151 -49.0625 55.75 C-49.96677734 55.729375 -50.87105469 55.70875 -51.80273438 55.6875 C-66.74591982 55.60204933 -78.78655894 62.33567767 -89 73 Z " fill="#057FF0" transform="translate(1009,957)"/>
<path d="M0 0 C6.3762857 6.05435112 11.92293854 12.2885663 15.953125 20.20703125 C15.953125 20.86703125 15.953125 21.52703125 15.953125 22.20703125 C-0.00641116 24.14202165 -0.00641116 24.14202165 -4.84912109 21.06005859 C-7.98932596 18.03470241 -10.33171608 14.4162256 -12.79638672 10.83984375 C-21.07607037 0.02873007 -36.92817694 -5.46509317 -49.8828125 -7.3515625 C-69.72735944 -9.65298843 -87.18557985 -6.33812888 -103.234375 6.08203125 C-104.85286948 7.44013703 -106.45780979 8.81460622 -108.046875 10.20703125 C-109.07941406 11.09648438 -109.07941406 11.09648438 -110.1328125 12.00390625 C-123.02566297 23.92851894 -130.42586397 40.60681776 -131.375 58.03515625 C-132.0405098 78.90723234 -125.79792671 96.16819306 -111.765625 111.73828125 C-98.75035763 125.4125495 -83.1177278 132.90451314 -64.31298828 133.54150391 C-44.84999573 133.86298219 -27.33968018 127.9319104 -13.046875 114.20703125 C-12.33015625 113.2325 -11.6134375 112.25796875 -10.875 111.25390625 C-5.23613133 103.6706001 -5.23613133 103.6706001 -0.75244141 102.72119141 C4.85477586 102.25401239 10.36665269 102.63920706 15.953125 103.20703125 C9.34255312 121.70981749 -7.53334353 135.25893651 -24.609375 143.45703125 C-44.98612477 152.48927849 -71.17477787 153.71331119 -92.1328125 145.6953125 C-116.98520454 135.61003082 -134.51973396 117.83644408 -145.046875 93.20703125 C-148.868154 83.06543613 -149.25137624 73.3311134 -149.296875 62.58203125 C-149.3175 61.38707031 -149.338125 60.19210937 -149.359375 58.9609375 C-149.40793385 47.7559822 -147.51026085 37.30858779 -142.859375 27.08203125 C-142.55821777 26.41026855 -142.25706055 25.73850586 -141.94677734 25.04638672 C-139.05818568 18.84043966 -135.41606564 13.47793103 -131.046875 8.20703125 C-130.37011719 7.36785156 -129.69335938 6.52867187 -128.99609375 5.6640625 C-113.46995822 -12.64372071 -92.29261692 -22.70294443 -68.515625 -24.71484375 C-42.21010395 -25.54729695 -19.47360441 -18.01369492 0 0 Z " fill="#0453C7" transform="translate(525.046875,978.79296875)"/>
<path d="M0 0 C1.35238724 1.14452507 2.68666607 2.31086465 4 3.5 C4.67160156 4.08007812 5.34320312 4.66015625 6.03515625 5.2578125 C15.9090001 14.35164171 24.14538958 28.37383775 25.19287109 42.01098633 C25.57482193 55.38505259 25.85932168 67.19692303 20 79.5 C19.52691406 80.52738281 19.05382812 81.55476563 18.56640625 82.61328125 C10.71678675 97.70569182 -3.42563802 109.3363542 -19.375 114.9375 C-36.14536475 120.20481175 -54.48263163 118.88544234 -70.0859375 110.92578125 C-87.59203998 100.40740875 -99.51751474 84.98759053 -104.59375 65.18359375 C-107.39076713 46.70714403 -103.63811682 28.20169636 -92.5625 13.0625 C-81.50297539 -0.80783402 -68.08559623 -10.61976054 -50.203125 -13.1875 C-31.27516004 -15.03413073 -15.25399329 -11.46025403 0 0 Z M-78 19.5 C-86.6175857 29.78234657 -90.03068258 42.52097105 -89.34765625 55.71484375 C-87.98995647 70.49699078 -81.83241876 81.76701057 -71.11328125 92.01171875 C-58.50674203 102.08745963 -44.6932886 103.91816213 -29 102.5 C-16.42433348 99.68153404 -6.5472577 91.7483815 1 81.5 C9.17298936 67.9266762 11.59458981 52.24202738 8.16015625 36.69921875 C3.12516019 22.5435901 -6.87965158 11.09217034 -20.34765625 4.5078125 C-26.90900235 2.01469425 -32.91272481 1.13529785 -39.875 1.1875 C-40.66583984 1.19313965 -41.45667969 1.1987793 -42.27148438 1.20458984 C-57.21257139 1.51458364 -68.28753599 8.3493442 -78 19.5 Z " fill="#0464D7" transform="translate(711,1011.5)"/>
<path d="M0 0 C5.61 0 11.22 0 17 0 C17.0093457 2.34488525 17.01869141 4.68977051 17.02832031 7.10571289 C17.06229674 14.90894142 17.11795825 22.71191123 17.18390274 30.51493168 C17.22318071 35.23954083 17.25546464 39.96396908 17.27099609 44.6887207 C17.2862937 49.26014795 17.32096654 53.83107718 17.36830902 58.40228081 C17.38298916 60.13426793 17.3910332 61.8663262 17.39188385 63.59837532 C17.40554044 77.48005832 17.89490741 93.28994621 28 104 C37.71335755 112.32573504 48.64530998 112.81618671 60.88085938 112.19091797 C69.53238199 111.41148356 76.97078381 107.11164688 83 101 C92.85199474 88.70699763 93.60172553 73.80197405 93.609375 58.7890625 C93.62439426 57.08269716 93.6411291 55.37634614 93.65948486 53.67001343 C93.70275095 49.22814176 93.72306582 44.786466 93.73822021 40.34442139 C93.75794006 35.79199836 93.79989211 31.23978247 93.83984375 26.6875 C93.91470343 17.79169612 93.96320017 8.8960428 94 0 C99.28 0 104.56 0 110 0 C110 41.25 110 82.5 110 125 C105.05 125 100.1 125 95 125 C94.505 116.09 94.505 116.09 94 107 C93.21625 108.340625 92.4325 109.68125 91.625 111.0625 C85.60515241 120.0498781 75.70214885 125.36356611 65.2421875 127.5859375 C48.18944349 129.76375782 32.62807746 127.52847953 18.5234375 117.18359375 C6.45136686 107.19082624 1.98454039 93.0836282 0 78 C-0.47491488 71.83523145 -0.35291588 65.65043937 -0.29296875 59.47265625 C-0.2873566 57.74531935 -0.28309419 56.01797759 -0.28010559 54.29063416 C-0.26878401 49.79768114 -0.23943011 45.3050304 -0.20599365 40.81219482 C-0.17501519 36.20621832 -0.16154159 31.60019182 -0.14648438 26.99414062 C-0.11454487 17.99594122 -0.06188475 8.99804332 0 0 Z " fill="#0672E3" transform="translate(759,1001)"/>
<path d="M0 0 C0.99 0.33 1.98 0.66 3 1 C3.90380859 2.95507812 3.90380859 2.95507812 4.6484375 5.53125 C4.92888916 6.47830811 5.20934082 7.42536621 5.49829102 8.40112305 C5.93226196 9.93506714 5.93226196 9.93506714 6.375 11.5 C6.83507446 13.06971558 6.83507446 13.06971558 7.30444336 14.67114258 C8.21329461 17.77786941 9.10701745 20.88868242 10 24 C10.65269979 26.22741074 11.31043504 28.45327167 11.96899414 30.67895508 C12.56896579 32.70938154 13.16375792 34.74127275 13.7578125 36.7734375 C15.87878831 44.01071246 18.06188354 51.2295772 20.23388672 58.45166016 C21.74180218 63.46747328 23.24600774 68.48440094 24.74975586 73.50146484 C25.99566443 77.65719633 27.24457684 81.81197586 28.5 85.96484375 C31.18425996 94.85569179 33.81694569 103.75943367 36.375 112.6875 C36.63796875 113.60329834 36.9009375 114.51909668 37.171875 115.46264648 C37.41164063 116.30384033 37.65140625 117.14503418 37.8984375 118.01171875 C38.21820557 119.13259888 38.21820557 119.13259888 38.54443359 120.27612305 C39 122 39 122 39 123 C14.25 123 -10.5 123 -36 123 C-33.75393635 111.76968174 -33.75393635 111.76968174 -32.51953125 108.08984375 C-32.24616943 107.25807617 -31.97280762 106.42630859 -31.69116211 105.56933594 C-31.40120361 104.70083008 -31.11124512 103.83232422 -30.8125 102.9375 C-28.14102366 94.76063059 -25.70971486 86.54640314 -23.4375 78.25 C-21.27463211 70.37179414 -18.94000603 62.61262467 -16.27148438 54.89233398 C-13.71037283 47.37289009 -11.64787389 39.72269005 -9.54614258 32.06469727 C-7.582256 24.95225798 -5.4037617 17.96625928 -3 10.9921875 C-1.78617818 7.36020502 -0.83835863 3.73450663 0 0 Z " fill="#FCFDFE" transform="translate(550,1301)"/>
<path d="M0 0 C5.28 0 10.56 0 16 0 C16 55.77 16 111.54 16 169 C10.72 169 5.44 169 0 169 C0 113.23 0 57.46 0 0 Z " fill="#015ACF" transform="translate(566,957)"/>
<path d="M0 0 C12.54 0 25.08 0 38 0 C38 12.54 38 25.08 38 38 C25.46 38 12.92 38 0 38 C0 25.46 0 12.92 0 0 Z " fill="#0353C7" transform="translate(1679,1517)"/>
</svg>
